<?xml version="1.0" encoding="UTF-8"?>
<!DOCTYPE svg PUBLIC "-//W3C//DTD SVG 1.1//EN" "http://www.w3.org/Graphics/SVG/1.1/DTD/svg11.dtd">
<svg xmlns="http://www.w3.org/2000/svg" version="1.1" width="680px" height="661px" style="shape-rendering:geometricPrecision; text-rendering:geometricPrecision; image-rendering:optimizeQuality; fill-rule:evenodd; clip-rule:evenodd" xmlns:xlink="http://www.w3.org/1999/xlink">
<g><path style="opacity:0.99" fill="#fefdfd" d="M 1.5,-0.5 C 226.5,-0.5 451.5,-0.5 676.5,-0.5C 676.5,158.5 676.5,317.5 676.5,476.5C 624.167,476.5 571.833,476.5 519.5,476.5C 519.5,475.5 519.5,474.5 519.5,473.5C 515.5,473.5 511.5,473.5 507.5,473.5C 503.5,473.5 499.5,473.5 495.5,473.5C 495.5,477.5 495.5,481.5 495.5,485.5C 491.5,485.5 487.5,485.5 483.5,485.5C 483.5,481.5 483.5,477.5 483.5,473.5C 479.167,473.5 474.833,473.5 470.5,473.5C 470.5,471.833 470.5,470.167 470.5,468.5C 471.031,466.456 472.198,464.789 474,463.5C 478.592,452.642 482.925,441.642 487,430.5C 495.897,421.692 504.564,412.692 513,403.5C 518.104,393.621 524.438,384.621 532,376.5C 541.558,358.385 550.892,340.052 560,321.5C 564.328,315.17 568.662,308.837 573,302.5C 573.333,295.5 573.667,288.5 574,281.5C 577.616,274.928 580.116,267.928 581.5,260.5C 582.645,256.689 582.812,252.689 582,248.5C 581.617,247.944 581.117,247.611 580.5,247.5C 577.786,246.042 574.786,245.042 571.5,244.5C 574.236,239.477 575.07,234.144 574,228.5C 570.256,227.374 566.423,227.207 562.5,228C 556.976,233.648 551.976,239.648 547.5,246C 546.207,246.49 544.873,246.657 543.5,246.5C 544.459,240.862 544.626,235.195 544,229.5C 540.656,227.411 537.156,225.744 533.5,224.5C 532.167,224.667 530.833,224.833 529.5,225C 528.333,226.833 527.167,228.667 526,230.5C 525.501,236.157 525.334,241.824 525.5,247.5C 519.906,246.375 514.406,245.042 509,243.5C 506.329,243.274 503.996,243.941 502,245.5C 494.707,238.372 487.54,231.039 480.5,223.5C 485.413,221.815 490.413,220.315 495.5,219C 502.837,215.414 510.337,212.247 518,209.5C 526.839,205.663 535.339,201.163 543.5,196C 554.768,184.287 567.268,174.121 581,165.5C 582.29,163.208 583.957,161.208 586,159.5C 586.303,155.996 587.137,152.662 588.5,149.5C 589.747,143.37 590.414,137.037 590.5,130.5C 590.726,124.516 592.392,119.016 595.5,114C 595.561,112.289 594.894,110.956 593.5,110C 580.386,106.461 567.72,102.295 555.5,97.5C 532.658,96.3726 509.658,96.5393 486.5,98C 484.942,98.21 483.609,98.71 482.5,99.5C 470.104,101.017 457.77,103.517 445.5,107C 441.561,108.747 437.895,110.914 434.5,113.5C 432.326,113.75 430.659,114.75 429.5,116.5C 418.445,124.023 407.445,131.857 396.5,140C 391.833,142.667 387.167,145.333 382.5,148C 380.457,149.708 378.79,151.708 377.5,154C 371.191,155.821 365.525,158.654 360.5,162.5C 358.133,162.158 355.8,161.658 353.5,161C 339.012,151.428 324.012,142.928 308.5,135.5C 302.347,134.347 296.014,134.18 289.5,135C 288.944,135.383 288.611,135.883 288.5,136.5C 287.185,137.476 285.852,138.476 284.5,139.5C 262.739,139.945 241.072,141.279 219.5,143.5C 212.833,143.333 206.167,143.167 199.5,143C 189.133,127.604 179.966,111.437 172,94.5C 169.648,86.4105 167.315,78.4105 165,70.5C 163.859,68.3911 162.359,66.5578 160.5,65C 141.573,57.2019 122.906,48.8686 104.5,40C 95.5761,38.1841 86.5761,37.5174 77.5,38C 75.6667,38.5 74.5,39.6667 74,41.5C 73.8417,48.9769 71.5084,55.6436 67,61.5C 65.9898,66.8863 63.6565,71.5529 60,75.5C 56.9777,97.9261 56.8111,120.259 59.5,142.5C 57.8015,151.064 57.1348,159.731 57.5,168.5C 57.2536,173.453 59.2536,177.119 63.5,179.5C 64.2832,181.076 65.4499,182.409 67,183.5C 72.3039,197.263 80.4706,209.096 91.5,219C 89.8333,221.265 87.9999,223.431 86,225.5C 84.4848,229.897 82.8181,234.23 81,238.5C 78.0572,229.057 75.8905,219.39 74.5,209.5C 71.4816,209.335 68.4816,209.502 65.5,210C 64.3204,211.896 62.8204,213.396 61,214.5C 56.9054,211.983 54.5721,208.316 54,203.5C 52,202.167 50,202.167 48,203.5C 46.8313,208.153 44.3313,211.82 40.5,214.5C 39.9364,204.731 35.4364,202.065 27,206.5C 26.5017,209.817 26.335,213.15 26.5,216.5C 23.0325,215.926 20.3659,214.092 18.5,211C 15.6529,210.056 13.1529,210.556 11,212.5C 9.54409,223.731 9.04409,235.064 9.5,246.5C 9.33499,249.85 9.50166,253.183 10,256.5C 10.7083,257.381 11.5416,258.047 12.5,258.5C 11.9106,262.971 12.5772,266.971 14.5,270.5C 14.7704,275.028 15.4371,279.361 16.5,283.5C 18.1278,298.124 19.4612,312.791 20.5,327.5C 20.829,336.121 22.1623,344.454 24.5,352.5C 27.8316,362.889 30.9982,373.556 34,384.5C 38.25,389.785 41.25,395.785 43,402.5C 43.6246,421.253 45.1246,439.92 47.5,458.5C 47.5,463.5 47.5,468.5 47.5,473.5C 45.5,473.5 43.5,473.5 41.5,473.5C 37.5,473.5 33.5,473.5 29.5,473.5C 28.5166,477.298 28.1832,481.298 28.5,485.5C 24.5,485.5 20.5,485.5 16.5,485.5C 16.5,481.5 16.5,477.5 16.5,473.5C 12.5,473.5 8.5,473.5 4.5,473.5C 4.5,474.5 4.5,475.5 4.5,476.5C 3.5,476.5 2.5,476.5 1.5,476.5C 1.5,317.5 1.5,158.5 1.5,-0.5 Z"/></g>
<g><path style="opacity:1" fill="#ff211a" d="M 448.5,2.5 C 450.5,2.5 452.5,2.5 454.5,2.5C 456.23,11.7422 456.73,21.0756 456,30.5C 454.301,31.4061 452.467,31.7394 450.5,31.5C 450.319,21.7851 449.652,12.1185 448.5,2.5 Z"/></g>
<g><path style="opacity:1" fill="#ff241a" d="M 171.5,9.5 C 173.467,9.26057 175.301,9.59391 177,10.5C 177.5,23.4957 177.667,36.4957 177.5,49.5C 189.181,49.434 200.848,49.7673 212.5,50.5C 212.739,52.4672 212.406,54.3005 211.5,56C 198.158,55.3886 184.825,55.5552 171.5,56.5C 171.5,40.8333 171.5,25.1667 171.5,9.5 Z"/></g>
<g><path style="opacity:1" fill="#ff221a" d="M 413.5,9.5 C 416.167,9.5 418.833,9.5 421.5,9.5C 422.176,20.1684 423.009,30.8351 424,41.5C 427.25,44.1006 428.084,47.2673 426.5,51C 424.866,51.4935 423.199,51.6602 421.5,51.5C 421.431,48.9158 420.265,46.9158 418,45.5C 417.184,35.8315 416.351,26.1648 415.5,16.5C 410.567,19.5915 407.4,23.9249 406,29.5C 404.938,30.0968 403.772,30.4302 402.5,30.5C 394.987,28.4095 388.321,24.7428 382.5,19.5C 381.338,24.1313 381.172,28.798 382,33.5C 382.966,39.1298 383.633,44.7964 384,50.5C 386.507,53.3763 387.007,56.543 385.5,60C 384.167,60.6667 382.833,60.6667 381.5,60C 380.206,57.913 379.039,55.7463 378,53.5C 375.956,39.5775 375.123,25.5775 375.5,11.5C 378.219,11.3975 380.885,11.7308 383.5,12.5C 388.644,16.6273 394.311,19.9606 400.5,22.5C 404.521,17.8123 408.854,13.479 413.5,9.5 Z"/></g>
<g><path style="opacity:1" fill="#ff2018" d="M 268.5,59.5 C 269.131,57.5522 270.131,55.7189 271.5,54C 267.514,53.5012 263.514,53.3345 259.5,53.5C 257.72,52.0101 257.054,50.0101 257.5,47.5C 264.558,47.203 271.558,47.5363 278.5,48.5C 279.12,56.8043 279.12,65.1376 278.5,73.5C 274.211,74.5168 271.878,72.8502 271.5,68.5C 269.431,71.5725 266.764,73.9059 263.5,75.5C 258.463,75.5874 253.463,75.254 248.5,74.5C 241.735,74.3785 236.902,71.3785 234,65.5C 233.152,57.3769 233.818,49.3769 236,41.5C 238.309,34.4024 241.143,27.569 244.5,21C 250.839,20.6516 257.173,20.8183 263.5,21.5C 263.5,23.5 263.5,25.5 263.5,27.5C 258.42,27.1506 253.42,27.1506 248.5,27.5C 242.516,38.77 239.682,50.77 240,63.5C 240.779,64.7282 241.779,65.7282 243,66.5C 248.689,68.7832 254.522,69.9499 260.5,70C 264.147,67.1937 266.814,63.6937 268.5,59.5 Z"/></g>
<g><path style="opacity:1" fill="#ff1812" d="M 328.5,57.5 C 327.517,61.2984 327.183,65.2984 327.5,69.5C 326.167,69.5 324.833,69.5 323.5,69.5C 323.5,64.1667 323.5,58.8333 323.5,53.5C 324.074,47.5164 324.407,41.5164 324.5,35.5C 316.666,35.658 308.999,35.658 301.5,35.5C 301.5,33.8333 301.5,32.1667 301.5,30.5C 316.512,30.3649 331.512,30.1983 346.5,30C 347.406,31.6995 347.739,33.5328 347.5,35.5C 341.788,35.313 336.121,35.6463 330.5,36.5C 330.741,43.7299 330.075,50.7299 328.5,57.5 Z"/></g>
<g><path style="opacity:1" fill="#141314" d="M 288.5,136.5 C 295.109,135.577 301.776,135.244 308.5,135.5C 324.012,142.928 339.012,151.428 353.5,161C 355.8,161.658 358.133,162.158 360.5,162.5C 365.525,158.654 371.191,155.821 377.5,154C 378.79,151.708 380.457,149.708 382.5,148C 387.167,145.333 391.833,142.667 396.5,140C 407.445,131.857 418.445,124.023 429.5,116.5C 431.848,116.408 433.514,115.408 434.5,113.5C 437.895,110.914 441.561,108.747 445.5,107C 457.77,103.517 470.104,101.017 482.5,99.5C 506.799,97.9659 531.132,97.2992 555.5,97.5C 567.72,102.295 580.386,106.461 593.5,110C 594.894,110.956 595.561,112.289 595.5,114C 592.392,119.016 590.726,124.516 590.5,130.5C 588.906,136.594 588.239,142.928 588.5,149.5C 587.137,152.662 586.303,155.996 586,159.5C 583.957,161.208 582.29,163.208 581,165.5C 567.268,174.121 554.768,184.287 543.5,196C 535.339,201.163 526.839,205.663 518,209.5C 510.337,212.247 502.837,215.414 495.5,219C 490.413,220.315 485.413,221.815 480.5,223.5C 487.54,231.039 494.707,238.372 502,245.5C 503.996,243.941 506.329,243.274 509,243.5C 514.406,245.042 519.906,246.375 525.5,247.5C 525.334,241.824 525.501,236.157 526,230.5C 527.167,228.667 528.333,226.833 529.5,225C 530.833,224.833 532.167,224.667 533.5,224.5C 537.156,225.744 540.656,227.411 544,229.5C 544.626,235.195 544.459,240.862 543.5,246.5C 544.873,246.657 546.207,246.49 547.5,246C 551.976,239.648 556.976,233.648 562.5,228C 566.423,227.207 570.256,227.374 574,228.5C 575.07,234.144 574.236,239.477 571.5,244.5C 574.786,245.042 577.786,246.042 580.5,247.5C 581.373,251.768 581.706,256.102 581.5,260.5C 580.116,267.928 577.616,274.928 574,281.5C 573.667,288.5 573.333,295.5 573,302.5C 568.662,308.837 564.328,315.17 560,321.5C 550.892,340.052 541.558,358.385 532,376.5C 524.438,384.621 518.104,393.621 513,403.5C 504.564,412.692 495.897,421.692 487,430.5C 482.925,441.642 478.592,452.642 474,463.5C 472.198,464.789 471.031,466.456 470.5,468.5C 469.549,469.919 469.216,471.585 469.5,473.5C 467.167,473.5 464.833,473.5 462.5,473.5C 462.5,472.167 462.5,470.833 462.5,469.5C 467.631,458.233 473.131,446.899 479,435.5C 479.241,432.711 479.908,430.044 481,427.5C 488.694,418.473 497.027,410.14 506,402.5C 514.814,388.898 524.147,375.565 534,362.5C 543.405,340.356 554.405,319.023 567,298.5C 567.333,292.833 567.667,287.167 568,281.5C 571.93,272.106 574.763,262.44 576.5,252.5C 574.61,252.297 573.11,252.963 572,254.5C 570.502,260.171 567.002,263.504 561.5,264.5C 561.335,261.482 561.502,258.482 562,255.5C 563.565,247.891 565.732,240.557 568.5,233.5C 565.737,233.744 563.571,235.077 562,237.5C 559.303,242.871 555.803,247.704 551.5,252C 548.079,251.879 545.412,253.212 543.5,256C 541.866,256.494 540.199,256.66 538.5,256.5C 538.831,248.804 538.497,241.138 537.5,233.5C 535.506,231.083 533.673,231.083 532,233.5C 535.476,254.504 527.976,259.838 509.5,249.5C 507.603,249.728 506.27,250.728 505.5,252.5C 524.073,273.001 530.239,297.001 524,324.5C 521.354,334.778 517.354,344.444 512,353.5C 506.939,358.627 502.606,364.293 499,370.5C 491.333,376.833 484.333,383.833 478,391.5C 474.409,400.759 467.909,406.925 458.5,410C 442.183,416.326 425.183,419.993 407.5,421C 400.583,422.909 393.583,424.576 386.5,426C 360.919,430.406 335.253,434.239 309.5,437.5C 288.144,437.776 266.811,437.443 245.5,436.5C 212.782,428.206 181.115,417.039 150.5,403C 130.241,397.028 110.574,389.694 91.5,381C 84.5789,376.29 77.7456,371.456 71,366.5C 64.1428,354.492 61.8095,341.492 64,327.5C 67.3414,302.452 72.8414,277.952 80.5,254C 79.269,249.372 77.1023,245.205 74,241.5C 72.947,233.288 70.947,225.288 68,217.5C 67.1005,220.526 65.1005,222.193 62,222.5C 59.5177,221.365 57.0177,220.199 54.5,219C 53.3204,217.104 51.8204,215.604 50,214.5C 46.2249,220.019 41.2249,222.019 35,220.5C 34.8091,218.292 34.3091,216.292 33.5,214.5C 33.719,213.325 33.3857,212.325 32.5,211.5C 31.5067,216.12 31.1734,220.786 31.5,225.5C 29.6365,226.793 27.6365,226.793 25.5,225.5C 23.0515,222.444 20.0515,220.111 16.5,218.5C 16.44,217.957 16.1067,217.624 15.5,217.5C 14.1782,226.658 14.1782,235.658 15.5,244.5C 18.3665,260.033 21.1999,275.7 24,291.5C 24.5043,303.531 25.3377,315.531 26.5,327.5C 26.4203,330.781 27.087,333.781 28.5,336.5C 28.5,337.167 28.5,337.833 28.5,338.5C 28.1164,342.489 28.783,346.155 30.5,349.5C 31.5764,356.71 33.2431,363.71 35.5,370.5C 35.5275,373.916 36.5275,376.916 38.5,379.5C 41.374,385.872 44.874,391.872 49,397.5C 49.6561,422.959 51.4895,448.292 54.5,473.5C 52.5,473.5 50.5,473.5 48.5,473.5C 48.8205,468.305 48.4872,463.305 47.5,458.5C 45.1246,439.92 43.6246,421.253 43,402.5C 41.25,395.785 38.25,389.785 34,384.5C 30.9982,373.556 27.8316,362.889 24.5,352.5C 23.8948,343.914 22.5615,335.581 20.5,327.5C 19.4612,312.791 18.1278,298.124 16.5,283.5C 16.665,280.15 16.4983,276.817 16,273.5C 15.7679,272.263 15.2679,271.263 14.5,270.5C 14.6558,266.236 13.9891,262.236 12.5,258.5C 11.4902,254.386 10.4902,250.386 9.5,246.5C 9.04409,235.064 9.54409,223.731 11,212.5C 13.1529,210.556 15.6529,210.056 18.5,211C 20.3659,214.092 23.0325,215.926 26.5,216.5C 26.335,213.15 26.5017,209.817 27,206.5C 35.4364,202.065 39.9364,204.731 40.5,214.5C 44.3313,211.82 46.8313,208.153 48,203.5C 50,202.167 52,202.167 54,203.5C 54.5721,208.316 56.9054,211.983 61,214.5C 62.8204,213.396 64.3204,211.896 65.5,210C 68.4816,209.502 71.4816,209.335 74.5,209.5C 75.8905,219.39 78.0572,229.057 81,238.5C 82.8181,234.23 84.4848,229.897 86,225.5C 87.9999,223.431 89.8333,221.265 91.5,219C 80.4706,209.096 72.3039,197.263 67,183.5C 65.4499,182.409 64.2832,181.076 63.5,179.5C 60.7659,176.202 58.7659,172.535 57.5,168.5C 57.1348,159.731 57.8015,151.064 59.5,142.5C 56.8111,120.259 56.9777,97.9261 60,75.5C 63.6565,71.5529 65.9898,66.8863 67,61.5C 71.5084,55.6436 73.8417,48.9769 74,41.5C 74.5,39.6667 75.6667,38.5 77.5,38C 86.5761,37.5174 95.5761,38.1841 104.5,40C 122.906,48.8686 141.573,57.2019 160.5,65C 162.359,66.5578 163.859,68.3911 165,70.5C 167.315,78.4105 169.648,86.4105 172,94.5C 179.966,111.437 189.133,127.604 199.5,143C 206.167,143.167 212.833,143.333 219.5,143.5C 241.072,141.279 262.739,139.945 284.5,139.5C 285.852,138.476 287.185,137.476 288.5,136.5 Z"/></g>
<g><path style="opacity:1" fill="#9377af" d="M 88.5,44.5 C 85.6146,44.1936 82.9479,44.5269 80.5,45.5C 79.9569,45.44 79.6236,45.1067 79.5,44.5C 82.6447,43.1968 85.6447,43.1968 88.5,44.5 Z"/></g>
<g><path style="opacity:1" fill="#ff261f" d="M 451.5,42.5 C 456.667,41.4919 458.334,43.3252 456.5,48C 454.866,48.4935 453.199,48.6602 451.5,48.5C 451.5,46.5 451.5,44.5 451.5,42.5 Z"/></g>
<g><path style="opacity:1" fill="#7917e5" d="M 80.5,45.5 C 82.9479,44.5269 85.6146,44.1936 88.5,44.5C 94.1328,45.5445 99.7995,45.5445 105.5,44.5C 105.281,45.675 105.614,46.675 106.5,47.5C 110.075,48.2893 113.408,49.6226 116.5,51.5C 114.019,52.2583 111.352,52.2583 108.5,51.5C 103.786,51.6469 99.1191,51.3136 94.5,50.5C 94.5,49.5 94.5,48.5 94.5,47.5C 89.7277,47.4781 85.0611,46.8115 80.5,45.5 Z"/></g>
<g><path style="opacity:1" fill="#74563a" d="M 79.5,52.5 C 83.3293,51.931 86.6627,52.5977 89.5,54.5C 85.9601,54.2474 82.6267,53.5808 79.5,52.5 Z"/></g>
<g><path style="opacity:1" fill="#702cb5" d="M 108.5,51.5 C 111.352,52.2583 114.019,52.2583 116.5,51.5C 117.995,51.9887 119.329,52.6554 120.5,53.5C 120.5,54.1667 120.167,54.5 119.5,54.5C 115.583,54.0244 111.916,53.0244 108.5,51.5 Z"/></g>
<g><path style="opacity:1" fill="#fc7e01" d="M 78.5,52.5 C 78.8333,52.5 79.1667,52.5 79.5,52.5C 82.6267,53.5808 85.9601,54.2474 89.5,54.5C 90.5,55.1667 91.5,55.8333 92.5,56.5C 97.5683,58.1776 102.902,58.8443 108.5,58.5C 110.438,60.1628 112.772,60.8294 115.5,60.5C 121.185,61.1776 125.185,64.1776 127.5,69.5C 127.949,80.0299 128.949,90.3632 130.5,100.5C 131.323,111.37 132.323,122.37 133.5,133.5C 133.334,138.844 133.501,144.177 134,149.5C 134.337,155.281 135.504,160.614 137.5,165.5C 133.211,170.961 128.711,176.294 124,181.5C 114.529,189.98 106.029,199.48 98.5,210C 96.6303,211.564 94.6303,211.564 92.5,210C 91.6634,208.989 91.33,207.822 91.5,206.5C 86.2291,205.896 83.2291,202.896 82.5,197.5C 77.2209,189.25 71.7209,181.25 66,173.5C 62.7686,166.85 61.7686,159.85 63,152.5C 64.1995,147.742 65.0328,142.908 65.5,138C 65.7418,135.652 64.9084,133.818 63,132.5C 61.9142,115.086 62.5809,97.7529 65,80.5C 65.3661,78.5483 66.1995,76.8816 67.5,75.5C 69.6246,72.9122 70.9579,69.9122 71.5,66.5C 74.2186,63.7296 75.8852,60.3963 76.5,56.5C 77.6737,55.4863 78.3404,54.153 78.5,52.5 Z"/></g>
<g><path style="opacity:1" fill="#ffc1c0" d="M 259.5,53.5 C 263.514,53.3345 267.514,53.5012 271.5,54C 270.131,55.7189 269.131,57.5522 268.5,59.5C 268.5,57.8333 268.5,56.1667 268.5,54.5C 265.287,54.81 262.287,54.4767 259.5,53.5 Z"/></g>
<g><path style="opacity:1" fill="#81572f" d="M 78.5,52.5 C 78.3404,54.153 77.6737,55.4863 76.5,56.5C 76.2291,54.6203 76.8958,53.287 78.5,52.5 Z"/></g>
<g><path style="opacity:1" fill="#8f8b92" d="M 120.5,53.5 C 121.492,53.3284 122.158,53.6618 122.5,54.5C 122.5,54.8333 122.5,55.1667 122.5,55.5C 121.209,55.7373 120.209,55.404 119.5,54.5C 120.167,54.5 120.5,54.1667 120.5,53.5 Z"/></g>
<g><path style="opacity:1" fill="#bb895b" d="M 92.5,56.5 C 97.1785,56.3342 101.845,56.5008 106.5,57C 107.416,57.2784 108.082,57.7784 108.5,58.5C 102.902,58.8443 97.5683,58.1776 92.5,56.5 Z"/></g>
<g><path style="opacity:1" fill="#6e1ac3" d="M 122.5,54.5 C 125.831,56.163 129.165,57.8296 132.5,59.5C 131.167,59.5 130.5,60.1667 130.5,61.5C 127.527,59.8532 124.86,57.8532 122.5,55.5C 122.5,55.1667 122.5,54.8333 122.5,54.5 Z"/></g>
<g><path style="opacity:1" fill="#ff3e3c" d="M 323.5,53.5 C 323.5,58.8333 323.5,64.1667 323.5,69.5C 324.833,69.5 326.167,69.5 327.5,69.5C 327.183,65.2984 327.517,61.2984 328.5,57.5C 328.5,61.8333 328.5,66.1667 328.5,70.5C 326.5,70.5 324.5,70.5 322.5,70.5C 322.178,64.642 322.511,58.9753 323.5,53.5 Z"/></g>
<g><path style="opacity:1" fill="#dc9854" d="M 108.5,58.5 C 111.067,58.7215 113.401,59.3882 115.5,60.5C 112.772,60.8294 110.438,60.1628 108.5,58.5 Z"/></g>
<g><path style="opacity:1" fill="#7e06fa" d="M 132.5,59.5 C 136.821,60.664 141.154,62.164 145.5,64C 148.914,66.4017 152.58,68.4017 156.5,70C 159.408,73.3132 161.074,77.1465 161.5,81.5C 161.259,83.8984 161.926,85.8984 163.5,87.5C 163.171,90.2282 163.837,92.5615 165.5,94.5C 167.949,100.121 170.282,105.788 172.5,111.5C 172.427,113.027 173.094,114.027 174.5,114.5C 178.799,120.409 182.632,126.743 186,133.5C 187.411,135.65 188.245,137.984 188.5,140.5C 182.399,142.149 176.065,143.149 169.5,143.5C 159.798,147.77 150.965,153.437 143,160.5C 142.824,156.312 142.324,152.312 141.5,148.5C 141.745,142.916 141.078,137.583 139.5,132.5C 137.365,110.87 135.532,89.2031 134,67.5C 132.918,65.3819 131.751,63.3819 130.5,61.5C 130.5,60.1667 131.167,59.5 132.5,59.5 Z"/></g>
<g><path style="opacity:1" fill="#755e48" d="M 71.5,66.5 C 70.9579,69.9122 69.6246,72.9122 67.5,75.5C 68.0592,72.0567 69.3926,69.0567 71.5,66.5 Z"/></g>
<g><path style="opacity:1" fill="#ff5350" d="M 248.5,74.5 C 253.463,75.254 258.463,75.5874 263.5,75.5C 261.696,76.162 259.696,76.4954 257.5,76.5C 254.186,76.6575 251.186,75.9908 248.5,74.5 Z"/></g>
<g><path style="opacity:1" fill="#c76d1a" d="M 127.5,69.5 C 129.018,73.5659 129.851,77.8993 130,82.5C 130.499,88.4908 130.666,94.4908 130.5,100.5C 128.949,90.3632 127.949,80.0299 127.5,69.5 Z"/></g>
<g><path style="opacity:1" fill="#763bb5" d="M 161.5,81.5 C 163.074,83.1016 163.741,85.1016 163.5,87.5C 161.926,85.8984 161.259,83.8984 161.5,81.5 Z"/></g>
<g><path style="opacity:1" fill="#692da6" d="M 163.5,87.5 C 164.924,89.5145 165.59,91.8478 165.5,94.5C 163.837,92.5615 163.171,90.2282 163.5,87.5 Z"/></g>
<g><path style="opacity:1" fill="#b7b7b7" d="M 555.5,97.5 C 531.132,97.2992 506.799,97.9659 482.5,99.5C 483.609,98.71 484.942,98.21 486.5,98C 509.658,96.5393 532.658,96.3726 555.5,97.5 Z"/></g>
<g><path style="opacity:1" fill="#7e07fa" d="M 585.5,113.5 C 587.175,115.456 586.842,116.789 584.5,117.5C 576.12,117.262 567.787,117.762 559.5,119C 543.56,123.592 527.894,129.092 512.5,135.5C 508.196,136.21 503.863,136.71 499.5,137C 493.424,139.77 487.091,141.77 480.5,143C 474.779,145.739 469.113,148.573 463.5,151.5C 456.455,157.552 449.455,163.552 442.5,169.5C 440.77,170.026 439.436,171.026 438.5,172.5C 434.523,174.215 430.689,176.215 427,178.5C 424.224,177.195 421.39,176.029 418.5,175C 402.949,172.257 387.616,169.091 372.5,165.5C 372.557,164.391 372.89,163.391 373.5,162.5C 378.449,162.369 382.115,160.036 384.5,155.5C 386.749,154.92 388.415,153.587 389.5,151.5C 406.346,140.245 423.012,128.745 439.5,117C 443.648,115.24 447.648,113.407 451.5,111.5C 454.495,111.706 457.162,111.04 459.5,109.5C 468.021,107.411 476.688,105.911 485.5,105C 509.497,103.567 533.497,103.4 557.5,104.5C 566.944,107.092 576.277,110.092 585.5,113.5 Z"/></g>
<g><path style="opacity:1" fill="#6b21b8" d="M 459.5,109.5 C 457.162,111.04 454.495,111.706 451.5,111.5C 453.838,109.96 456.505,109.294 459.5,109.5 Z"/></g>
<g><path style="opacity:1" fill="#7f5aa5" d="M 172.5,111.5 C 173.906,111.973 174.573,112.973 174.5,114.5C 173.094,114.027 172.427,113.027 172.5,111.5 Z"/></g>
<g><path style="opacity:1" fill="#5d5d5d" d="M 434.5,113.5 C 433.514,115.408 431.848,116.408 429.5,116.5C 430.659,114.75 432.326,113.75 434.5,113.5 Z"/></g>
<g><path style="opacity:1" fill="#5e1f9f" d="M 585.5,113.5 C 588.389,113.999 589.056,115.499 587.5,118C 586.251,118.74 585.251,118.573 584.5,117.5C 586.842,116.789 587.175,115.456 585.5,113.5 Z"/></g>
<g><path style="opacity:1" fill="#b47b47" d="M 584.5,124.5 C 571.823,123.959 559.49,125.626 547.5,129.5C 547.611,128.883 547.944,128.383 548.5,128C 552.92,126.957 557.254,125.624 561.5,124C 569.345,123.178 577.011,123.344 584.5,124.5 Z"/></g>
<g><path style="opacity:1" fill="#fc7e02" d="M 584.5,124.5 C 585.097,124.735 585.43,125.235 585.5,126C 584.253,135.871 582.753,145.704 581,155.5C 577.295,161.101 572.461,165.434 566.5,168.5C 564.596,168.738 563.262,169.738 562.5,171.5C 560.251,172.08 558.585,173.413 557.5,175.5C 552.275,181.119 546.608,186.286 540.5,191C 522.967,200.55 504.967,208.717 486.5,215.5C 482.751,215.751 479.085,216.417 475.5,217.5C 467.894,211.051 459.894,205.217 451.5,200C 448.392,196.216 444.725,193.216 440.5,191C 437.931,188.521 435.598,185.854 433.5,183C 439.96,178.93 446.293,174.597 452.5,170C 458.042,164.216 464.042,158.883 470.5,154C 472.154,153.392 473.821,152.892 475.5,152.5C 477.967,152.245 479.967,151.245 481.5,149.5C 482.919,148.549 484.585,148.216 486.5,148.5C 489.746,147.946 492.746,146.946 495.5,145.5C 496.842,144.207 498.509,143.374 500.5,143C 504.152,142.501 507.818,142.335 511.5,142.5C 516.508,142.147 520.841,140.48 524.5,137.5C 524.611,136.883 524.944,136.383 525.5,136C 530.331,135.146 534.997,133.979 539.5,132.5C 542.397,131.871 545.064,130.871 547.5,129.5C 559.49,125.626 571.823,123.959 584.5,124.5 Z"/></g>
<g><path style="opacity:1" fill="#b56f2a" d="M 547.5,129.5 C 545.064,130.871 542.397,131.871 539.5,132.5C 541.503,130.018 544.169,129.018 547.5,129.5 Z"/></g>
<g><path style="opacity:1" fill="#8b8b8b" d="M 308.5,135.5 C 301.776,135.244 295.109,135.577 288.5,136.5C 288.611,135.883 288.944,135.383 289.5,135C 296.014,134.18 302.347,134.347 308.5,135.5 Z"/></g>
<g><path style="opacity:1" fill="#fdfdfd" d="M 362.5,169.5 C 362.611,170.117 362.944,170.617 363.5,171C 367.145,171.719 370.812,172.219 374.5,172.5C 380.18,172.299 385.514,173.299 390.5,175.5C 395.169,177.579 400.169,178.579 405.5,178.5C 406.791,178.263 407.791,178.596 408.5,179.5C 412.736,180.401 417.07,181.401 421.5,182.5C 423.697,183.845 426.03,185.011 428.5,186C 439.972,198.466 452.972,209.133 467.5,218C 475.197,227.03 483.697,235.53 493,243.5C 497.898,251.732 503.565,259.399 510,266.5C 512.667,272.5 515.333,278.5 518,284.5C 518.667,297.5 518.667,310.5 518,323.5C 515.085,330.659 512.752,337.992 511,345.5C 498.344,361.153 485.011,376.153 471,390.5C 469.603,394.796 467.103,398.296 463.5,401C 455.369,404.032 447.369,407.365 439.5,411C 428.578,412.989 417.578,414.322 406.5,415C 398.053,417.635 389.386,419.635 380.5,421C 356.545,424.884 332.545,428.551 308.5,432C 289.167,432.667 269.833,432.667 250.5,432C 233.969,428.377 217.969,423.377 202.5,417C 184.896,411.691 167.896,405.024 151.5,397C 139.837,393.335 128.17,389.668 116.5,386C 108.541,382.355 100.541,378.689 92.5,375C 89.3413,371.918 85.6747,369.584 81.5,368C 75.7607,363.338 71.9274,357.505 70,350.5C 69.0118,325.446 72.6785,301.112 81,277.5C 81.6103,274.173 82.1103,270.839 82.5,267.5C 83.9238,265.485 84.5905,263.152 84.5,260.5C 85.29,259.391 85.79,258.058 86,256.5C 85.452,246.722 87.1186,237.388 91,228.5C 98.9516,217.547 107.285,206.88 116,196.5C 122.697,190.968 128.864,184.968 134.5,178.5C 136.5,177.167 138.167,175.5 139.5,173.5C 147.72,163.537 157.72,155.704 169.5,150C 193.5,149.667 217.5,149.333 241.5,149C 242.167,148.333 242.833,147.667 243.5,147C 257.845,146.833 272.178,146.333 286.5,145.5C 288.722,142.775 291.555,141.109 295,140.5C 299.144,141.164 303.311,141.664 307.5,142C 314.67,146.709 322.336,150.375 330.5,153C 336.119,156.595 341.785,160.262 347.5,164C 352.391,166.461 357.391,168.294 362.5,169.5 Z"/></g>
<g><path style="opacity:1" fill="#cb782c" d="M 524.5,137.5 C 520.841,140.48 516.508,142.147 511.5,142.5C 515.443,140.037 519.776,138.37 524.5,137.5 Z"/></g>
<g><path style="opacity:1" fill="#b1b1b1" d="M 590.5,130.5 C 590.414,137.037 589.747,143.37 588.5,149.5C 588.239,142.928 588.906,136.594 590.5,130.5 Z"/></g>
<g><path style="opacity:1" fill="#4f0593" d="M 188.5,140.5 C 189.478,140.811 190.145,141.478 190.5,142.5C 183.532,143.497 176.532,143.83 169.5,143.5C 176.065,143.149 182.399,142.149 188.5,140.5 Z"/></g>
<g><path style="opacity:1" fill="#493161" d="M 139.5,132.5 C 141.078,137.583 141.745,142.916 141.5,148.5C 139.922,143.417 139.255,138.084 139.5,132.5 Z"/></g>
<g><path style="opacity:1" fill="#a0662f" d="M 495.5,145.5 C 492.746,146.946 489.746,147.946 486.5,148.5C 489.008,146.446 492.008,145.446 495.5,145.5 Z"/></g>
<g><path style="opacity:1" fill="#ba732e" d="M 481.5,149.5 C 479.967,151.245 477.967,152.245 475.5,152.5C 477.033,150.755 479.033,149.755 481.5,149.5 Z"/></g>
<g><path style="opacity:1" fill="#c97323" d="M 133.5,133.5 C 135.637,143.93 136.97,154.597 137.5,165.5C 135.504,160.614 134.337,155.281 134,149.5C 133.501,144.177 133.334,138.844 133.5,133.5 Z"/></g>
<g><path style="opacity:1" fill="#8446c3" d="M 389.5,151.5 C 388.415,153.587 386.749,154.92 384.5,155.5C 385.585,153.413 387.251,152.08 389.5,151.5 Z"/></g>
<g><path style="opacity:1" fill="#600fb2" d="M 384.5,155.5 C 382.115,160.036 378.449,162.369 373.5,162.5C 377.141,160.205 380.808,157.872 384.5,155.5 Z"/></g>
<g><path style="opacity:1" fill="#51188d" d="M 373.5,162.5 C 372.89,163.391 372.557,164.391 372.5,165.5C 371.115,164.053 371.448,163.053 373.5,162.5 Z"/></g>
<g><path style="opacity:1" fill="#916944" d="M 566.5,168.5 C 565.738,170.262 564.404,171.262 562.5,171.5C 563.262,169.738 564.596,168.738 566.5,168.5 Z"/></g>
<g><path style="opacity:1" fill="#777777" d="M 362.5,169.5 C 366.713,170.082 370.713,171.082 374.5,172.5C 370.812,172.219 367.145,171.719 363.5,171C 362.944,170.617 362.611,170.117 362.5,169.5 Z"/></g>
<g><path style="opacity:1" fill="#3b1462" d="M 442.5,169.5 C 441.965,171.446 440.632,172.446 438.5,172.5C 439.436,171.026 440.77,170.026 442.5,169.5 Z"/></g>
<g><path style="opacity:1" fill="#6a5645" d="M 562.5,171.5 C 561.415,173.587 559.749,174.92 557.5,175.5C 558.585,173.413 560.251,172.08 562.5,171.5 Z"/></g>
<g><path style="opacity:1" fill="#a6a6a6" d="M 57.5,168.5 C 58.7659,172.535 60.7659,176.202 63.5,179.5C 59.2536,177.119 57.2536,173.453 57.5,168.5 Z"/></g>
<g><path style="opacity:1" fill="#919191" d="M 390.5,175.5 C 395.709,176.058 400.709,177.058 405.5,178.5C 400.169,178.579 395.169,177.579 390.5,175.5 Z"/></g>
<g><path style="opacity:1" fill="#919191" d="M 139.5,173.5 C 138.167,175.5 136.5,177.167 134.5,178.5C 135.167,175.833 136.833,174.167 139.5,173.5 Z"/></g>
<g><path style="opacity:1" fill="#939393" d="M 408.5,179.5 C 411.187,179.336 413.854,179.503 416.5,180C 418.653,180.099 420.319,180.933 421.5,182.5C 417.07,181.401 412.736,180.401 408.5,179.5 Z"/></g>
<g><path style="opacity:1" fill="#161417" d="M 236.5,228.5 C 236.78,231.388 235.447,232.888 232.5,233C 224.841,233.5 217.174,233.666 209.5,233.5C 205.018,232.674 200.351,232.174 195.5,232C 192.543,231.721 189.877,230.887 187.5,229.5C 187.342,226.098 187.676,222.764 188.5,219.5C 191.916,214.905 195.583,210.405 199.5,206C 203.489,205.092 207.155,205.759 210.5,208C 213.5,211 216.5,214 219.5,217C 223.059,219.566 227.059,221.232 231.5,222C 233.768,223.739 235.435,225.905 236.5,228.5 Z"/></g>
<g><path style="opacity:1" fill="#151416" d="M 349.5,207.5 C 355.509,207.334 361.509,207.501 367.5,208C 370.881,209.047 374.047,210.547 377,212.5C 379.864,228.022 373.364,234.689 357.5,232.5C 347.435,232.246 337.435,231.413 327.5,230C 326.446,228.612 326.28,227.112 327,225.5C 331.833,220.667 336.667,215.833 341.5,211C 344.53,210.422 347.197,209.255 349.5,207.5 Z"/></g>
<g><path style="opacity:1" fill="#7a07f1" d="M 225.5,226.5 C 221.03,227.486 216.363,227.819 211.5,227.5C 205.559,226.904 199.559,225.904 193.5,224.5C 195.808,221.025 198.308,217.692 201,214.5C 202.062,213.101 203.395,212.101 205,211.5C 209.429,214.924 213.596,218.757 217.5,223C 219.871,224.879 222.538,226.045 225.5,226.5 Z"/></g>
<g><path style="opacity:1" fill="#8830e9" d="M 370.5,215.5 C 363.5,215.5 356.5,215.5 349.5,215.5C 349.918,214.778 350.584,214.278 351.5,214C 354,213.833 356.5,213.667 359,213.5C 363.112,213.349 366.946,214.016 370.5,215.5 Z"/></g>
<g><path style="opacity:1" fill="#666666" d="M 33.5,214.5 C 32.8333,218.167 32.1667,221.833 31.5,225.5C 31.1734,220.786 31.5067,216.12 32.5,211.5C 33.3857,212.325 33.719,213.325 33.5,214.5 Z"/></g>
<g><path style="opacity:1" fill="#7d02f9" d="M 349.5,215.5 C 356.5,215.5 363.5,215.5 370.5,215.5C 371.993,218.584 371.66,221.584 369.5,224.5C 368.271,225.281 366.938,225.781 365.5,226C 360.511,226.499 355.511,226.666 350.5,226.5C 347.038,225.518 343.371,225.185 339.5,225.5C 341.091,222.569 343.091,219.902 345.5,217.5C 346.514,216.326 347.847,215.66 349.5,215.5 Z"/></g>
<g><path style="opacity:1" fill="#fcfcfc" d="M 33.5,214.5 C 34.3091,216.292 34.8091,218.292 35,220.5C 41.2249,222.019 46.2249,220.019 50,214.5C 51.8204,215.604 53.3204,217.104 54.5,219C 57.0177,220.199 59.5177,221.365 62,222.5C 65.1005,222.193 67.1005,220.526 68,217.5C 70.947,225.288 72.947,233.288 74,241.5C 77.1023,245.205 79.269,249.372 80.5,254C 72.8414,277.952 67.3414,302.452 64,327.5C 61.8095,341.492 64.1428,354.492 71,366.5C 77.7456,371.456 84.5789,376.29 91.5,381C 110.574,389.694 130.241,397.028 150.5,403C 181.115,417.039 212.782,428.206 245.5,436.5C 246.609,437.29 247.942,437.79 249.5,438C 269.671,438.829 289.671,438.662 309.5,437.5C 335.253,434.239 360.919,430.406 386.5,426C 393.583,424.576 400.583,422.909 407.5,421C 425.183,419.993 442.183,416.326 458.5,410C 467.909,406.925 474.409,400.759 478,391.5C 484.333,383.833 491.333,376.833 499,370.5C 502.606,364.293 506.939,358.627 512,353.5C 517.354,344.444 521.354,334.778 524,324.5C 530.239,297.001 524.073,273.001 505.5,252.5C 506.27,250.728 507.603,249.728 509.5,249.5C 527.976,259.838 535.476,254.504 532,233.5C 533.673,231.083 535.506,231.083 537.5,233.5C 538.497,241.138 538.831,248.804 538.5,256.5C 540.199,256.66 541.866,256.494 543.5,256C 545.412,253.212 548.079,251.879 551.5,252C 555.803,247.704 559.303,242.871 562,237.5C 563.571,235.077 565.737,233.744 568.5,233.5C 565.732,240.557 563.565,247.891 562,255.5C 561.502,258.482 561.335,261.482 561.5,264.5C 567.002,263.504 570.502,260.171 572,254.5C 573.11,252.963 574.61,252.297 576.5,252.5C 574.763,262.44 571.93,272.106 568,281.5C 567.667,287.167 567.333,292.833 567,298.5C 554.405,319.023 543.405,340.356 534,362.5C 524.147,375.565 514.814,388.898 506,402.5C 497.027,410.14 488.694,418.473 481,427.5C 479.908,430.044 479.241,432.711 479,435.5C 473.131,446.899 467.631,458.233 462.5,469.5C 461.978,471.219 460.978,472.552 459.5,473.5C 455.5,473.5 451.5,473.5 447.5,473.5C 446.517,477.298 446.183,481.298 446.5,485.5C 442.5,485.5 438.5,485.5 434.5,485.5C 434.5,481.5 434.5,477.5 434.5,473.5C 426.5,473.5 418.5,473.5 410.5,473.5C 406.5,473.5 402.5,473.5 398.5,473.5C 398.5,477.5 398.5,481.5 398.5,485.5C 394.5,485.5 390.5,485.5 386.5,485.5C 386.5,481.5 386.5,477.5 386.5,473.5C 378.5,473.5 370.5,473.5 362.5,473.5C 358.167,473.5 353.833,473.5 349.5,473.5C 349.5,477.5 349.5,481.5 349.5,485.5C 345.5,485.5 341.5,485.5 337.5,485.5C 337.5,481.5 337.5,477.5 337.5,473.5C 332.167,473.5 326.833,473.5 321.5,473.5C 317.167,473.5 312.833,473.5 308.5,473.5C 308.5,477.5 308.5,481.5 308.5,485.5C 304.5,485.5 300.5,485.5 296.5,485.5C 296.5,481.5 296.5,477.5 296.5,473.5C 288.5,473.5 280.5,473.5 272.5,473.5C 268.5,473.5 264.5,473.5 260.5,473.5C 260.5,477.5 260.5,481.5 260.5,485.5C 256.5,485.5 252.5,485.5 248.5,485.5C 248.5,481.5 248.5,477.5 248.5,473.5C 240.5,473.5 232.5,473.5 224.5,473.5C 220.167,473.5 215.833,473.5 211.5,473.5C 211.5,477.5 211.5,481.5 211.5,485.5C 207.5,485.5 203.5,485.5 199.5,485.5C 199.5,481.5 199.5,477.5 199.5,473.5C 195.167,473.5 190.833,473.5 186.5,473.5C 182.5,473.5 178.5,473.5 174.5,473.5C 174.5,477.5 174.5,481.5 174.5,485.5C 170.5,485.5 166.5,485.5 162.5,485.5C 162.5,481.5 162.5,477.5 162.5,473.5C 154.5,473.5 146.5,473.5 138.5,473.5C 134.5,473.5 130.5,473.5 126.5,473.5C 125.517,477.298 125.183,481.298 125.5,485.5C 121.5,485.5 117.5,485.5 113.5,485.5C 113.5,481.5 113.5,477.5 113.5,473.5C 105.5,473.5 97.5,473.5 89.5,473.5C 85.5,473.5 81.5,473.5 77.5,473.5C 77.5,477.5 77.5,481.5 77.5,485.5C 73.5,485.5 69.5,485.5 65.5,485.5C 65.5,481.5 65.5,477.5 65.5,473.5C 61.8333,473.5 58.1667,473.5 54.5,473.5C 51.4895,448.292 49.6561,422.959 49,397.5C 44.874,391.872 41.374,385.872 38.5,379.5C 38.2525,376.146 37.2525,373.146 35.5,370.5C 33.2431,363.71 31.5764,356.71 30.5,349.5C 30.1916,345.64 29.5249,341.974 28.5,338.5C 28.5,337.833 28.5,337.167 28.5,336.5C 28.5797,333.219 27.913,330.219 26.5,327.5C 25.3377,315.531 24.5043,303.531 24,291.5C 21.1999,275.7 18.3665,260.033 15.5,244.5C 15.1736,235.651 15.507,226.984 16.5,218.5C 20.0515,220.111 23.0515,222.444 25.5,225.5C 27.6365,226.793 29.6365,226.793 31.5,225.5C 32.1667,221.833 32.8333,218.167 33.5,214.5 Z"/></g>
<g><path style="opacity:1" fill="#402914" d="M 486.5,215.5 C 486.389,216.117 486.056,216.617 485.5,217C 483,217.5 480.5,218 478,218.5C 476.93,218.472 476.097,218.139 475.5,217.5C 479.085,216.417 482.751,215.751 486.5,215.5 Z"/></g>
<g><path style="opacity:1" fill="#838383" d="M 16.5,218.5 C 15.507,226.984 15.1736,235.651 15.5,244.5C 14.1782,235.658 14.1782,226.658 15.5,217.5C 16.1067,217.624 16.44,217.957 16.5,218.5 Z"/></g>
<g><path style="opacity:1" fill="#7e2cd5" d="M 345.5,217.5 C 343.091,219.902 341.091,222.569 339.5,225.5C 338.508,225.672 337.842,225.338 337.5,224.5C 339.543,221.457 342.21,219.124 345.5,217.5 Z"/></g>
<g><path style="opacity:1" fill="#777777" d="M 188.5,219.5 C 187.676,222.764 187.342,226.098 187.5,229.5C 186.362,226.696 186.195,223.696 187,220.5C 187.383,219.944 187.883,219.611 188.5,219.5 Z"/></g>
<g><path style="opacity:1" fill="#230c3e" d="M 337.5,224.5 C 337.842,225.338 338.508,225.672 339.5,225.5C 343.371,225.185 347.038,225.518 350.5,226.5C 345.786,226.827 341.12,226.493 336.5,225.5C 336.624,224.893 336.957,224.56 337.5,224.5 Z"/></g>
<g><path style="opacity:1" fill="#1d0736" d="M 225.5,226.5 C 226.043,226.56 226.376,226.893 226.5,227.5C 221.348,228.814 216.348,228.814 211.5,227.5C 216.363,227.819 221.03,227.486 225.5,226.5 Z"/></g>
<g><path style="opacity:1" fill="#c7c7c7" d="M 236.5,228.5 C 238.243,231.6 237.243,233.433 233.5,234C 225.323,234.823 217.323,234.656 209.5,233.5C 217.174,233.666 224.841,233.5 232.5,233C 235.447,232.888 236.78,231.388 236.5,228.5 Z"/></g>
<g><path style="opacity:1" fill="#141414" d="M 215.5,279.5 C 214.076,281.515 213.41,283.848 213.5,286.5C 210.917,289.661 208.417,292.995 206,296.5C 206.16,299.509 204.993,301.675 202.5,303C 198.358,303.727 194.358,304.727 190.5,306C 176.833,306.667 163.167,306.667 149.5,306C 136.342,300.531 128.842,290.697 127,276.5C 124.85,264.753 127.017,254.086 133.5,244.5C 137.582,241.462 141.915,238.962 146.5,237C 163.479,235.586 180.479,235.253 197.5,236C 201.193,238.592 205.193,240.592 209.5,242C 213.098,246.849 215.265,252.349 216,258.5C 216.821,265.679 216.655,272.679 215.5,279.5 Z"/></g>
<g><path style="opacity:1" fill="#f6f6f6" d="M 208.5,253.5 C 209.71,262.511 209.71,271.511 208.5,280.5C 209.077,283.55 207.91,285.55 205,286.5C 202.623,289.921 200.79,293.588 199.5,297.5C 183.631,300.263 167.631,301.096 151.5,300C 148.618,298.392 145.618,297.059 142.5,296C 140.707,293.205 138.54,290.705 136,288.5C 135.895,284.63 135.062,280.963 133.5,277.5C 132.336,270.524 132.169,263.524 133,256.5C 134.049,254.382 135.549,252.716 137.5,251.5C 141.444,248.646 145.444,245.979 149.5,243.5C 149.918,242.778 150.584,242.278 151.5,242C 165.807,240.563 180.141,240.23 194.5,241C 199.477,243.1 203.977,245.934 208,249.5C 208.49,250.793 208.657,252.127 208.5,253.5 Z"/></g>
<g><path style="opacity:1" fill="#151515" d="M 360.5,244.5 C 370.172,244.334 379.839,244.5 389.5,245C 393.953,246.882 398.619,248.215 403.5,249C 405.911,250.955 408.411,252.789 411,254.5C 414.734,259.714 417.734,265.38 420,271.5C 421.15,278.19 420.15,284.524 417,290.5C 413.846,293.652 411.513,297.319 410,301.5C 407.463,304.372 404.63,306.872 401.5,309C 392.937,309.72 384.603,311.22 376.5,313.5C 365.436,312.324 354.436,310.824 343.5,309C 338.142,307.76 334.642,304.593 333,299.5C 332.333,288.167 332.333,276.833 333,265.5C 336.205,261.084 338.872,256.417 341,251.5C 342.833,250.333 344.333,248.833 345.5,247C 350.706,246.563 355.706,245.73 360.5,244.5 Z"/></g>
<g><path style="opacity:1" fill="#aeaeae" d="M 149.5,243.5 C 145.444,245.979 141.444,248.646 137.5,251.5C 137.859,249.629 138.859,248.129 140.5,247C 143.676,246.111 146.676,244.945 149.5,243.5 Z"/></g>
<g><path style="opacity:1" fill="#151312" d="M 166.5,247.5 C 172.537,247.171 178.537,247.504 184.5,248.5C 188.194,251.527 191.527,254.86 194.5,258.5C 196.407,269.279 193.74,278.779 186.5,287C 178.86,286.854 171.193,286.52 163.5,286C 156.868,285.364 152.702,281.864 151,275.5C 150.333,269.833 150.333,264.167 151,258.5C 153.446,256.054 155.946,253.554 158.5,251C 161.53,250.422 164.197,249.255 166.5,247.5 Z"/></g>
<g><path style="opacity:1" fill="#5d5d5d" d="M 580.5,247.5 C 581.117,247.611 581.617,247.944 582,248.5C 582.812,252.689 582.645,256.689 581.5,260.5C 581.706,256.102 581.373,251.768 580.5,247.5 Z"/></g>
<g><path style="opacity:1" fill="#f3f3f3" d="M 413.5,271.5 C 413.5,275.5 413.5,279.5 413.5,283.5C 410.212,288.316 407.045,293.316 404,298.5C 402.075,299.88 400.241,301.38 398.5,303C 391.801,303.783 385.135,304.783 378.5,306C 377.774,307.397 376.607,308.231 375,308.5C 363.369,306.375 351.869,303.875 340.5,301C 340,300.5 339.5,300 339,299.5C 338.333,288.833 338.333,278.167 339,267.5C 341.773,262.396 344.94,257.563 348.5,253C 361.415,250.71 374.415,250.043 387.5,251C 393.388,252.54 399.055,254.707 404.5,257.5C 408.489,261.466 411.489,266.132 413.5,271.5 Z"/></g>
<g><path style="opacity:1" fill="#f67d08" d="M 169.5,254.5 C 170.5,254.5 171.5,254.5 172.5,254.5C 172.5,256.833 172.5,259.167 172.5,261.5C 178.158,262.321 179.825,260.154 177.5,255C 178.793,254.51 180.127,254.343 181.5,254.5C 184.378,255.562 186.378,257.562 187.5,260.5C 188.324,263.764 188.658,267.098 188.5,270.5C 186.865,274.429 184.699,278.096 182,281.5C 174.349,281.126 166.849,279.959 159.5,278C 153.572,270.278 154.239,263.278 161.5,257C 164.285,256.342 166.951,255.509 169.5,254.5 Z"/></g>
<g><path style="opacity:1" fill="#f0dfd0" d="M 169.5,254.5 C 173.5,253.167 177.5,253.167 181.5,254.5C 180.127,254.343 178.793,254.51 177.5,255C 179.825,260.154 178.158,262.321 172.5,261.5C 172.5,259.167 172.5,256.833 172.5,254.5C 171.5,254.5 170.5,254.5 169.5,254.5 Z"/></g>
<g><path style="opacity:1" fill="#b4b4b4" d="M 9.5,246.5 C 10.4902,250.386 11.4902,254.386 12.5,258.5C 11.5416,258.047 10.7083,257.381 10,256.5C 9.50166,253.183 9.33499,249.85 9.5,246.5 Z"/></g>
<g><path style="opacity:1" fill="#16120f" d="M 390.5,292.5 C 385.125,292.172 379.792,292.505 374.5,293.5C 374.137,294.183 373.804,294.85 373.5,295.5C 366.233,296.778 360.066,294.778 355,289.5C 353.716,284.976 352.05,280.643 350,276.5C 349.333,272.5 349.333,268.5 350,264.5C 360.492,256.721 372.325,254.221 385.5,257C 390.688,261.524 395.188,266.691 399,272.5C 399.762,280.648 396.929,287.314 390.5,292.5 Z"/></g>
<g><path style="opacity:1" fill="#bfbfbf" d="M 208.5,253.5 C 209.268,254.263 209.768,255.263 210,256.5C 210.667,264.167 210.667,271.833 210,279.5C 209.617,280.056 209.117,280.389 208.5,280.5C 209.71,271.511 209.71,262.511 208.5,253.5 Z"/></g>
<g><path style="opacity:1" fill="#7d7874" d="M 382.5,262.5 C 379.5,262.5 376.5,262.5 373.5,262.5C 370.941,262.198 368.607,262.532 366.5,263.5C 365.609,264.11 364.609,264.443 363.5,264.5C 363.953,263.542 364.619,262.708 365.5,262C 371.349,261.182 377.015,261.348 382.5,262.5 Z"/></g>
<g><path style="opacity:1" fill="#a25405" d="M 187.5,260.5 C 191.042,263.385 191.376,266.719 188.5,270.5C 188.658,267.098 188.324,263.764 187.5,260.5 Z"/></g>
<g><path style="opacity:1" fill="#fdf0e5" d="M 366.5,263.5 C 368.607,262.532 370.941,262.198 373.5,262.5C 373.5,264.5 373.5,266.5 373.5,268.5C 371.5,268.5 369.5,268.5 367.5,268.5C 367.784,266.585 367.451,264.919 366.5,263.5 Z"/></g>
<g><path style="opacity:1" fill="#fa7f06" d="M 373.5,262.5 C 376.5,262.5 379.5,262.5 382.5,262.5C 383.239,262.369 383.906,262.536 384.5,263C 387.031,266.358 389.698,269.524 392.5,272.5C 392.5,275.167 392.5,277.833 392.5,280.5C 390.948,282.035 389.615,283.869 388.5,286C 383.833,286.333 379.167,286.667 374.5,287C 373.455,288.526 371.955,289.359 370,289.5C 367.453,289.238 364.953,288.738 362.5,288C 361.299,287.097 360.465,285.931 360,284.5C 358.698,279.725 357.198,275.059 355.5,270.5C 355.529,268.971 356.196,267.804 357.5,267C 359.611,266.155 361.611,265.322 363.5,264.5C 364.609,264.443 365.609,264.11 366.5,263.5C 367.451,264.919 367.784,266.585 367.5,268.5C 369.5,268.5 371.5,268.5 373.5,268.5C 373.5,266.5 373.5,264.5 373.5,262.5 Z"/></g>
<g><path style="opacity:1" fill="#acacac" d="M 12.5,258.5 C 13.9891,262.236 14.6558,266.236 14.5,270.5C 12.5772,266.971 11.9106,262.971 12.5,258.5 Z"/></g>
<g><path style="opacity:1" fill="#656565" d="M 84.5,260.5 C 84.5905,263.152 83.9238,265.485 82.5,267.5C 82.4095,264.848 83.0762,262.515 84.5,260.5 Z"/></g>
<g><path style="opacity:1" fill="#7c7c7c" d="M 14.5,270.5 C 15.2679,271.263 15.7679,272.263 16,273.5C 16.4983,276.817 16.665,280.15 16.5,283.5C 15.4371,279.361 14.7704,275.028 14.5,270.5 Z"/></g>
<g><path style="opacity:1" fill="#98530d" d="M 392.5,272.5 C 395.167,275.167 395.167,277.833 392.5,280.5C 392.5,277.833 392.5,275.167 392.5,272.5 Z"/></g>
<g><path style="opacity:1" fill="#9b9b9b" d="M 413.5,271.5 C 416.041,275.479 416.041,279.479 413.5,283.5C 413.5,279.5 413.5,275.5 413.5,271.5 Z"/></g>
<g><path style="opacity:1" fill="#9a9a9a" d="M 215.5,279.5 C 215.829,282.228 215.163,284.562 213.5,286.5C 213.41,283.848 214.076,281.515 215.5,279.5 Z"/></g>
<g><path style="opacity:1" fill="#949494" d="M 390.5,292.5 C 384.809,293.017 379.143,294.017 373.5,295.5C 373.804,294.85 374.137,294.183 374.5,293.5C 379.792,292.505 385.125,292.172 390.5,292.5 Z"/></g>
<g><path style="opacity:1" fill="#141312" d="M 240.5,357.5 C 240.5,352.5 240.5,347.5 240.5,342.5C 239.167,342.5 237.833,342.5 236.5,342.5C 227.333,337.931 218.666,332.931 210.5,327.5C 210.5,325.5 210.5,323.5 210.5,321.5C 212.655,321.372 214.655,321.872 216.5,323C 223.821,329.245 231.988,334.078 241,337.5C 247.946,332.873 255.112,328.706 262.5,325C 260.392,324.64 258.392,323.973 256.5,323C 255.748,322.329 255.414,321.496 255.5,320.5C 255.274,315.438 255.608,310.438 256.5,305.5C 256.574,303.589 257.574,302.422 259.5,302C 276.067,297.399 282.4,303.565 278.5,320.5C 276.144,322.69 273.644,324.69 271,326.5C 271.789,331.559 274.289,335.726 278.5,339C 283.102,340.122 287.768,340.622 292.5,340.5C 292.5,338.833 292.5,337.167 292.5,335.5C 294.5,335.5 296.5,335.5 298.5,335.5C 298.5,337.833 298.5,340.167 298.5,342.5C 302.131,343.412 305.797,343.579 309.5,343C 312.707,339.051 316.707,336.051 321.5,334C 323.817,330.018 326.817,326.685 330.5,324C 335.1,322.417 336.934,323.917 336,328.5C 331.696,330.304 328.529,333.304 326.5,337.5C 321.722,340.542 317.388,344.042 313.5,348C 307.201,349.331 300.867,349.831 294.5,349.5C 289.957,359.584 284.624,369.25 278.5,378.5C 273.656,381.096 268.656,383.263 263.5,385C 261.167,385.667 258.833,385.667 256.5,385C 255.174,382.842 253.507,381.008 251.5,379.5C 250.534,377.604 250.201,375.604 250.5,373.5C 247.737,373.256 245.571,371.923 244,369.5C 243.432,365.187 242.265,361.187 240.5,357.5 Z"/></g>
<g><path style="opacity:1" fill="#5d5d5d" d="M 256.5,305.5 C 255.608,310.438 255.274,315.438 255.5,320.5C 254.352,316.019 254.185,311.352 255,306.5C 255.383,305.944 255.883,305.611 256.5,305.5 Z"/></g>
<g><path style="opacity:1" fill="#eaeaea" d="M 266.5,306.5 C 273.512,306.516 275.845,309.85 273.5,316.5C 271.691,318.488 269.524,319.822 267,320.5C 264.914,319.582 262.747,318.915 260.5,318.5C 260.18,315.102 260.513,311.768 261.5,308.5C 263.336,307.972 265.003,307.306 266.5,306.5 Z"/></g>
<g><path style="opacity:1" fill="#fa7e09" d="M 283.5,346.5 C 284.833,347.167 286.167,347.833 287.5,348.5C 285.424,353.651 283.09,358.651 280.5,363.5C 278.952,363.821 278.285,364.821 278.5,366.5C 277.624,366.369 276.957,366.702 276.5,367.5C 275.907,369.382 275.24,371.215 274.5,373C 270.245,375.36 265.745,377.193 261,378.5C 259.395,377.899 258.062,376.899 257,375.5C 256.71,373.048 256.044,370.715 255,368.5C 253.045,367.547 251.378,366.213 250,364.5C 249.901,362.347 249.067,360.681 247.5,359.5C 247.5,353.5 247.5,347.5 247.5,341.5C 252.773,337.338 258.606,334.005 265,331.5C 267.59,333.001 268.923,335.335 269,338.5C 272.485,343.658 277.318,346.325 283.5,346.5 Z"/></g>
<g><path style="opacity:1" fill="#6d6d6d" d="M 26.5,327.5 C 27.913,330.219 28.5797,333.219 28.5,336.5C 27.087,333.781 26.4203,330.781 26.5,327.5 Z"/></g>
<g><path style="opacity:1" fill="#bdbdbd" d="M 20.5,327.5 C 22.5615,335.581 23.8948,343.914 24.5,352.5C 22.1623,344.454 20.829,336.121 20.5,327.5 Z"/></g>
<g><path style="opacity:1" fill="#b9600a" d="M 247.5,341.5 C 247.5,347.5 247.5,353.5 247.5,359.5C 245.632,354.089 245.132,348.423 246,342.5C 246.383,341.944 246.883,341.611 247.5,341.5 Z"/></g>
<g><path style="opacity:1" fill="#939393" d="M 236.5,342.5 C 237.833,342.5 239.167,342.5 240.5,342.5C 240.5,347.5 240.5,352.5 240.5,357.5C 239.514,353.03 239.181,348.363 239.5,343.5C 238.209,343.737 237.209,343.404 236.5,342.5 Z"/></g>
<g><path style="opacity:1" fill="#676767" d="M 28.5,338.5 C 29.5249,341.974 30.1916,345.64 30.5,349.5C 28.783,346.155 28.1164,342.489 28.5,338.5 Z"/></g>
<g><path style="opacity:1" fill="#b1a9a1" d="M 283.5,346.5 C 285.288,346.215 286.955,346.548 288.5,347.5C 288.376,348.107 288.043,348.44 287.5,348.5C 286.167,347.833 284.833,347.167 283.5,346.5 Z"/></g>
<g><path style="opacity:1" fill="#cb4d65" d="M 271.5,348.5 C 273.975,348.747 273.975,349.413 271.5,350.5C 270.537,350.03 270.537,349.363 271.5,348.5 Z"/></g>
<g><path style="opacity:1" fill="#cb4e65" d="M 266.5,349.5 C 267.497,348.287 268.497,348.454 269.5,350C 268.423,350.47 267.423,350.303 266.5,349.5 Z"/></g>
<g><path style="opacity:1" fill="#946e4b" d="M 280.5,363.5 C 280.068,364.71 279.401,365.71 278.5,366.5C 278.285,364.821 278.952,363.821 280.5,363.5 Z"/></g>
<g><path style="opacity:1" fill="#6d6d6d" d="M 35.5,370.5 C 37.2525,373.146 38.2525,376.146 38.5,379.5C 36.5275,376.916 35.5275,373.916 35.5,370.5 Z"/></g>
<g><path style="opacity:1" fill="#575757" d="M 245.5,436.5 C 266.811,437.443 288.144,437.776 309.5,437.5C 289.671,438.662 269.671,438.829 249.5,438C 247.942,437.79 246.609,437.29 245.5,436.5 Z"/></g>
<g><path style="opacity:1" fill="#e3e3e3" d="M 47.5,458.5 C 48.4872,463.305 48.8205,468.305 48.5,473.5C 50.5,473.5 52.5,473.5 54.5,473.5C 58.1667,473.5 61.8333,473.5 65.5,473.5C 65.5,477.5 65.5,481.5 65.5,485.5C 69.5,485.5 73.5,485.5 77.5,485.5C 81.5,485.5 85.5,485.5 89.5,485.5C 89.5,481.5 89.5,477.5 89.5,473.5C 97.5,473.5 105.5,473.5 113.5,473.5C 113.5,477.5 113.5,481.5 113.5,485.5C 117.5,485.5 121.5,485.5 125.5,485.5C 125.183,481.298 125.517,477.298 126.5,473.5C 126.5,477.5 126.5,481.5 126.5,485.5C 130.5,485.5 134.5,485.5 138.5,485.5C 138.5,481.5 138.5,477.5 138.5,473.5C 146.5,473.5 154.5,473.5 162.5,473.5C 162.5,477.5 162.5,481.5 162.5,485.5C 162.5,489.5 162.5,493.5 162.5,497.5C 158.5,497.5 154.5,497.5 150.5,497.5C 150.5,493.833 150.5,490.167 150.5,486.5C 142.5,486.5 134.5,486.5 126.5,486.5C 126.5,494.167 126.5,501.833 126.5,509.5C 130.5,509.5 134.5,509.5 138.5,509.5C 138.5,513.5 138.5,517.5 138.5,521.5C 134.486,521.334 130.486,521.501 126.5,522C 125.54,525.73 125.207,529.563 125.5,533.5C 121.5,533.5 117.5,533.5 113.5,533.5C 113.5,525.833 113.5,518.167 113.5,510.5C 109.5,510.5 105.5,510.5 101.5,510.5C 105.298,509.517 109.298,509.183 113.5,509.5C 113.5,505.5 113.5,501.5 113.5,497.5C 109.5,497.5 105.5,497.5 101.5,497.5C 101.5,493.833 101.5,490.167 101.5,486.5C 93.5,486.5 85.5,486.5 77.5,486.5C 73.5,486.5 69.5,486.5 65.5,486.5C 65.5,490.167 65.5,493.833 65.5,497.5C 61.5,497.5 57.5,497.5 53.5,497.5C 53.5,493.833 53.5,490.167 53.5,486.5C 45.5,486.5 37.5,486.5 29.5,486.5C 29.222,494.17 28.8886,501.836 28.5,509.5C 24.8333,509.5 21.1667,509.5 17.5,509.5C 17.0645,501.505 16.7312,493.505 16.5,485.5C 20.5,485.5 24.5,485.5 28.5,485.5C 28.1832,481.298 28.5166,477.298 29.5,473.5C 29.5,477.5 29.5,481.5 29.5,485.5C 33.5,485.5 37.5,485.5 41.5,485.5C 41.5,481.5 41.5,477.5 41.5,473.5C 43.5,473.5 45.5,473.5 47.5,473.5C 47.5,468.5 47.5,463.5 47.5,458.5 Z"/></g>
<g><path style="opacity:1" fill="#c0c0c0" d="M 362.5,473.5 C 362.5,477.5 362.5,481.5 362.5,485.5C 358.298,485.183 354.298,485.517 350.5,486.5C 350.5,490.5 350.5,494.5 350.5,498.5C 346.167,498.5 341.833,498.5 337.5,498.5C 337.5,494.167 337.5,489.833 337.5,485.5C 341.5,485.5 345.5,485.5 349.5,485.5C 349.5,481.5 349.5,477.5 349.5,473.5C 353.833,473.5 358.167,473.5 362.5,473.5 Z"/></g>
<g><path style="opacity:1" fill="#e1e1e1" d="M 470.5,468.5 C 470.5,470.167 470.5,471.833 470.5,473.5C 474.833,473.5 479.167,473.5 483.5,473.5C 483.5,477.5 483.5,481.5 483.5,485.5C 483.5,489.5 483.5,493.5 483.5,497.5C 482.518,494.038 482.185,490.371 482.5,486.5C 470.833,486.5 459.167,486.5 447.5,486.5C 447.222,494.17 446.889,501.836 446.5,509.5C 442.833,509.5 439.167,509.5 435.5,509.5C 435.793,505.563 435.46,501.73 434.5,498C 430.514,497.501 426.514,497.334 422.5,497.5C 422.5,493.833 422.5,490.167 422.5,486.5C 414.5,486.5 406.5,486.5 398.5,486.5C 394.5,486.5 390.5,486.5 386.5,486.5C 386.5,490.167 386.5,493.833 386.5,497.5C 382.5,497.5 378.5,497.5 374.5,497.5C 374.5,493.833 374.5,490.167 374.5,486.5C 366.5,486.5 358.5,486.5 350.5,486.5C 354.298,485.517 358.298,485.183 362.5,485.5C 362.5,481.5 362.5,477.5 362.5,473.5C 370.5,473.5 378.5,473.5 386.5,473.5C 386.5,477.5 386.5,481.5 386.5,485.5C 390.5,485.5 394.5,485.5 398.5,485.5C 402.5,485.5 406.5,485.5 410.5,485.5C 410.5,481.5 410.5,477.5 410.5,473.5C 418.5,473.5 426.5,473.5 434.5,473.5C 434.5,477.5 434.5,481.5 434.5,485.5C 438.5,485.5 442.5,485.5 446.5,485.5C 446.183,481.298 446.517,477.298 447.5,473.5C 447.5,477.5 447.5,481.5 447.5,485.5C 451.5,485.5 455.5,485.5 459.5,485.5C 459.5,481.5 459.5,477.5 459.5,473.5C 460.978,472.552 461.978,471.219 462.5,469.5C 462.5,470.833 462.5,472.167 462.5,473.5C 464.833,473.5 467.167,473.5 469.5,473.5C 469.216,471.585 469.549,469.919 470.5,468.5 Z"/></g>
<g><path style="opacity:1" fill="#c7c7c7" d="M 447.5,473.5 C 451.5,473.5 455.5,473.5 459.5,473.5C 459.5,477.5 459.5,481.5 459.5,485.5C 455.5,485.5 451.5,485.5 447.5,485.5C 447.5,481.5 447.5,477.5 447.5,473.5 Z"/></g>
<g><path style="opacity:1" fill="#c7c7c7" d="M 410.5,473.5 C 410.5,477.5 410.5,481.5 410.5,485.5C 406.5,485.5 402.5,485.5 398.5,485.5C 398.5,481.5 398.5,477.5 398.5,473.5C 402.5,473.5 406.5,473.5 410.5,473.5 Z"/></g>
<g><path style="opacity:1" fill="#c7c7c7" d="M 507.5,473.5 C 507.5,477.5 507.5,481.5 507.5,485.5C 503.5,485.5 499.5,485.5 495.5,485.5C 495.5,481.5 495.5,477.5 495.5,473.5C 499.5,473.5 503.5,473.5 507.5,473.5 Z"/></g>
<g><path style="opacity:1" fill="#f6f6f6" d="M 350.5,486.5 C 358.5,486.5 366.5,486.5 374.5,486.5C 374.5,490.167 374.5,493.833 374.5,497.5C 378.5,497.5 382.5,497.5 386.5,497.5C 386.5,497.833 386.5,498.167 386.5,498.5C 386.5,502.167 386.5,505.833 386.5,509.5C 382.298,509.183 378.298,509.517 374.5,510.5C 373.518,513.962 373.185,517.629 373.5,521.5C 369.833,521.5 366.167,521.5 362.5,521.5C 362.5,517.5 362.5,513.5 362.5,509.5C 358.5,509.5 354.5,509.5 350.5,509.5C 350.5,505.833 350.5,502.167 350.5,498.5C 350.5,494.5 350.5,490.5 350.5,486.5 Z"/></g>
<g><path style="opacity:1" fill="#aeaeae" d="M 398.5,486.5 C 398.5,490.5 398.5,494.5 398.5,498.5C 394.5,498.5 390.5,498.5 386.5,498.5C 386.5,498.167 386.5,497.833 386.5,497.5C 386.5,493.833 386.5,490.167 386.5,486.5C 390.5,486.5 394.5,486.5 398.5,486.5 Z"/></g>
<g><path style="opacity:1" fill="#f2f2f2" d="M 507.5,473.5 C 511.5,473.5 515.5,473.5 519.5,473.5C 519.5,474.5 519.5,475.5 519.5,476.5C 519.5,491.833 519.5,507.167 519.5,522.5C 515.5,522.5 511.5,522.5 507.5,522.5C 503.5,522.5 499.5,522.5 495.5,522.5C 495.5,526.167 495.5,529.833 495.5,533.5C 491.5,533.5 487.5,533.5 483.5,533.5C 483.5,529.833 483.5,526.167 483.5,522.5C 483.5,518.5 483.5,514.5 483.5,510.5C 479.5,510.5 475.5,510.5 471.5,510.5C 470.518,513.962 470.185,517.629 470.5,521.5C 462.826,521.334 455.159,521.5 447.5,522C 446.54,525.73 446.207,529.563 446.5,533.5C 442.5,533.5 438.5,533.5 434.5,533.5C 434.5,525.833 434.5,518.167 434.5,510.5C 430.5,510.5 426.5,510.5 422.5,510.5C 422.5,514.5 422.5,518.5 422.5,522.5C 418.5,522.5 414.5,522.5 410.5,522.5C 410.5,518.167 410.5,513.833 410.5,509.5C 406.5,509.5 402.5,509.5 398.5,509.5C 398.5,505.833 398.5,502.167 398.5,498.5C 398.5,494.5 398.5,490.5 398.5,486.5C 406.5,486.5 414.5,486.5 422.5,486.5C 422.5,490.167 422.5,493.833 422.5,497.5C 426.514,497.334 430.514,497.501 434.5,498C 435.46,501.73 435.793,505.563 435.5,509.5C 439.167,509.5 442.833,509.5 446.5,509.5C 446.889,501.836 447.222,494.17 447.5,486.5C 459.167,486.5 470.833,486.5 482.5,486.5C 482.185,490.371 482.518,494.038 483.5,497.5C 487.298,498.483 491.298,498.817 495.5,498.5C 495.5,494.167 495.5,489.833 495.5,485.5C 499.5,485.5 503.5,485.5 507.5,485.5C 507.5,481.5 507.5,477.5 507.5,473.5 Z"/></g>
<g><path style="opacity:1" fill="#ababab" d="M 435.5,486.5 C 439.167,486.5 442.833,486.5 446.5,486.5C 446.5,490.167 446.5,493.833 446.5,497.5C 442.833,497.5 439.167,497.5 435.5,497.5C 435.5,493.833 435.5,490.167 435.5,486.5 Z"/></g>
<g><path style="opacity:1" fill="#aeaeae" d="M 483.5,485.5 C 487.5,485.5 491.5,485.5 495.5,485.5C 495.5,489.833 495.5,494.167 495.5,498.5C 491.298,498.817 487.298,498.483 483.5,497.5C 483.5,493.5 483.5,489.5 483.5,485.5 Z"/></g>
<g><path style="opacity:1" fill="#c7c7c7" d="M 4.5,510.5 C 8.5,510.5 12.5,510.5 16.5,510.5C 16.5,514.5 16.5,518.5 16.5,522.5C 12.5,522.5 8.5,522.5 4.5,522.5C 4.5,518.5 4.5,514.5 4.5,510.5 Z"/></g>
<g><path style="opacity:1" fill="#c8c8c8" d="M 471.5,510.5 C 475.5,510.5 479.5,510.5 483.5,510.5C 483.5,514.5 483.5,518.5 483.5,522.5C 479.5,522.5 475.5,522.5 471.5,522.5C 471.5,518.5 471.5,514.5 471.5,510.5 Z"/></g>
<g><path style="opacity:1" fill="#dddddd" d="M 386.5,498.5 C 390.5,498.5 394.5,498.5 398.5,498.5C 398.5,502.167 398.5,505.833 398.5,509.5C 402.5,509.5 406.5,509.5 410.5,509.5C 410.5,513.833 410.5,518.167 410.5,522.5C 414.5,522.5 418.5,522.5 422.5,522.5C 422.5,518.5 422.5,514.5 422.5,510.5C 426.5,510.5 430.5,510.5 434.5,510.5C 434.5,518.167 434.5,525.833 434.5,533.5C 438.5,533.5 442.5,533.5 446.5,533.5C 446.207,529.563 446.54,525.73 447.5,522C 455.159,521.5 462.826,521.334 470.5,521.5C 470.185,517.629 470.518,513.962 471.5,510.5C 471.5,514.5 471.5,518.5 471.5,522.5C 475.5,522.5 479.5,522.5 483.5,522.5C 483.5,526.167 483.5,529.833 483.5,533.5C 487.5,533.5 491.5,533.5 495.5,533.5C 499.5,533.5 503.5,533.5 507.5,533.5C 507.5,529.833 507.5,526.167 507.5,522.5C 511.5,522.5 515.5,522.5 519.5,522.5C 519.5,526.5 519.5,530.5 519.5,534.5C 511.5,534.5 503.5,534.5 495.5,534.5C 491.5,534.5 487.5,534.5 483.5,534.5C 483.5,538.5 483.5,542.5 483.5,546.5C 479.818,546.665 476.152,546.499 472.5,546C 471.54,542.27 471.207,538.437 471.5,534.5C 463.5,534.5 455.5,534.5 447.5,534.5C 447.817,538.702 447.483,542.702 446.5,546.5C 446.5,542.5 446.5,538.5 446.5,534.5C 442.5,534.5 438.5,534.5 434.5,534.5C 422.5,534.5 410.5,534.5 398.5,534.5C 394.5,534.5 390.5,534.5 386.5,534.5C 386.5,538.5 386.5,542.5 386.5,546.5C 382.5,546.5 378.5,546.5 374.5,546.5C 374.5,542.5 374.5,538.5 374.5,534.5C 366.5,534.5 358.5,534.5 350.5,534.5C 350.817,538.702 350.483,542.702 349.5,546.5C 349.5,542.5 349.5,538.5 349.5,534.5C 345.5,534.5 341.5,534.5 337.5,534.5C 341.298,533.517 345.298,533.183 349.5,533.5C 349.207,529.563 349.54,525.73 350.5,522C 354.486,521.501 358.486,521.334 362.5,521.5C 366.167,521.5 369.833,521.5 373.5,521.5C 373.185,517.629 373.518,513.962 374.5,510.5C 378.298,509.517 382.298,509.183 386.5,509.5C 386.5,505.833 386.5,502.167 386.5,498.5 Z"/></g>
<g><path style="opacity:1" fill="#f6f6f6" d="M 386.5,510.5 C 390.5,510.5 394.5,510.5 398.5,510.5C 398.5,518.167 398.5,525.833 398.5,533.5C 394.5,533.5 390.5,533.5 386.5,533.5C 386.5,529.833 386.5,526.167 386.5,522.5C 386.5,518.5 386.5,514.5 386.5,510.5 Z"/></g>
<g><path style="opacity:1" fill="#c8c8c8" d="M 374.5,510.5 C 378.5,510.5 382.5,510.5 386.5,510.5C 386.5,514.5 386.5,518.5 386.5,522.5C 382.5,522.5 378.5,522.5 374.5,522.5C 374.5,518.5 374.5,514.5 374.5,510.5 Z"/></g>
<g><path style="opacity:1" fill="#c7c7c7" d="M 507.5,522.5 C 507.5,526.167 507.5,529.833 507.5,533.5C 503.5,533.5 499.5,533.5 495.5,533.5C 495.5,529.833 495.5,526.167 495.5,522.5C 499.5,522.5 503.5,522.5 507.5,522.5 Z"/></g>
<g><path style="opacity:1" fill="#c7c7c7" d="M 4.5,558.5 C 8.5,558.5 12.5,558.5 16.5,558.5C 16.5,562.5 16.5,566.5 16.5,570.5C 12.5,570.5 8.5,570.5 4.5,570.5C 4.5,566.5 4.5,562.5 4.5,558.5 Z"/></g>
<g><path style="opacity:1" fill="#efefef" d="M 16.5,485.5 C 16.7312,493.505 17.0645,501.505 17.5,509.5C 21.1667,509.5 24.8333,509.5 28.5,509.5C 28.8886,501.836 29.222,494.17 29.5,486.5C 37.5,486.5 45.5,486.5 53.5,486.5C 53.5,490.167 53.5,493.833 53.5,497.5C 57.5,497.5 61.5,497.5 65.5,497.5C 65.5,497.833 65.5,498.167 65.5,498.5C 65.5,502.167 65.5,505.833 65.5,509.5C 61.2984,509.183 57.2984,509.517 53.5,510.5C 52.5184,513.962 52.185,517.629 52.5,521.5C 44.8261,521.334 37.1594,521.5 29.5,522C 28.5399,525.73 28.2065,529.563 28.5,533.5C 24.2984,533.183 20.2984,533.517 16.5,534.5C 16.5,538.5 16.5,542.5 16.5,546.5C 20.5,546.5 24.5,546.5 28.5,546.5C 29.4834,542.702 29.8168,538.702 29.5,534.5C 37.5,534.5 45.5,534.5 53.5,534.5C 53.5,538.5 53.5,542.5 53.5,546.5C 57.5,546.5 61.5,546.5 65.5,546.5C 69.5,546.5 73.5,546.5 77.5,546.5C 77.5,542.5 77.5,538.5 77.5,534.5C 89.5,534.5 101.5,534.5 113.5,534.5C 113.5,538.5 113.5,542.5 113.5,546.5C 117.5,546.5 121.5,546.5 125.5,546.5C 126.483,542.702 126.817,538.702 126.5,534.5C 134.5,534.5 142.5,534.5 150.5,534.5C 150.335,538.182 150.501,541.848 151,545.5C 154.73,546.46 158.563,546.793 162.5,546.5C 166.5,546.5 170.5,546.5 174.5,546.5C 174.5,542.5 174.5,538.5 174.5,534.5C 178.833,534.5 183.167,534.5 187.5,534.5C 187.5,538.5 187.5,542.5 187.5,546.5C 191.5,546.5 195.5,546.5 199.5,546.5C 203.5,546.5 207.5,546.5 211.5,546.5C 212.483,542.702 212.817,538.702 212.5,534.5C 220.5,534.5 228.5,534.5 236.5,534.5C 236.5,538.5 236.5,542.5 236.5,546.5C 240.5,546.5 244.5,546.5 248.5,546.5C 252.5,546.5 256.5,546.5 260.5,546.5C 260.5,542.5 260.5,538.5 260.5,534.5C 272.5,534.5 284.5,534.5 296.5,534.5C 296.5,538.5 296.5,542.5 296.5,546.5C 300.5,546.5 304.5,546.5 308.5,546.5C 309.483,542.702 309.817,538.702 309.5,534.5C 313.5,534.5 317.5,534.5 321.5,534.5C 321.5,530.167 321.5,525.833 321.5,521.5C 317.486,521.334 313.486,521.501 309.5,522C 308.54,525.73 308.207,529.563 308.5,533.5C 304.5,533.5 300.5,533.5 296.5,533.5C 296.5,525.833 296.5,518.167 296.5,510.5C 292.5,510.5 288.5,510.5 284.5,510.5C 284.5,514.5 284.5,518.5 284.5,522.5C 280.5,522.5 276.5,522.5 272.5,522.5C 272.5,518.167 272.5,513.833 272.5,509.5C 268.5,509.5 264.5,509.5 260.5,509.5C 260.5,505.833 260.5,502.167 260.5,498.5C 260.5,494.5 260.5,490.5 260.5,486.5C 268.5,486.5 276.5,486.5 284.5,486.5C 284.5,490.167 284.5,493.833 284.5,497.5C 288.5,497.5 292.5,497.5 296.5,497.5C 300.634,498.485 304.968,498.818 309.5,498.5C 309.5,494.167 309.5,489.833 309.5,485.5C 313.5,485.5 317.5,485.5 321.5,485.5C 321.5,481.5 321.5,477.5 321.5,473.5C 326.833,473.5 332.167,473.5 337.5,473.5C 337.5,477.5 337.5,481.5 337.5,485.5C 337.5,489.833 337.5,494.167 337.5,498.5C 341.833,498.5 346.167,498.5 350.5,498.5C 350.5,502.167 350.5,505.833 350.5,509.5C 354.5,509.5 358.5,509.5 362.5,509.5C 362.5,513.5 362.5,517.5 362.5,521.5C 358.486,521.334 354.486,521.501 350.5,522C 349.54,525.73 349.207,529.563 349.5,533.5C 345.298,533.183 341.298,533.517 337.5,534.5C 341.5,534.5 345.5,534.5 349.5,534.5C 349.5,538.5 349.5,542.5 349.5,546.5C 350.483,542.702 350.817,538.702 350.5,534.5C 358.5,534.5 366.5,534.5 374.5,534.5C 374.5,538.5 374.5,542.5 374.5,546.5C 378.5,546.5 382.5,546.5 386.5,546.5C 390.5,546.5 394.5,546.5 398.5,546.5C 398.5,542.5 398.5,538.5 398.5,534.5C 410.5,534.5 422.5,534.5 434.5,534.5C 438.5,534.5 442.5,534.5 446.5,534.5C 446.5,538.5 446.5,542.5 446.5,546.5C 447.483,542.702 447.817,538.702 447.5,534.5C 455.5,534.5 463.5,534.5 471.5,534.5C 471.207,538.437 471.54,542.27 472.5,546C 476.152,546.499 479.818,546.665 483.5,546.5C 487.5,546.5 491.5,546.5 495.5,546.5C 495.5,542.5 495.5,538.5 495.5,534.5C 503.5,534.5 511.5,534.5 519.5,534.5C 519.5,562.833 519.5,591.167 519.5,619.5C 347.666,619.833 175.999,619.5 4.5,618.5C 8.5,618.5 12.5,618.5 16.5,618.5C 16.5,614.5 16.5,610.5 16.5,606.5C 12.5,606.5 8.5,606.5 4.5,606.5C 4.5,594.5 4.5,582.5 4.5,570.5C 8.5,570.5 12.5,570.5 16.5,570.5C 16.5,566.5 16.5,562.5 16.5,558.5C 12.5,558.5 8.5,558.5 4.5,558.5C 4.5,546.5 4.5,534.5 4.5,522.5C 8.5,522.5 12.5,522.5 16.5,522.5C 16.5,518.5 16.5,514.5 16.5,510.5C 12.5,510.5 8.5,510.5 4.5,510.5C 4.5,499.167 4.5,487.833 4.5,476.5C 4.5,475.5 4.5,474.5 4.5,473.5C 8.5,473.5 12.5,473.5 16.5,473.5C 16.5,477.5 16.5,481.5 16.5,485.5 Z"/></g>
<g><path style="opacity:1" fill="#adadad" d="M 296.5,582.5 C 300.5,582.5 304.5,582.5 308.5,582.5C 308.5,586.5 308.5,590.5 308.5,594.5C 304.5,594.5 300.5,594.5 296.5,594.5C 296.5,590.5 296.5,586.5 296.5,582.5 Z"/></g>
<g><path style="opacity:1" fill="#adadad" d="M 113.5,582.5 C 117.5,582.5 121.5,582.5 125.5,582.5C 125.5,586.5 125.5,590.5 125.5,594.5C 121.5,594.5 117.5,594.5 113.5,594.5C 113.5,590.5 113.5,586.5 113.5,582.5 Z"/></g>
<g><path style="opacity:1" fill="#c7c7c7" d="M 495.5,582.5 C 495.5,578.5 495.5,574.5 495.5,570.5C 499.5,570.5 503.5,570.5 507.5,570.5C 507.5,574.5 507.5,578.5 507.5,582.5C 503.5,582.5 499.5,582.5 495.5,582.5 Z"/></g>
<g><path style="opacity:1" fill="#c7c7c7" d="M 447.5,570.5 C 451.5,570.5 455.5,570.5 459.5,570.5C 459.5,574.5 459.5,578.5 459.5,582.5C 455.5,582.5 451.5,582.5 447.5,582.5C 447.5,578.5 447.5,574.5 447.5,570.5 Z"/></g>
<g><path style="opacity:1" fill="#c7c7c7" d="M 398.5,582.5 C 398.5,578.5 398.5,574.5 398.5,570.5C 402.5,570.5 406.5,570.5 410.5,570.5C 410.5,574.5 410.5,578.5 410.5,582.5C 406.5,582.5 402.5,582.5 398.5,582.5 Z"/></g>
<g><path style="opacity:1" fill="#c7c7c7" d="M 350.5,570.5 C 354.5,570.5 358.5,570.5 362.5,570.5C 362.5,574.5 362.5,578.5 362.5,582.5C 358.5,582.5 354.5,582.5 350.5,582.5C 350.5,578.5 350.5,574.5 350.5,570.5 Z"/></g>
<g><path style="opacity:1" fill="#c7c7c7" d="M 309.5,570.5 C 313.5,570.5 317.5,570.5 321.5,570.5C 321.5,574.5 321.5,578.5 321.5,582.5C 317.5,582.5 313.5,582.5 309.5,582.5C 309.5,578.5 309.5,574.5 309.5,570.5 Z"/></g>
<g><path style="opacity:1" fill="#c7c7c7" d="M 260.5,582.5 C 260.5,578.5 260.5,574.5 260.5,570.5C 264.5,570.5 268.5,570.5 272.5,570.5C 272.5,574.5 272.5,578.5 272.5,582.5C 268.5,582.5 264.5,582.5 260.5,582.5 Z"/></g>
<g><path style="opacity:1" fill="#c7c7c7" d="M 212.5,570.5 C 216.5,570.5 220.5,570.5 224.5,570.5C 224.5,574.5 224.5,578.5 224.5,582.5C 220.5,582.5 216.5,582.5 212.5,582.5C 212.5,578.5 212.5,574.5 212.5,570.5 Z"/></g>
<g><path style="opacity:1" fill="#c7c7c7" d="M 174.5,582.5 C 174.5,578.5 174.5,574.5 174.5,570.5C 178.5,570.5 182.5,570.5 186.5,570.5C 186.5,574.5 186.5,578.5 186.5,582.5C 182.5,582.5 178.5,582.5 174.5,582.5 Z"/></g>
<g><path style="opacity:1" fill="#c7c7c7" d="M 126.5,570.5 C 130.5,570.5 134.5,570.5 138.5,570.5C 138.5,574.5 138.5,578.5 138.5,582.5C 134.5,582.5 130.5,582.5 126.5,582.5C 126.5,578.5 126.5,574.5 126.5,570.5 Z"/></g>
<g><path style="opacity:1" fill="#c7c7c7" d="M 77.5,582.5 C 77.5,578.5 77.5,574.5 77.5,570.5C 81.5,570.5 85.5,570.5 89.5,570.5C 89.5,574.5 89.5,578.5 89.5,582.5C 85.5,582.5 81.5,582.5 77.5,582.5 Z"/></g>
<g><path style="opacity:1" fill="#c7c7c7" d="M 29.5,570.5 C 33.5,570.5 37.5,570.5 41.5,570.5C 41.5,574.5 41.5,578.5 41.5,582.5C 37.5,582.5 33.5,582.5 29.5,582.5C 29.5,578.5 29.5,574.5 29.5,570.5 Z"/></g>
<g><path style="opacity:1" fill="#c7c7c7" d="M 471.5,558.5 C 475.5,558.5 479.5,558.5 483.5,558.5C 483.5,562.5 483.5,566.5 483.5,570.5C 479.5,570.5 475.5,570.5 471.5,570.5C 471.5,566.5 471.5,562.5 471.5,558.5 Z"/></g>
<g><path style="opacity:1" fill="#c8c8c8" d="M 422.5,558.5 C 426.5,558.5 430.5,558.5 434.5,558.5C 434.5,562.5 434.5,566.5 434.5,570.5C 430.5,570.5 426.5,570.5 422.5,570.5C 422.5,566.5 422.5,562.5 422.5,558.5 Z"/></g>
<g><path style="opacity:1" fill="#c7c7c7" d="M 374.5,558.5 C 378.5,558.5 382.5,558.5 386.5,558.5C 386.5,562.5 386.5,566.5 386.5,570.5C 382.5,570.5 378.5,570.5 374.5,570.5C 374.5,566.5 374.5,562.5 374.5,558.5 Z"/></g>
<g><path style="opacity:1" fill="#c7c7c7" d="M 325.5,558.5 C 329.5,558.5 333.5,558.5 337.5,558.5C 337.5,562.5 337.5,566.5 337.5,570.5C 333.5,570.5 329.5,570.5 325.5,570.5C 325.5,566.5 325.5,562.5 325.5,558.5 Z"/></g>
<g><path style="opacity:1" fill="#c8c8c8" d="M 284.5,558.5 C 288.5,558.5 292.5,558.5 296.5,558.5C 296.5,562.5 296.5,566.5 296.5,570.5C 292.5,570.5 288.5,570.5 284.5,570.5C 284.5,566.5 284.5,562.5 284.5,558.5 Z"/></g>
<g><path style="opacity:1" fill="#c7c7c7" d="M 236.5,558.5 C 240.5,558.5 244.5,558.5 248.5,558.5C 248.5,562.5 248.5,566.5 248.5,570.5C 244.5,570.5 240.5,570.5 236.5,570.5C 236.5,566.5 236.5,562.5 236.5,558.5 Z"/></g>
<g><path style="opacity:1" fill="#c7c7c7" d="M 187.5,558.5 C 191.5,558.5 195.5,558.5 199.5,558.5C 199.5,562.5 199.5,566.5 199.5,570.5C 195.5,570.5 191.5,570.5 187.5,570.5C 187.5,566.5 187.5,562.5 187.5,558.5 Z"/></g>
<g><path style="opacity:1" fill="#c7c7c7" d="M 150.5,558.5 C 154.5,558.5 158.5,558.5 162.5,558.5C 162.5,562.5 162.5,566.5 162.5,570.5C 158.5,570.5 154.5,570.5 150.5,570.5C 150.5,566.5 150.5,562.5 150.5,558.5 Z"/></g>
<g><path style="opacity:1" fill="#c8c8c8" d="M 101.5,558.5 C 105.5,558.5 109.5,558.5 113.5,558.5C 113.5,562.5 113.5,566.5 113.5,570.5C 109.5,570.5 105.5,570.5 101.5,570.5C 101.5,566.5 101.5,562.5 101.5,558.5 Z"/></g>
<g><path style="opacity:1" fill="#c7c7c7" d="M 53.5,558.5 C 57.5,558.5 61.5,558.5 65.5,558.5C 65.5,562.5 65.5,566.5 65.5,570.5C 61.5,570.5 57.5,570.5 53.5,570.5C 53.5,566.5 53.5,562.5 53.5,558.5 Z"/></g>
<g><path style="opacity:1" fill="#adadad" d="M 495.5,534.5 C 495.5,538.5 495.5,542.5 495.5,546.5C 491.5,546.5 487.5,546.5 483.5,546.5C 483.5,542.5 483.5,538.5 483.5,534.5C 487.5,534.5 491.5,534.5 495.5,534.5 Z"/></g>
<g><path style="opacity:1" fill="#adadad" d="M 434.5,534.5 C 438.5,534.5 442.5,534.5 446.5,534.5C 446.5,538.5 446.5,542.5 446.5,546.5C 442.5,546.5 438.5,546.5 434.5,546.5C 434.5,542.5 434.5,538.5 434.5,534.5 Z"/></g>
<g><path style="opacity:1" fill="#adadad" d="M 398.5,534.5 C 398.5,538.5 398.5,542.5 398.5,546.5C 394.5,546.5 390.5,546.5 386.5,546.5C 386.5,542.5 386.5,538.5 386.5,534.5C 390.5,534.5 394.5,534.5 398.5,534.5 Z"/></g>
<g><path style="opacity:1" fill="#adadad" d="M 337.5,534.5 C 341.5,534.5 345.5,534.5 349.5,534.5C 349.5,538.5 349.5,542.5 349.5,546.5C 345.5,546.5 341.5,546.5 337.5,546.5C 337.5,542.5 337.5,538.5 337.5,534.5 Z"/></g>
<g><path style="opacity:1" fill="#adadad" d="M 16.5,534.5 C 20.5,534.5 24.5,534.5 28.5,534.5C 28.5,538.5 28.5,542.5 28.5,546.5C 28.5,542.5 28.5,538.5 28.5,534.5C 24.5,534.5 20.5,534.5 16.5,534.5 Z"/></g>
<g><path style="opacity:1" fill="#dcdcdc" d="M 65.5,498.5 C 69.5,498.5 73.5,498.5 77.5,498.5C 77.5,502.167 77.5,505.833 77.5,509.5C 81.5,509.5 85.5,509.5 89.5,509.5C 89.5,513.833 89.5,518.167 89.5,522.5C 93.5,522.5 97.5,522.5 101.5,522.5C 101.5,518.5 101.5,514.5 101.5,510.5C 105.5,510.5 109.5,510.5 113.5,510.5C 113.5,518.167 113.5,525.833 113.5,533.5C 117.5,533.5 121.5,533.5 125.5,533.5C 125.207,529.563 125.54,525.73 126.5,522C 130.486,521.501 134.486,521.334 138.5,521.5C 142.167,521.5 145.833,521.5 149.5,521.5C 149.185,517.629 149.518,513.962 150.5,510.5C 150.5,514.5 150.5,518.5 150.5,522.5C 154.5,522.5 158.5,522.5 162.5,522.5C 162.5,526.167 162.5,529.833 162.5,533.5C 166.5,533.5 170.5,533.5 174.5,533.5C 178.5,533.5 182.5,533.5 186.5,533.5C 186.5,529.833 186.5,526.167 186.5,522.5C 186.833,522.5 187.167,522.5 187.5,522.5C 191.5,522.5 195.5,522.5 199.5,522.5C 199.5,526.167 199.5,529.833 199.5,533.5C 203.5,533.5 207.5,533.5 211.5,533.5C 211.207,529.563 211.54,525.73 212.5,522C 220.159,521.5 227.826,521.334 235.5,521.5C 235.185,517.629 235.518,513.962 236.5,510.5C 240.298,509.517 244.298,509.183 248.5,509.5C 248.5,505.833 248.5,502.167 248.5,498.5C 252.5,498.5 256.5,498.5 260.5,498.5C 260.5,502.167 260.5,505.833 260.5,509.5C 264.5,509.5 268.5,509.5 272.5,509.5C 272.5,513.833 272.5,518.167 272.5,522.5C 276.5,522.5 280.5,522.5 284.5,522.5C 284.5,518.5 284.5,514.5 284.5,510.5C 288.5,510.5 292.5,510.5 296.5,510.5C 296.5,518.167 296.5,525.833 296.5,533.5C 300.5,533.5 304.5,533.5 308.5,533.5C 308.207,529.563 308.54,525.73 309.5,522C 313.486,521.501 317.486,521.334 321.5,521.5C 321.5,525.833 321.5,530.167 321.5,534.5C 317.5,534.5 313.5,534.5 309.5,534.5C 309.817,538.702 309.483,542.702 308.5,546.5C 304.5,546.5 300.5,546.5 296.5,546.5C 296.5,542.5 296.5,538.5 296.5,534.5C 284.5,534.5 272.5,534.5 260.5,534.5C 256.5,534.5 252.5,534.5 248.5,534.5C 248.5,538.5 248.5,542.5 248.5,546.5C 244.5,546.5 240.5,546.5 236.5,546.5C 236.5,542.5 236.5,538.5 236.5,534.5C 228.5,534.5 220.5,534.5 212.5,534.5C 212.817,538.702 212.483,542.702 211.5,546.5C 211.5,542.5 211.5,538.5 211.5,534.5C 207.5,534.5 203.5,534.5 199.5,534.5C 199.5,538.5 199.5,542.5 199.5,546.5C 195.5,546.5 191.5,546.5 187.5,546.5C 187.5,542.5 187.5,538.5 187.5,534.5C 183.167,534.5 178.833,534.5 174.5,534.5C 170.5,534.5 166.5,534.5 162.5,534.5C 162.5,538.5 162.5,542.5 162.5,546.5C 158.563,546.793 154.73,546.46 151,545.5C 150.501,541.848 150.335,538.182 150.5,534.5C 142.5,534.5 134.5,534.5 126.5,534.5C 126.817,538.702 126.483,542.702 125.5,546.5C 121.5,546.5 117.5,546.5 113.5,546.5C 113.5,542.5 113.5,538.5 113.5,534.5C 101.5,534.5 89.5,534.5 77.5,534.5C 73.5,534.5 69.5,534.5 65.5,534.5C 65.5,538.5 65.5,542.5 65.5,546.5C 61.5,546.5 57.5,546.5 53.5,546.5C 53.5,542.5 53.5,538.5 53.5,534.5C 45.5,534.5 37.5,534.5 29.5,534.5C 29.8168,538.702 29.4834,542.702 28.5,546.5C 28.5,542.5 28.5,538.5 28.5,534.5C 24.5,534.5 20.5,534.5 16.5,534.5C 20.2984,533.517 24.2984,533.183 28.5,533.5C 28.2065,529.563 28.5399,525.73 29.5,522C 37.1594,521.5 44.8261,521.334 52.5,521.5C 52.185,517.629 52.5184,513.962 53.5,510.5C 57.2984,509.517 61.2984,509.183 65.5,509.5C 65.5,505.833 65.5,502.167 65.5,498.5 Z"/></g>
<g><path style="opacity:1" fill="#adadad" d="M 296.5,534.5 C 300.5,534.5 304.5,534.5 308.5,534.5C 308.5,538.5 308.5,542.5 308.5,546.5C 308.5,542.5 308.5,538.5 308.5,534.5C 304.5,534.5 300.5,534.5 296.5,534.5 Z"/></g>
<g><path style="opacity:1" fill="#adadad" d="M 260.5,534.5 C 260.5,538.5 260.5,542.5 260.5,546.5C 256.5,546.5 252.5,546.5 248.5,546.5C 248.5,542.5 248.5,538.5 248.5,534.5C 252.5,534.5 256.5,534.5 260.5,534.5 Z"/></g>
<g><path style="opacity:1" fill="#adadad" d="M 211.5,546.5 C 207.5,546.5 203.5,546.5 199.5,546.5C 199.5,542.5 199.5,538.5 199.5,534.5C 203.5,534.5 207.5,534.5 211.5,534.5C 211.5,538.5 211.5,542.5 211.5,546.5 Z"/></g>
<g><path style="opacity:1" fill="#adadad" d="M 174.5,534.5 C 174.5,538.5 174.5,542.5 174.5,546.5C 170.5,546.5 166.5,546.5 162.5,546.5C 162.5,542.5 162.5,538.5 162.5,534.5C 166.5,534.5 170.5,534.5 174.5,534.5 Z"/></g>
<g><path style="opacity:1" fill="#adadad" d="M 113.5,534.5 C 117.5,534.5 121.5,534.5 125.5,534.5C 125.5,538.5 125.5,542.5 125.5,546.5C 125.5,542.5 125.5,538.5 125.5,534.5C 121.5,534.5 117.5,534.5 113.5,534.5 Z"/></g>
<g><path style="opacity:1" fill="#adadad" d="M 77.5,534.5 C 77.5,538.5 77.5,542.5 77.5,546.5C 73.5,546.5 69.5,546.5 65.5,546.5C 65.5,542.5 65.5,538.5 65.5,534.5C 69.5,534.5 73.5,534.5 77.5,534.5 Z"/></g>
<g><path style="opacity:1" fill="#c7c7c7" d="M 325.5,510.5 C 329.5,510.5 333.5,510.5 337.5,510.5C 337.5,514.5 337.5,518.5 337.5,522.5C 333.5,522.5 329.5,522.5 325.5,522.5C 325.5,518.5 325.5,514.5 325.5,510.5 Z"/></g>
<g><path style="opacity:1" fill="#f6f6f6" d="M 248.5,510.5 C 252.5,510.5 256.5,510.5 260.5,510.5C 260.5,518.167 260.5,525.833 260.5,533.5C 256.5,533.5 252.5,533.5 248.5,533.5C 248.5,529.833 248.5,526.167 248.5,522.5C 248.5,518.5 248.5,514.5 248.5,510.5 Z"/></g>
<g><path style="opacity:1" fill="#c8c8c8" d="M 236.5,510.5 C 240.5,510.5 244.5,510.5 248.5,510.5C 248.5,514.5 248.5,518.5 248.5,522.5C 244.5,522.5 240.5,522.5 236.5,522.5C 236.5,518.5 236.5,514.5 236.5,510.5 Z"/></g>
<g><path style="opacity:1" fill="#c8c8c8" d="M 150.5,510.5 C 154.5,510.5 158.5,510.5 162.5,510.5C 162.5,514.5 162.5,518.5 162.5,522.5C 162.5,518.5 162.5,514.5 162.5,510.5C 158.5,510.5 154.5,510.5 150.5,510.5 Z"/></g>
<g><path style="opacity:1" fill="#f6f6f6" d="M 65.5,510.5 C 69.5,510.5 73.5,510.5 77.5,510.5C 77.5,518.167 77.5,525.833 77.5,533.5C 73.5,533.5 69.5,533.5 65.5,533.5C 65.5,529.833 65.5,526.167 65.5,522.5C 65.5,518.5 65.5,514.5 65.5,510.5 Z"/></g>
<g><path style="opacity:1" fill="#c8c8c8" d="M 53.5,510.5 C 57.5,510.5 61.5,510.5 65.5,510.5C 65.5,514.5 65.5,518.5 65.5,522.5C 61.5,522.5 57.5,522.5 53.5,522.5C 53.5,518.5 53.5,514.5 53.5,510.5 Z"/></g>
<g><path style="opacity:1" fill="#aeaeae" d="M 260.5,486.5 C 260.5,490.5 260.5,494.5 260.5,498.5C 256.5,498.5 252.5,498.5 248.5,498.5C 248.5,498.167 248.5,497.833 248.5,497.5C 248.5,493.833 248.5,490.167 248.5,486.5C 252.5,486.5 256.5,486.5 260.5,486.5 Z"/></g>
<g><path style="opacity:1" fill="#f0f0f0" d="M 186.5,473.5 C 190.833,473.5 195.167,473.5 199.5,473.5C 199.5,477.5 199.5,481.5 199.5,485.5C 199.5,489.833 199.5,494.167 199.5,498.5C 203.833,498.5 208.167,498.5 212.5,498.5C 212.5,494.5 212.5,490.5 212.5,486.5C 220.5,486.5 228.5,486.5 236.5,486.5C 236.5,490.167 236.5,493.833 236.5,497.5C 240.5,497.5 244.5,497.5 248.5,497.5C 248.5,497.833 248.5,498.167 248.5,498.5C 248.5,502.167 248.5,505.833 248.5,509.5C 244.298,509.183 240.298,509.517 236.5,510.5C 235.518,513.962 235.185,517.629 235.5,521.5C 227.826,521.334 220.159,521.5 212.5,522C 211.54,525.73 211.207,529.563 211.5,533.5C 207.5,533.5 203.5,533.5 199.5,533.5C 199.5,529.833 199.5,526.167 199.5,522.5C 199.5,518.5 199.5,514.5 199.5,510.5C 195.5,510.5 191.5,510.5 187.5,510.5C 187.5,514.5 187.5,518.5 187.5,522.5C 187.167,522.5 186.833,522.5 186.5,522.5C 182.5,522.5 178.5,522.5 174.5,522.5C 174.5,526.167 174.5,529.833 174.5,533.5C 170.5,533.5 166.5,533.5 162.5,533.5C 162.5,529.833 162.5,526.167 162.5,522.5C 162.5,518.5 162.5,514.5 162.5,510.5C 158.5,510.5 154.5,510.5 150.5,510.5C 149.518,513.962 149.185,517.629 149.5,521.5C 145.833,521.5 142.167,521.5 138.5,521.5C 138.5,517.5 138.5,513.5 138.5,509.5C 134.5,509.5 130.5,509.5 126.5,509.5C 126.5,501.833 126.5,494.167 126.5,486.5C 134.5,486.5 142.5,486.5 150.5,486.5C 150.5,490.167 150.5,493.833 150.5,497.5C 154.5,497.5 158.5,497.5 162.5,497.5C 166.298,498.483 170.298,498.817 174.5,498.5C 174.5,494.167 174.5,489.833 174.5,485.5C 178.5,485.5 182.5,485.5 186.5,485.5C 186.5,481.5 186.5,477.5 186.5,473.5 Z"/></g>
<g><path style="opacity:1" fill="#c7c7c7" d="M 186.5,522.5 C 186.5,526.167 186.5,529.833 186.5,533.5C 182.5,533.5 178.5,533.5 174.5,533.5C 174.5,529.833 174.5,526.167 174.5,522.5C 178.5,522.5 182.5,522.5 186.5,522.5 Z"/></g>
<g><path style="opacity:1" fill="#c7c7c7" d="M 199.5,522.5 C 195.5,522.5 191.5,522.5 187.5,522.5C 187.5,518.5 187.5,514.5 187.5,510.5C 191.5,510.5 195.5,510.5 199.5,510.5C 199.5,514.5 199.5,518.5 199.5,522.5 Z"/></g>
<g><path style="opacity:1" fill="#aeaeae" d="M 162.5,485.5 C 166.5,485.5 170.5,485.5 174.5,485.5C 174.5,489.833 174.5,494.167 174.5,498.5C 170.298,498.817 166.298,498.483 162.5,497.5C 162.5,493.5 162.5,489.5 162.5,485.5 Z"/></g>
<g><path style="opacity:1" fill="#ababab" d="M 114.5,486.5 C 118.167,486.5 121.833,486.5 125.5,486.5C 125.5,490.167 125.5,493.833 125.5,497.5C 121.833,497.5 118.167,497.5 114.5,497.5C 114.5,493.833 114.5,490.167 114.5,486.5 Z"/></g>
<g><path style="opacity:1" fill="#f6f6f6" d="M 77.5,486.5 C 85.5,486.5 93.5,486.5 101.5,486.5C 101.5,490.167 101.5,493.833 101.5,497.5C 105.5,497.5 109.5,497.5 113.5,497.5C 113.5,501.5 113.5,505.5 113.5,509.5C 109.298,509.183 105.298,509.517 101.5,510.5C 101.5,514.5 101.5,518.5 101.5,522.5C 97.5,522.5 93.5,522.5 89.5,522.5C 89.5,518.167 89.5,513.833 89.5,509.5C 85.5,509.5 81.5,509.5 77.5,509.5C 77.5,505.833 77.5,502.167 77.5,498.5C 77.5,494.5 77.5,490.5 77.5,486.5 Z"/></g>
<g><path style="opacity:1" fill="#aeaeae" d="M 77.5,486.5 C 77.5,490.5 77.5,494.5 77.5,498.5C 73.5,498.5 69.5,498.5 65.5,498.5C 65.5,498.167 65.5,497.833 65.5,497.5C 65.5,493.833 65.5,490.167 65.5,486.5C 69.5,486.5 73.5,486.5 77.5,486.5 Z"/></g>
<g><path style="opacity:1" fill="#ababab" d="M 17.5,486.5 C 21.1667,486.5 24.8333,486.5 28.5,486.5C 28.5,490.167 28.5,493.833 28.5,497.5C 24.8333,497.5 21.1667,497.5 17.5,497.5C 17.5,493.833 17.5,490.167 17.5,486.5 Z"/></g>
<g><path style="opacity:1" fill="#c0c0c0" d="M 321.5,473.5 C 321.5,477.5 321.5,481.5 321.5,485.5C 317.5,485.5 313.5,485.5 309.5,485.5C 309.5,489.833 309.5,494.167 309.5,498.5C 304.968,498.818 300.634,498.485 296.5,497.5C 296.5,493.5 296.5,489.5 296.5,485.5C 300.5,485.5 304.5,485.5 308.5,485.5C 308.5,481.5 308.5,477.5 308.5,473.5C 312.833,473.5 317.167,473.5 321.5,473.5 Z"/></g>
<g><path style="opacity:1" fill="#e4e4e4" d="M 224.5,473.5 C 232.5,473.5 240.5,473.5 248.5,473.5C 248.5,477.5 248.5,481.5 248.5,485.5C 252.5,485.5 256.5,485.5 260.5,485.5C 264.5,485.5 268.5,485.5 272.5,485.5C 272.5,481.5 272.5,477.5 272.5,473.5C 280.5,473.5 288.5,473.5 296.5,473.5C 296.5,477.5 296.5,481.5 296.5,485.5C 296.5,489.5 296.5,493.5 296.5,497.5C 292.5,497.5 288.5,497.5 284.5,497.5C 284.5,493.833 284.5,490.167 284.5,486.5C 276.5,486.5 268.5,486.5 260.5,486.5C 256.5,486.5 252.5,486.5 248.5,486.5C 248.5,490.167 248.5,493.833 248.5,497.5C 244.5,497.5 240.5,497.5 236.5,497.5C 236.5,493.833 236.5,490.167 236.5,486.5C 228.5,486.5 220.5,486.5 212.5,486.5C 216.298,485.517 220.298,485.183 224.5,485.5C 224.5,481.5 224.5,477.5 224.5,473.5 Z"/></g>
<g><path style="opacity:1" fill="#c7c7c7" d="M 272.5,473.5 C 272.5,477.5 272.5,481.5 272.5,485.5C 268.5,485.5 264.5,485.5 260.5,485.5C 260.5,481.5 260.5,477.5 260.5,473.5C 264.5,473.5 268.5,473.5 272.5,473.5 Z"/></g>
<g><path style="opacity:1" fill="#c0c0c0" d="M 224.5,473.5 C 224.5,477.5 224.5,481.5 224.5,485.5C 220.298,485.183 216.298,485.517 212.5,486.5C 212.5,490.5 212.5,494.5 212.5,498.5C 208.167,498.5 203.833,498.5 199.5,498.5C 199.5,494.167 199.5,489.833 199.5,485.5C 203.5,485.5 207.5,485.5 211.5,485.5C 211.5,481.5 211.5,477.5 211.5,473.5C 215.833,473.5 220.167,473.5 224.5,473.5 Z"/></g>
<g><path style="opacity:1" fill="#c7c7c7" d="M 186.5,473.5 C 186.5,477.5 186.5,481.5 186.5,485.5C 182.5,485.5 178.5,485.5 174.5,485.5C 174.5,481.5 174.5,477.5 174.5,473.5C 178.5,473.5 182.5,473.5 186.5,473.5 Z"/></g>
<g><path style="opacity:1" fill="#c7c7c7" d="M 126.5,473.5 C 130.5,473.5 134.5,473.5 138.5,473.5C 138.5,477.5 138.5,481.5 138.5,485.5C 134.5,485.5 130.5,485.5 126.5,485.5C 126.5,481.5 126.5,477.5 126.5,473.5 Z"/></g>
<g><path style="opacity:1" fill="#c7c7c7" d="M 89.5,473.5 C 89.5,477.5 89.5,481.5 89.5,485.5C 85.5,485.5 81.5,485.5 77.5,485.5C 77.5,481.5 77.5,477.5 77.5,473.5C 81.5,473.5 85.5,473.5 89.5,473.5 Z"/></g>
<g><path style="opacity:1" fill="#c7c7c7" d="M 29.5,473.5 C 33.5,473.5 37.5,473.5 41.5,473.5C 41.5,477.5 41.5,481.5 41.5,485.5C 37.5,485.5 33.5,485.5 29.5,485.5C 29.5,481.5 29.5,477.5 29.5,473.5 Z"/></g>
<g><path style="opacity:1" fill="#adadad" d="M 434.5,582.5 C 438.5,582.5 442.5,582.5 446.5,582.5C 446.5,586.5 446.5,590.5 446.5,594.5C 442.5,594.5 438.5,594.5 434.5,594.5C 434.5,590.5 434.5,586.5 434.5,582.5 Z"/></g>
<g><path style="opacity:1" fill="#adadad" d="M 16.5,582.5 C 20.5,582.5 24.5,582.5 28.5,582.5C 28.5,586.5 28.5,590.5 28.5,594.5C 24.5,594.5 20.5,594.5 16.5,594.5C 16.5,590.5 16.5,586.5 16.5,582.5 Z"/></g>
<g><path style="opacity:1" fill="#acacac" d="M 77.5,582.5 C 81.5,582.5 85.5,582.5 89.5,582.5C 89.5,578.5 89.5,574.5 89.5,570.5C 85.5,570.5 81.5,570.5 77.5,570.5C 77.5,574.5 77.5,578.5 77.5,582.5 Z"/></g>
<g><path style="opacity:1" fill="#adadad" d="M 174.5,582.5 C 178.5,582.5 182.5,582.5 186.5,582.5C 186.5,578.5 186.5,574.5 186.5,570.5C 182.5,570.5 178.5,570.5 174.5,570.5C 174.5,574.5 174.5,578.5 174.5,582.5 Z"/></g>
<g><path style="opacity:1" fill="#adadad" d="M 199.5,582.5 C 203.5,582.5 207.5,582.5 211.5,582.5C 211.5,586.5 211.5,590.5 211.5,594.5C 207.5,594.5 203.5,594.5 199.5,594.5C 199.5,590.5 199.5,586.5 199.5,582.5 Z"/></g>
<g><path style="opacity:1" fill="#acacac" d="M 260.5,582.5 C 264.5,582.5 268.5,582.5 272.5,582.5C 272.5,578.5 272.5,574.5 272.5,570.5C 268.5,570.5 264.5,570.5 260.5,570.5C 260.5,574.5 260.5,578.5 260.5,582.5 Z"/></g>
<g><path style="opacity:1" fill="#adadad" d="M 337.5,582.5 C 341.5,582.5 345.5,582.5 349.5,582.5C 349.5,586.5 349.5,590.5 349.5,594.5C 345.5,594.5 341.5,594.5 337.5,594.5C 337.5,590.5 337.5,586.5 337.5,582.5 Z"/></g>
<g><path style="opacity:1" fill="#acacac" d="M 398.5,582.5 C 402.5,582.5 406.5,582.5 410.5,582.5C 410.5,578.5 410.5,574.5 410.5,570.5C 406.5,570.5 402.5,570.5 398.5,570.5C 398.5,574.5 398.5,578.5 398.5,582.5 Z"/></g>
<g><path style="opacity:1" fill="#adadad" d="M 495.5,582.5 C 499.5,582.5 503.5,582.5 507.5,582.5C 507.5,578.5 507.5,574.5 507.5,570.5C 503.5,570.5 499.5,570.5 495.5,570.5C 495.5,574.5 495.5,578.5 495.5,582.5 Z"/></g>
<g><path style="opacity:1" fill="#c7c7c7" d="M 4.5,606.5 C 8.5,606.5 12.5,606.5 16.5,606.5C 16.5,610.5 16.5,614.5 16.5,618.5C 12.5,618.5 8.5,618.5 4.5,618.5C 4.5,614.5 4.5,610.5 4.5,606.5 Z"/></g>
<g><path style="opacity:1" fill="#c8c8c8" d="M 53.5,606.5 C 57.5,606.5 61.5,606.5 65.5,606.5C 65.5,610.5 65.5,614.5 65.5,618.5C 61.5,618.5 57.5,618.5 53.5,618.5C 53.5,614.5 53.5,610.5 53.5,606.5 Z"/></g>
<g><path style="opacity:1" fill="#c8c8c8" d="M 101.5,606.5 C 105.5,606.5 109.5,606.5 113.5,606.5C 113.5,610.5 113.5,614.5 113.5,618.5C 109.5,618.5 105.5,618.5 101.5,618.5C 101.5,614.5 101.5,610.5 101.5,606.5 Z"/></g>
<g><path style="opacity:1" fill="#c8c8c8" d="M 150.5,606.5 C 154.5,606.5 158.5,606.5 162.5,606.5C 162.5,610.5 162.5,614.5 162.5,618.5C 158.5,618.5 154.5,618.5 150.5,618.5C 150.5,614.5 150.5,610.5 150.5,606.5 Z"/></g>
<g><path style="opacity:1" fill="#c7c7c7" d="M 187.5,606.5 C 191.5,606.5 195.5,606.5 199.5,606.5C 199.5,610.5 199.5,614.5 199.5,618.5C 195.5,618.5 191.5,618.5 187.5,618.5C 187.5,614.5 187.5,610.5 187.5,606.5 Z"/></g>
<g><path style="opacity:1" fill="#c8c8c8" d="M 236.5,606.5 C 240.5,606.5 244.5,606.5 248.5,606.5C 248.5,610.5 248.5,614.5 248.5,618.5C 244.5,618.5 240.5,618.5 236.5,618.5C 236.5,614.5 236.5,610.5 236.5,606.5 Z"/></g>
<g><path style="opacity:1" fill="#c8c8c8" d="M 284.5,606.5 C 288.5,606.5 292.5,606.5 296.5,606.5C 296.5,610.5 296.5,614.5 296.5,618.5C 292.5,618.5 288.5,618.5 284.5,618.5C 284.5,614.5 284.5,610.5 284.5,606.5 Z"/></g>
<g><path style="opacity:1" fill="#c7c7c7" d="M 325.5,606.5 C 329.5,606.5 333.5,606.5 337.5,606.5C 337.5,610.5 337.5,614.5 337.5,618.5C 333.5,618.5 329.5,618.5 325.5,618.5C 325.5,614.5 325.5,610.5 325.5,606.5 Z"/></g>
<g><path style="opacity:1" fill="#c8c8c8" d="M 374.5,606.5 C 378.5,606.5 382.5,606.5 386.5,606.5C 386.5,610.5 386.5,614.5 386.5,618.5C 382.5,618.5 378.5,618.5 374.5,618.5C 374.5,614.5 374.5,610.5 374.5,606.5 Z"/></g>
<g><path style="opacity:1" fill="#c8c8c8" d="M 422.5,606.5 C 426.5,606.5 430.5,606.5 434.5,606.5C 434.5,610.5 434.5,614.5 434.5,618.5C 430.5,618.5 426.5,618.5 422.5,618.5C 422.5,614.5 422.5,610.5 422.5,606.5 Z"/></g>
<g><path style="opacity:1" fill="#c8c8c8" d="M 471.5,606.5 C 475.5,606.5 479.5,606.5 483.5,606.5C 483.5,610.5 483.5,614.5 483.5,618.5C 479.5,618.5 475.5,618.5 471.5,618.5C 471.5,614.5 471.5,610.5 471.5,606.5 Z"/></g>
</svg>
