<?xml version="1.0" encoding="UTF-8"?>
<!DOCTYPE svg PUBLIC "-//W3C//DTD SVG 1.1//EN" "http://www.w3.org/Graphics/SVG/1.1/DTD/svg11.dtd">
<svg xmlns="http://www.w3.org/2000/svg" version="1.1" width="700px" height="500px" style="shape-rendering:geometricPrecision; text-rendering:geometricPrecision; image-rendering:optimizeQuality; fill-rule:evenodd; clip-rule:evenodd" xmlns:xlink="http://www.w3.org/1999/xlink">
<g><path style="opacity:1" fill="#fefefe" d="M -0.5,-0.5 C 232.833,-0.5 466.167,-0.5 699.5,-0.5C 699.5,166.167 699.5,332.833 699.5,499.5C 483.833,499.5 268.167,499.5 52.5,499.5C 49.5549,472.286 47.7215,444.952 47,417.5C 42.9365,411.764 39.2698,405.764 36,399.5C 27.1934,369.531 22.1934,338.864 21,307.5C 18.3734,291.12 15.3734,274.787 12,258.5C 11.1679,249.149 11.3346,239.816 12.5,230.5C 17.4131,233.118 21.7465,236.452 25.5,240.5C 26.7481,239.96 27.9148,239.293 29,238.5C 29.3333,233.5 29.6667,228.5 30,223.5C 30.7713,226.859 31.6047,230.192 32.5,233.5C 39.3512,235.197 44.5179,232.863 48,226.5C 51.3666,230.947 55.7,233.947 61,235.5C 63.9152,234.917 65.9152,233.25 67,230.5C 69.947,238.288 71.947,246.288 73,254.5C 76.1396,258.942 78.3063,263.775 79.5,269C 75.1309,285.109 70.9643,301.275 67,317.5C 63.2191,334.977 61.8857,352.644 63,370.5C 64.6543,376.643 67.4877,382.143 71.5,387C 77.5,391 83.5,395 89.5,399C 109.613,409.151 130.613,417.151 152.5,423C 185.758,437.975 220.091,449.975 255.5,459C 276.5,459.667 297.5,459.667 318.5,459C 364.729,452.603 410.729,445.269 456.5,437C 465.742,433.022 475.076,429.022 484.5,425C 489.02,421.464 492.186,416.964 494,411.5C 501,403.167 508.667,395.5 517,388.5C 520.231,382.601 524.231,377.268 529,372.5C 542.137,350.674 546.47,327.007 542,301.5C 538.818,288.947 532.818,277.947 524,268.5C 523.066,263.917 524.9,262.417 529.5,264C 535.05,267.978 541.05,268.978 547.5,267C 548,266.5 548.5,266 549,265.5C 549.333,259.167 549.667,252.833 550,246.5C 550.388,245.572 551.055,244.905 552,244.5C 555.063,244.929 556.897,246.596 557.5,249.5C 556.278,256.502 556.278,263.502 557.5,270.5C 558.293,270.931 559.127,271.265 560,271.5C 569.927,267.907 576.927,261.24 581,251.5C 582.739,249.259 584.906,247.592 587.5,246.5C 588.614,247.723 588.781,249.056 588,250.5C 585.52,256.736 583.186,263.069 581,269.5C 580.502,272.817 580.335,276.15 580.5,279.5C 582.604,279.799 584.604,279.466 586.5,278.5C 589.131,275.104 591.298,271.438 593,267.5C 594.011,266.663 595.178,266.33 596.5,266.5C 594.921,276.813 592.087,286.813 588,296.5C 587.667,302.5 587.333,308.5 587,314.5C 582.584,322.333 577.918,330 573,337.5C 564.24,355.354 555.24,373.021 546,390.5C 537.917,400.909 530.25,411.576 523,422.5C 514.36,431.14 505.694,439.806 497,448.5C 491.745,463.672 485.412,478.339 478,492.5C 477.551,498.445 479.885,499.779 485,496.5C 485.317,492.201 486.983,488.535 490,485.5C 494.661,474.177 499.327,462.843 504,451.5C 512.991,442.209 521.991,432.875 531,423.5C 536.802,412.692 543.802,402.692 552,393.5C 561,375.5 570,357.5 579,339.5C 583.431,332.294 588.097,325.294 593,318.5C 593.333,311.167 593.667,303.833 594,296.5C 599.68,285.83 602.346,274.496 602,262.5C 601.5,262 601,261.5 600.5,261C 597.556,260.03 594.556,259.196 591.5,258.5C 594.173,253.104 595.006,247.437 594,241.5C 583.866,238.931 576.866,242.598 573,252.5C 570.263,254.452 568.096,256.952 566.5,260C 565.207,260.49 563.873,260.657 562.5,260.5C 563.409,254.522 563.575,248.522 563,242.5C 559.404,240.114 555.57,238.448 551.5,237.5C 550.167,237.667 548.833,237.833 547.5,238C 546.333,239.833 545.167,241.667 544,243.5C 543.501,249.491 543.334,255.491 543.5,261.5C 537.818,260.135 532.152,258.802 526.5,257.5C 524.5,257.667 522.5,257.833 520.5,258C 520,258.5 519.5,259 519,259.5C 512.711,252.043 505.877,245.043 498.5,238.5C 497.614,237.675 497.281,236.675 497.5,235.5C 506.164,234.084 514.498,231.584 522.5,228C 534.987,222.256 547.32,216.256 559.5,210C 567.432,204.072 574.765,197.405 581.5,190C 588.772,185.781 595.605,180.948 602,175.5C 603.667,173.167 605.333,170.833 607,168.5C 608.891,158.92 610.225,149.253 611,139.5C 611.838,133.332 613.671,127.498 616.5,122C 616.054,119.249 614.387,117.582 611.5,117C 599.279,112.394 586.945,108.394 574.5,105C 541.318,103.571 508.318,105.237 475.5,110C 464.517,113.338 454.184,118.005 444.5,124C 427.091,136.358 409.758,148.691 392.5,161C 388.187,163.3 383.853,165.633 379.5,168C 377.649,169.684 375.982,171.517 374.5,173.5C 363.154,169.327 352.487,163.827 342.5,157C 338.026,155.592 333.693,153.925 329.5,152C 320.453,144.973 310.119,142.307 298.5,144C 296.167,145.667 293.833,147.333 291.5,149C 278.167,149.333 264.833,149.667 251.5,150C 235.609,152.471 219.609,153.137 203.5,152C 195.052,139.616 187.219,126.783 180,113.5C 175.117,102.082 171.117,90.4157 168,78.5C 166.374,76.0829 164.874,73.5829 163.5,71C 155.595,66.4461 147.262,62.7795 138.5,60C 127.918,54.2113 116.918,49.2113 105.5,45C 98.1175,44.486 90.7842,43.6527 83.5,42.5C 79.0599,41.7042 75.5599,43.0375 73,46.5C 72.6667,49.5 72.3333,52.5 72,55.5C 67.0769,65.0137 62.4102,74.6804 58,84.5C 55.5333,104.757 54.8667,125.09 56,145.5C 57.0217,146.354 57.8551,147.354 58.5,148.5C 55.7873,158.313 54.954,168.313 56,178.5C 57.733,184.561 60.733,189.895 65,194.5C 70.4969,204.831 76.4969,214.831 83,224.5C 85.5246,227.019 88.358,229.186 91.5,231C 89.3333,233.833 87.1667,236.667 85,239.5C 83.4848,243.897 81.8181,248.23 80,252.5C 77.4176,242.337 74.9176,232.171 72.5,222C 66.7992,220.435 62.6326,222.268 60,227.5C 55.329,224.822 52.6623,220.822 52,215.5C 50,214.167 48,214.167 46,215.5C 44.82,220.537 42.1533,224.537 38,227.5C 37,224.5 36,221.5 35,218.5C 31.3333,215.833 27.6667,215.833 24,218.5C 23.6667,222.167 23.3333,225.833 23,229.5C 19.6581,227.083 16.1581,225.083 12.5,223.5C 9.42559,223.45 7.25893,224.783 6,227.5C 5.33333,238.5 5.33333,249.5 6,260.5C 12.7934,288.054 16.7934,316.054 18,344.5C 19.7597,355.818 21.4264,367.151 23,378.5C 25.8592,386.745 28.5258,395.078 31,403.5C 35.1127,409.391 38.4461,415.724 41,422.5C 41.808,448.271 43.6413,473.937 46.5,499.5C 30.8333,499.5 15.1667,499.5 -0.5,499.5C -0.5,332.833 -0.5,166.167 -0.5,-0.5 Z"/></g>
<g><path style="opacity:1" fill="#ff0603" d="M 463.5,5.5 C 465.5,5.5 467.5,5.5 469.5,5.5C 471.051,15.4087 471.718,25.4087 471.5,35.5C 469.5,35.5 467.5,35.5 465.5,35.5C 465.157,25.4683 464.49,15.4683 463.5,5.5 Z"/></g>
<g><path style="opacity:1" fill="#ff0101" d="M 174.5,13.5 C 176.5,13.5 178.5,13.5 180.5,13.5C 180.5,27.1667 180.5,40.8333 180.5,54.5C 192.533,54.2577 204.533,54.7577 216.5,56C 217.406,57.6995 217.739,59.5328 217.5,61.5C 203.305,60.452 189.305,60.452 175.5,61.5C 174.501,45.5139 174.167,29.5139 174.5,13.5 Z"/></g>
<g><path style="opacity:1" fill="#ff0603" d="M 426.5,13.5 C 429.5,13.5 432.5,13.5 435.5,13.5C 436.167,24.5021 437,35.5021 438,46.5C 440.951,49.1715 442.117,52.5048 441.5,56.5C 439.396,56.7989 437.396,56.4656 435.5,55.5C 434.333,53.8333 433.167,52.1667 432,50.5C 431.167,40.5 430.333,30.5 429.5,20.5C 424.368,23.9709 420.701,28.6376 418.5,34.5C 417.833,34.8333 417.167,35.1667 416.5,35.5C 408.59,32.5452 401.257,28.5452 394.5,23.5C 393.499,36.6375 394.832,49.4709 398.5,62C 398.233,65.1642 396.567,66.1642 393.5,65C 391.962,63.0679 390.795,60.9012 390,58.5C 387.939,44.2441 387.105,29.9107 387.5,15.5C 390.91,15.4571 394.243,15.9571 397.5,17C 402.201,21.1941 407.534,24.3608 413.5,26.5C 417.521,21.8123 421.854,17.479 426.5,13.5 Z"/></g>
<g><path style="opacity:1" fill="#ff0503" d="M 251.5,24.5 C 257.845,24.6527 264.178,24.986 270.5,25.5C 271.029,28.6041 270.029,30.9375 267.5,32.5C 263.489,31.2074 259.489,30.8741 255.5,31.5C 253.601,37.7796 251.101,43.7796 248,49.5C 246.019,56.0498 245.352,62.7165 246,69.5C 246.833,70.3333 247.667,71.1667 248.5,72C 254.681,74.4652 261.014,75.7985 267.5,76C 273.215,72.8864 276.381,68.053 277,61.5C 277.903,60.2986 279.069,59.4652 280.5,59C 276.11,58.2278 271.777,58.3945 267.5,59.5C 264.971,57.9375 263.971,55.6041 264.5,52.5C 271.175,52.3337 277.842,52.5004 284.5,53C 285.416,53.3742 286.25,53.8742 287,54.5C 287.116,62.8277 286.95,71.1611 286.5,79.5C 284.5,79.5 282.5,79.5 280.5,79.5C 280.662,77.4727 280.495,75.4727 280,73.5C 274.863,82.1291 267.363,84.9625 257.5,82C 251.968,80.6036 246.801,78.4369 242,75.5C 240.025,71.9461 239.192,68.1128 239.5,64C 239.603,59.4548 240.103,54.9548 241,50.5C 244.503,41.8089 248.003,33.1422 251.5,24.5 Z"/></g>
<g><path style="opacity:1" fill="#ff0904" d="M 342.5,33.5 C 347.179,33.3342 351.845,33.5008 356.5,34C 359.439,36.9733 359.105,39.4733 355.5,41.5C 350.524,40.3619 345.524,40.3619 340.5,41.5C 340.078,53.2119 339.078,64.8786 337.5,76.5C 336.167,77.8333 334.833,77.8333 333.5,76.5C 333.167,73.5 332.833,70.5 332.5,67.5C 333.356,58.5108 334.022,49.5108 334.5,40.5C 327.442,40.203 320.442,40.5363 313.5,41.5C 310.971,39.9375 309.971,37.6041 310.5,34.5C 321.346,34.8278 332.013,34.4944 342.5,33.5 Z"/></g>
<g><path style="opacity:1" fill="#0e0e0e" d="M 52.5,499.5 C 50.5,499.5 48.5,499.5 46.5,499.5C 43.6413,473.937 41.808,448.271 41,422.5C 38.4461,415.724 35.1127,409.391 31,403.5C 28.5258,395.078 25.8592,386.745 23,378.5C 21.4264,367.151 19.7597,355.818 18,344.5C 16.7934,316.054 12.7934,288.054 6,260.5C 5.33333,249.5 5.33333,238.5 6,227.5C 7.25893,224.783 9.42559,223.45 12.5,223.5C 16.1581,225.083 19.6581,227.083 23,229.5C 23.3333,225.833 23.6667,222.167 24,218.5C 27.6667,215.833 31.3333,215.833 35,218.5C 36,221.5 37,224.5 38,227.5C 42.1533,224.537 44.82,220.537 46,215.5C 48,214.167 50,214.167 52,215.5C 52.6623,220.822 55.329,224.822 60,227.5C 62.6326,222.268 66.7992,220.435 72.5,222C 74.9176,232.171 77.4176,242.337 80,252.5C 81.8181,248.23 83.4848,243.897 85,239.5C 87.1667,236.667 89.3333,233.833 91.5,231C 88.358,229.186 85.5246,227.019 83,224.5C 76.4969,214.831 70.4969,204.831 65,194.5C 60.733,189.895 57.733,184.561 56,178.5C 54.954,168.313 55.7873,158.313 58.5,148.5C 57.8551,147.354 57.0217,146.354 56,145.5C 54.8667,125.09 55.5333,104.757 58,84.5C 62.4102,74.6804 67.0769,65.0137 72,55.5C 72.3333,52.5 72.6667,49.5 73,46.5C 75.5599,43.0375 79.0599,41.7042 83.5,42.5C 90.7842,43.6527 98.1175,44.486 105.5,45C 116.918,49.2113 127.918,54.2113 138.5,60C 147.262,62.7795 155.595,66.4461 163.5,71C 164.874,73.5829 166.374,76.0829 168,78.5C 171.117,90.4157 175.117,102.082 180,113.5C 187.219,126.783 195.052,139.616 203.5,152C 219.609,153.137 235.609,152.471 251.5,150C 264.833,149.667 278.167,149.333 291.5,149C 293.833,147.333 296.167,145.667 298.5,144C 310.119,142.307 320.453,144.973 329.5,152C 333.693,153.925 338.026,155.592 342.5,157C 352.487,163.827 363.154,169.327 374.5,173.5C 375.982,171.517 377.649,169.684 379.5,168C 383.853,165.633 388.187,163.3 392.5,161C 409.758,148.691 427.091,136.358 444.5,124C 454.184,118.005 464.517,113.338 475.5,110C 508.318,105.237 541.318,103.571 574.5,105C 586.945,108.394 599.279,112.394 611.5,117C 614.387,117.582 616.054,119.249 616.5,122C 613.671,127.498 611.838,133.332 611,139.5C 610.225,149.253 608.891,158.92 607,168.5C 605.333,170.833 603.667,173.167 602,175.5C 595.605,180.948 588.772,185.781 581.5,190C 574.765,197.405 567.432,204.072 559.5,210C 547.32,216.256 534.987,222.256 522.5,228C 514.498,231.584 506.164,234.084 497.5,235.5C 497.281,236.675 497.614,237.675 498.5,238.5C 505.877,245.043 512.711,252.043 519,259.5C 519.5,259 520,258.5 520.5,258C 522.5,257.833 524.5,257.667 526.5,257.5C 532.152,258.802 537.818,260.135 543.5,261.5C 543.334,255.491 543.501,249.491 544,243.5C 545.167,241.667 546.333,239.833 547.5,238C 548.833,237.833 550.167,237.667 551.5,237.5C 555.57,238.448 559.404,240.114 563,242.5C 563.575,248.522 563.409,254.522 562.5,260.5C 563.873,260.657 565.207,260.49 566.5,260C 568.096,256.952 570.263,254.452 573,252.5C 576.866,242.598 583.866,238.931 594,241.5C 595.006,247.437 594.173,253.104 591.5,258.5C 594.556,259.196 597.556,260.03 600.5,261C 601,261.5 601.5,262 602,262.5C 602.346,274.496 599.68,285.83 594,296.5C 593.667,303.833 593.333,311.167 593,318.5C 588.097,325.294 583.431,332.294 579,339.5C 570,357.5 561,375.5 552,393.5C 543.802,402.692 536.802,412.692 531,423.5C 521.991,432.875 512.991,442.209 504,451.5C 499.327,462.843 494.661,474.177 490,485.5C 486.983,488.535 485.317,492.201 485,496.5C 479.885,499.779 477.551,498.445 478,492.5C 485.412,478.339 491.745,463.672 497,448.5C 505.694,439.806 514.36,431.14 523,422.5C 530.25,411.576 537.917,400.909 546,390.5C 555.24,373.021 564.24,355.354 573,337.5C 577.918,330 582.584,322.333 587,314.5C 587.333,308.5 587.667,302.5 588,296.5C 592.087,286.813 594.921,276.813 596.5,266.5C 595.178,266.33 594.011,266.663 593,267.5C 591.298,271.438 589.131,275.104 586.5,278.5C 584.604,279.466 582.604,279.799 580.5,279.5C 580.335,276.15 580.502,272.817 581,269.5C 583.186,263.069 585.52,256.736 588,250.5C 588.781,249.056 588.614,247.723 587.5,246.5C 584.906,247.592 582.739,249.259 581,251.5C 576.927,261.24 569.927,267.907 560,271.5C 559.127,271.265 558.293,270.931 557.5,270.5C 556.278,263.502 556.278,256.502 557.5,249.5C 556.897,246.596 555.063,244.929 552,244.5C 551.055,244.905 550.388,245.572 550,246.5C 549.667,252.833 549.333,259.167 549,265.5C 548.5,266 548,266.5 547.5,267C 541.05,268.978 535.05,267.978 529.5,264C 524.9,262.417 523.066,263.917 524,268.5C 532.818,277.947 538.818,288.947 542,301.5C 546.47,327.007 542.137,350.674 529,372.5C 524.231,377.268 520.231,382.601 517,388.5C 508.667,395.5 501,403.167 494,411.5C 492.186,416.964 489.02,421.464 484.5,425C 475.076,429.022 465.742,433.022 456.5,437C 410.729,445.269 364.729,452.603 318.5,459C 297.5,459.667 276.5,459.667 255.5,459C 220.091,449.975 185.758,437.975 152.5,423C 130.613,417.151 109.613,409.151 89.5,399C 83.5,395 77.5,391 71.5,387C 67.4877,382.143 64.6543,376.643 63,370.5C 61.8857,352.644 63.2191,334.977 67,317.5C 70.9643,301.275 75.1309,285.109 79.5,269C 78.3063,263.775 76.1396,258.942 73,254.5C 71.947,246.288 69.947,238.288 67,230.5C 65.9152,233.25 63.9152,234.917 61,235.5C 55.7,233.947 51.3666,230.947 48,226.5C 44.5179,232.863 39.3512,235.197 32.5,233.5C 31.6047,230.192 30.7713,226.859 30,223.5C 29.6667,228.5 29.3333,233.5 29,238.5C 27.9148,239.293 26.7481,239.96 25.5,240.5C 21.7465,236.452 17.4131,233.118 12.5,230.5C 11.3346,239.816 11.1679,249.149 12,258.5C 15.3734,274.787 18.3734,291.12 21,307.5C 22.1934,338.864 27.1934,369.531 36,399.5C 39.2698,405.764 42.9365,411.764 47,417.5C 47.7215,444.952 49.5549,472.286 52.5,499.5 Z"/></g>
<g><path style="opacity:1" fill="#ff190f" d="M 467.5,47.5 C 472.241,47.1614 473.574,49.1614 471.5,53.5C 468.849,54.8416 467.182,54.0083 466.5,51C 466.648,49.7441 466.982,48.5774 467.5,47.5 Z"/></g>
<g><path style="opacity:1" fill="#7e00fe" d="M 121.5,58.5 C 121.5,59.1667 121.167,59.5 120.5,59.5C 111.986,57.2893 103.319,55.9559 94.5,55.5C 94.5,54.5 94.5,53.5 94.5,52.5C 89.193,52.1045 84.193,51.2712 79.5,50C 85.5814,49.3746 91.5814,49.8746 97.5,51.5C 99.1667,50.8333 100.833,50.1667 102.5,49.5C 104.452,50.2083 106.119,51.375 107.5,53C 112.29,54.5631 116.956,56.3964 121.5,58.5 Z"/></g>
<g><path style="opacity:1" fill="#ff7f00" d="M 77.5,57.5 C 82.7671,58.1847 87.7671,59.6847 92.5,62C 102.006,62.7722 111.34,64.4388 120.5,67C 124,69.1667 126.833,72 129,75.5C 131.242,92.7498 132.575,110.083 133,127.5C 135.171,143.716 137.338,159.883 139.5,176C 134.646,180.886 130.146,186.053 126,191.5C 114.949,201.551 104.949,212.551 96,224.5C 93.1261,223.468 91.6261,221.468 91.5,218.5C 87.8527,218.378 85.0194,216.712 83,213.5C 78.1286,202.857 72.1286,192.857 65,183.5C 61.7686,176.85 60.7686,169.85 62,162.5C 63.3438,157.595 64.1772,152.595 64.5,147.5C 64.464,145.059 63.6307,143.059 62,141.5C 61.3333,128.167 61.3333,114.833 62,101.5C 62.7563,95.7776 63.7563,90.1109 65,84.5C 70.2231,76.0502 74.3897,67.0502 77.5,57.5 Z"/></g>
<g><path style="opacity:1" fill="#efefef" d="M 121.5,58.5 C 122.5,58.8333 123.167,59.5 123.5,60.5C 122.209,60.7373 121.209,60.404 120.5,59.5C 121.167,59.5 121.5,59.1667 121.5,58.5 Z"/></g>
<g><path style="opacity:1" fill="#7f01ff" d="M 123.5,60.5 C 131.101,64.4598 139.101,67.6265 147.5,70C 151.418,72.8773 155.585,75.3773 160,77.5C 164.451,90.5159 169.118,103.516 174,116.5C 180.973,128.284 187.807,140.117 194.5,152C 187.167,152.333 179.833,152.667 172.5,153C 162.402,157.46 153.236,163.293 145,170.5C 143.655,153.094 141.655,135.76 139,118.5C 138.78,104.438 137.78,90.4377 136,76.5C 135.158,73.3111 133.825,70.3111 132,67.5C 128.977,65.3024 126.144,62.969 123.5,60.5 Z"/></g>
<g><path style="opacity:1" fill="#7e00ff" d="M 529.5,111.5 C 545.17,111.333 560.837,111.5 576.5,112C 587.251,115.252 597.917,118.752 608.5,122.5C 608.778,124.346 608.111,125.68 606.5,126.5C 597.176,125.244 587.843,125.411 578.5,127C 562.663,132.278 546.997,137.945 531.5,144C 526.563,145.085 521.563,145.752 516.5,146C 510.126,148.927 503.46,150.927 496.5,152C 492.047,153.814 487.714,155.814 483.5,158C 473.678,165.328 464.344,173.162 455.5,181.5C 450.801,184.181 446.135,186.847 441.5,189.5C 438.779,187.473 435.779,185.973 432.5,185C 416.48,182.129 400.48,179.129 384.5,176C 391.986,168.307 400.986,161.64 411.5,156C 428.056,143.098 445.39,131.431 463.5,121C 470.906,117.975 478.573,115.975 486.5,115C 500.928,113.194 515.261,112.027 529.5,111.5 Z"/></g>
<g><path style="opacity:1" fill="#ff7f00" d="M 588.5,132.5 C 593.844,132.334 599.177,132.501 604.5,133C 605.022,133.561 605.355,134.228 605.5,135C 604.029,142.081 603.196,149.248 603,156.5C 602.123,165.712 597.623,172.545 589.5,177C 586.167,179 582.833,181 579.5,183C 573.158,190.341 566.158,197.008 558.5,203C 542.531,211.435 526.198,219.101 509.5,226C 503.537,227.858 497.537,229.191 491.5,230C 479.45,220.283 467.117,210.949 454.5,202C 452.402,199.146 450.069,196.479 447.5,194C 451.674,191.412 456.007,189.079 460.5,187C 468.522,178.648 477.188,170.981 486.5,164C 501.339,157.791 516.673,153.458 532.5,151C 550.543,142.805 569.209,136.638 588.5,132.5 Z"/></g>
<g><path style="opacity:1" fill="#fefefe" d="M 301.5,149.5 C 306.481,150.089 311.481,150.589 316.5,151C 324.833,155.896 333.5,160.229 342.5,164C 352.575,171.394 363.575,177.061 375.5,181C 393.533,184.34 411.533,187.674 429.5,191C 438.16,194.162 445.16,199.496 450.5,207C 462.601,215.468 474.435,224.301 486,233.5C 493.143,241.976 501.143,249.976 510,257.5C 514.56,265.393 519.893,272.727 526,279.5C 529.345,286.84 532.679,294.173 536,301.5C 536.667,314.833 536.667,328.167 536,341.5C 532.932,350.466 529.265,359.133 525,367.5C 514.074,381.096 502.408,394.096 490,406.5C 487.19,411.3 484.023,415.8 480.5,420C 461.808,429.878 441.808,435.211 420.5,436C 401.026,440.635 381.359,444.302 361.5,447C 347.1,448.533 332.767,450.533 318.5,453C 298.167,453.667 277.833,453.667 257.5,453C 251.5,451.667 245.5,450.333 239.5,449C 224.169,444.223 208.835,439.223 193.5,434C 168.907,422.513 143.573,412.846 117.5,405C 108.864,401.017 100.197,397.017 91.5,393C 85.4333,389.441 79.7666,385.275 74.5,380.5C 71.8619,376.889 70.0285,372.889 69,368.5C 68.0554,351.331 69.3888,334.331 73,317.5C 79.9203,293.822 85.2537,269.822 89,245.5C 95.9353,234.632 103.602,224.298 112,214.5C 121.012,206.153 129.346,197.153 137,187.5C 144.218,180.943 151.385,174.443 158.5,168C 164.167,165 169.833,162 175.5,159C 199.191,158.186 222.857,158.353 246.5,159.5C 248.755,157.628 251.422,156.461 254.5,156C 267.833,155.667 281.167,155.333 294.5,155C 297.02,153.303 299.353,151.47 301.5,149.5 Z"/></g>
<g><path style="opacity:1" fill="#0c0c0c" d="M 203.5,217.5 C 208.287,216.97 212.62,218.137 216.5,221C 222.504,228.556 230.17,233.556 239.5,236C 241.438,238.568 242.271,241.402 242,244.5C 240.933,245.191 239.766,245.691 238.5,246C 222.674,247.074 207.007,246.074 191.5,243C 190.39,240.263 190.223,237.429 191,234.5C 195.65,229.206 199.816,223.539 203.5,217.5 Z"/></g>
<g><path style="opacity:1" fill="#0e0e0e" d="M 360.5,219.5 C 366.509,219.334 372.509,219.501 378.5,220C 389.117,221.827 392.617,227.994 389,238.5C 386.784,242.027 383.617,244.194 379.5,245C 365.425,245.662 351.425,244.995 337.5,243C 336.446,241.612 336.28,240.112 337,238.5C 343.598,230.378 351.431,224.045 360.5,219.5 Z"/></g>
<g><path style="opacity:1" fill="#7e00ff" d="M 207.5,224.5 C 209.308,224.491 210.975,224.991 212.5,226C 217.472,232.655 223.805,237.322 231.5,240C 220.035,240.633 208.701,239.8 197.5,237.5C 200.857,233.148 204.191,228.815 207.5,224.5 Z"/></g>
<g><path style="opacity:1" fill="#7e00ff" d="M 362.5,226.5 C 369.241,226.171 375.908,226.671 382.5,228C 385.183,234.245 383.183,237.911 376.5,239C 366.82,239.377 357.153,239.044 347.5,238C 351.522,232.801 356.522,228.968 362.5,226.5 Z"/></g>
<g><path style="opacity:1" fill="#060606" d="M 162.5,248.5 C 175.504,248.333 188.504,248.5 201.5,249C 205.325,251.384 209.325,253.384 213.5,255C 217.738,260.036 220.238,265.869 221,272.5C 222.414,282.806 221.414,292.806 218,302.5C 213.679,307.485 210.179,312.985 207.5,319C 189.094,322.463 170.427,323.463 151.5,322C 137.311,316.813 129.478,306.646 128,291.5C 123.992,276.488 127.825,264.322 139.5,255C 143.518,254.081 147.185,252.414 150.5,250C 154.688,249.824 158.688,249.324 162.5,248.5 Z"/></g>
<g><path style="opacity:1" fill="#fdfdfd" d="M 165.5,254.5 C 176.505,254.333 187.505,254.5 198.5,255C 203.477,257.1 207.977,259.934 212,263.5C 216.561,275.602 216.561,287.602 212,299.5C 209.001,303.678 206.167,308.011 203.5,312.5C 199.456,313.713 195.456,314.879 191.5,316C 178.833,316.667 166.167,316.667 153.5,316C 147.204,313.706 142.037,309.872 138,304.5C 136.942,299.448 135.609,294.448 134,289.5C 133.333,283.833 133.333,278.167 134,272.5C 136.448,268.385 139.281,264.552 142.5,261C 146.538,260.101 150.205,258.434 153.5,256C 157.688,255.824 161.688,255.324 165.5,254.5 Z"/></g>
<g><path style="opacity:1" fill="#060606" d="M 371.5,258.5 C 381.839,258.334 392.172,258.5 402.5,259C 406.953,260.882 411.619,262.215 416.5,263C 419.266,264.467 421.766,266.3 424,268.5C 427.855,274.21 431.188,280.21 434,286.5C 435.092,293.502 434.092,300.168 431,306.5C 426.166,312.354 421.333,318.187 416.5,324C 406.646,325.347 397.146,327.513 388,330.5C 376.884,328.388 365.718,326.555 354.5,325C 348.708,324.043 344.875,320.876 343,315.5C 342.333,303.833 342.333,292.167 343,280.5C 346.66,273.491 351.16,266.991 356.5,261C 361.706,260.563 366.706,259.73 371.5,258.5 Z"/></g>
<g><path style="opacity:1" fill="#0a0a0a" d="M 169.5,261.5 C 175.509,261.334 181.509,261.501 187.5,262C 191.667,265.5 195.5,269.333 199,273.5C 200.434,284.864 197.267,294.697 189.5,303C 181.697,301.848 173.697,301.181 165.5,301C 158.868,300.364 154.702,296.864 153,290.5C 152.333,284.5 152.333,278.5 153,272.5C 155.14,270.36 157.306,268.194 159.5,266C 163.042,264.725 166.375,263.225 169.5,261.5 Z"/></g>
<g><path style="opacity:1" fill="#fbfbfb" d="M 374.5,264.5 C 382.84,264.334 391.173,264.5 399.5,265C 402.957,266.743 406.623,267.743 410.5,268C 413.112,268.639 415.446,269.806 417.5,271.5C 422.874,277.414 426.54,284.247 428.5,292C 428,294.5 427.5,297 427,299.5C 423.283,304.222 419.95,309.222 417,314.5C 415.075,315.88 413.241,317.38 411.5,319C 404.454,319.674 397.454,320.674 390.5,322C 389.774,323.397 388.607,324.231 387,324.5C 376.856,322.421 366.69,320.588 356.5,319C 353.966,318.484 351.8,317.317 350,315.5C 348.383,305.266 348.05,294.933 349,284.5C 351.62,278.086 355.12,272.253 359.5,267C 364.681,266.4 369.681,265.566 374.5,264.5 Z"/></g>
<g><path style="opacity:1" fill="#ff7f03" d="M 172.5,268.5 C 173.873,268.343 175.207,268.51 176.5,269C 175.577,271.041 175.244,273.208 175.5,275.5C 177.5,275.5 179.5,275.5 181.5,275.5C 181.756,273.208 181.423,271.041 180.5,269C 181.793,268.51 183.127,268.343 184.5,268.5C 185.239,268.369 185.906,268.536 186.5,269C 189.503,272.148 191.837,275.648 193.5,279.5C 192.689,286.119 190.022,291.786 185.5,296.5C 177.696,296.118 170.03,294.951 162.5,293C 157.864,287.141 157.364,280.975 161,274.5C 164.712,272.211 168.546,270.211 172.5,268.5 Z"/></g>
<g><path style="opacity:1" fill="#f5f1ee" d="M 172.5,268.5 C 176.5,267.167 180.5,267.167 184.5,268.5C 183.127,268.343 181.793,268.51 180.5,269C 181.423,271.041 181.756,273.208 181.5,275.5C 179.5,275.5 177.5,275.5 175.5,275.5C 175.244,273.208 175.577,271.041 176.5,269C 175.207,268.51 173.873,268.343 172.5,268.5 Z"/></g>
<g><path style="opacity:1" fill="#090909" d="M 373.5,270.5 C 381.507,270.334 389.507,270.5 397.5,271C 400.889,274.266 404.389,277.432 408,280.5C 414.728,290.607 413.562,299.773 404.5,308C 398.472,308.17 392.472,308.67 386.5,309.5C 378.967,312.848 372.134,311.515 366,305.5C 364.632,300.676 362.965,296.009 361,291.5C 360.333,287.5 360.333,283.5 361,279.5C 365.322,276.601 369.489,273.601 373.5,270.5 Z"/></g>
<g><path style="opacity:1" fill="#ff7f01" d="M 377.5,277.5 C 380.761,277.1 381.428,278.267 379.5,281C 381.5,285.667 383.5,285.667 385.5,281C 385.415,279.893 385.081,278.893 384.5,278C 387.817,277.502 391.15,277.335 394.5,277.5C 398.058,280.552 401.558,283.886 405,287.5C 406.301,289.365 406.635,291.365 406,293.5C 404.383,296.51 402.549,299.343 400.5,302C 395.833,302.333 391.167,302.667 386.5,303C 381.485,306.291 376.651,305.791 372,301.5C 370.237,296.262 368.403,291.095 366.5,286C 367.101,284.395 368.101,283.062 369.5,282C 372.592,281.146 375.259,279.646 377.5,277.5 Z"/></g>
<g><path style="opacity:1" fill="#f3eeeb" d="M 377.5,277.5 C 383.167,276.167 388.833,276.167 394.5,277.5C 391.15,277.335 387.817,277.502 384.5,278C 385.081,278.893 385.415,279.893 385.5,281C 383.5,285.667 381.5,285.667 379.5,281C 381.428,278.267 380.761,277.1 377.5,277.5 Z"/></g>
<g><path style="opacity:1" fill="#0c0c0c" d="M 270.5,316.5 C 274.514,316.334 278.514,316.501 282.5,317C 284.617,318.731 286.117,320.898 287,323.5C 287.667,327.833 287.667,332.167 287,336.5C 284.1,339.4 281.267,342.233 278.5,345C 281.519,355.102 288.352,359.935 299,359.5C 300.08,357.447 300.914,355.28 301.5,353C 303.473,352.505 305.473,352.338 307.5,352.5C 307.708,354.92 307.374,357.253 306.5,359.5C 310.33,361.312 314.33,361.812 318.5,361C 322.254,356.952 326.587,353.618 331.5,351C 333.833,348 336.167,345 338.5,342C 340.695,340.627 343.029,340.294 345.5,341C 347.138,344.903 345.804,347.403 341.5,348.5C 339.525,351.609 337.192,354.443 334.5,357C 330.142,359.513 326.142,362.513 322.5,366C 316.201,367.331 309.867,367.831 303.5,367.5C 298.34,377.825 292.673,387.825 286.5,397.5C 281.656,400.096 276.656,402.263 271.5,404C 268.833,404.667 266.167,404.667 263.5,404C 259.015,401.376 257.015,397.542 257.5,392.5C 255.516,392.617 253.85,391.95 252.5,390.5C 247.308,381.206 245.308,371.206 246.5,360.5C 244.801,360.66 243.134,360.494 241.5,360C 232.55,354.612 223.717,349.112 215,343.5C 213.92,340.763 214.754,339.096 217.5,338.5C 226.326,343.793 235.326,348.96 244.5,354C 246.167,354.667 247.833,354.667 249.5,354C 255.69,349.13 262.357,345.13 269.5,342C 262.801,341.129 260.134,337.295 261.5,330.5C 260.621,323.091 263.621,318.424 270.5,316.5 Z"/></g>
<g><path style="opacity:1" fill="#fafafa" d="M 274.5,322.5 C 279.111,322.444 281.444,324.777 281.5,329.5C 279.39,337.793 274.89,339.46 268,334.5C 267.333,331.5 267.333,328.5 268,325.5C 270.045,324.074 272.212,323.074 274.5,322.5 Z"/></g>
<g><path style="opacity:1" fill="#fe7f08" d="M 272.5,348.5 C 276.53,358.836 284.197,364.836 295.5,366.5C 292.044,375.429 287.544,383.763 282,391.5C 277.449,393.775 272.783,395.775 268,397.5C 266.795,396.929 265.628,396.262 264.5,395.5C 263.833,393.167 263.167,390.833 262.5,388.5C 253.917,381.175 250.75,371.842 253,360.5C 259.146,355.848 265.646,351.848 272.5,348.5 Z"/></g>
</svg>
