<?xml version="1.0" encoding="UTF-8"?>
<!DOCTYPE svg PUBLIC "-//W3C//DTD SVG 1.1//EN" "http://www.w3.org/Graphics/SVG/1.1/DTD/svg11.dtd">
<svg xmlns="http://www.w3.org/2000/svg" version="1.1" width="680px" height="661px" style="shape-rendering:geometricPrecision; text-rendering:geometricPrecision; image-rendering:optimizeQuality; fill-rule:evenodd; clip-rule:evenodd" xmlns:xlink="http://www.w3.org/1999/xlink">
<g><path style="opacity:0.987" fill="#fdfdfd" d="M 1.5,-0.5 C 226.5,-0.5 451.5,-0.5 676.5,-0.5C 676.5,158.5 676.5,317.5 676.5,476.5C 624.167,476.5 571.833,476.5 519.5,476.5C 519.5,475.5 519.5,474.5 519.5,473.5C 515.5,473.5 511.5,473.5 507.5,473.5C 503.5,473.5 499.5,473.5 495.5,473.5C 495.5,477.5 495.5,481.5 495.5,485.5C 491.5,485.5 487.5,485.5 483.5,485.5C 483.5,481.5 483.5,477.5 483.5,473.5C 479.167,473.5 474.833,473.5 470.5,473.5C 470.5,471.833 470.5,470.167 470.5,468.5C 471.031,466.456 472.198,464.789 474,463.5C 478.592,452.642 482.925,441.642 487,430.5C 495.897,421.692 504.564,412.692 513,403.5C 518.104,393.621 524.438,384.621 532,376.5C 541.558,358.385 550.892,340.052 560,321.5C 564.328,315.17 568.662,308.837 573,302.5C 573.333,295.5 573.667,288.5 574,281.5C 578.526,273.069 581.36,264.069 582.5,254.5C 582.333,252.5 582.167,250.5 582,248.5C 581.5,248 581,247.5 580.5,247C 577.556,246.03 574.556,245.196 571.5,244.5C 574.236,239.477 575.07,234.144 574,228.5C 570.256,227.374 566.423,227.207 562.5,228C 556.976,233.648 551.976,239.648 547.5,246C 546.207,246.49 544.873,246.657 543.5,246.5C 544.459,240.862 544.626,235.195 544,229.5C 540.656,227.411 537.156,225.744 533.5,224.5C 532.167,224.667 530.833,224.833 529.5,225C 528.333,226.833 527.167,228.667 526,230.5C 525.501,236.157 525.334,241.824 525.5,247.5C 519.906,246.375 514.406,245.042 509,243.5C 506.329,243.274 503.996,243.941 502,245.5C 494.707,238.372 487.54,231.039 480.5,223.5C 485.413,221.815 490.413,220.315 495.5,219C 502.837,215.414 510.337,212.247 518,209.5C 525.667,206.051 533.167,202.218 540.5,198C 549.155,191.01 557.489,183.677 565.5,176C 573.539,171.957 580.372,166.457 586,159.5C 587.696,146.8 589.696,134.134 592,121.5C 592.748,119.668 593.748,118.001 595,116.5C 595.667,114.833 595.667,113.167 595,111.5C 581.654,106.888 568.487,102.221 555.5,97.5C 532.658,96.3726 509.658,96.5393 486.5,98C 484.942,98.21 483.609,98.71 482.5,99.5C 466.054,100.93 450.387,105.096 435.5,112C 431.418,114.505 427.751,117.505 424.5,121C 410.566,129.975 396.566,138.975 382.5,148C 380.457,149.708 378.79,151.708 377.5,154C 371.92,155.122 367.253,157.788 363.5,162C 360.101,162.546 356.768,162.213 353.5,161C 339.012,151.428 324.012,142.928 308.5,135.5C 302.347,134.347 296.014,134.18 289.5,135C 288.944,135.383 288.611,135.883 288.5,136.5C 287.185,137.476 285.852,138.476 284.5,139.5C 262.739,139.945 241.072,141.279 219.5,143.5C 212.833,143.333 206.167,143.167 199.5,143C 191.302,130.114 183.469,116.947 176,103.5C 171.51,92.6975 167.844,81.6975 165,70.5C 161.245,64.8999 156.078,61.5666 149.5,60.5C 149.5,45.1667 149.5,29.8333 149.5,14.5C 153.371,14.185 157.038,14.5184 160.5,15.5C 160.5,29.5 160.5,43.5 160.5,57.5C 168.167,57.5 175.833,57.5 183.5,57.5C 183.179,59.0481 182.179,59.7148 180.5,59.5C 180.5,61.1667 180.5,62.8333 180.5,64.5C 182.179,64.2852 183.179,64.9519 183.5,66.5C 183.5,71.5 183.5,76.5 183.5,81.5C 287.5,81.5 391.5,81.5 495.5,81.5C 495.5,76.8333 495.5,72.1667 495.5,67.5C 495.5,67.1667 495.5,66.8333 495.5,66.5C 499.16,66.8412 502.493,66.1745 505.5,64.5C 516.388,58.8658 522.054,50.0325 522.5,38C 521.056,37.2195 519.723,37.3861 518.5,38.5C 515.837,48.9914 509.504,56.1581 499.5,60C 497.934,60.765 496.601,60.5983 495.5,59.5C 495.5,44.8333 495.5,30.1667 495.5,15.5C 493.167,15.5 490.833,15.5 488.5,15.5C 488.5,10.5 488.5,5.5 488.5,0.5C 446.167,0.5 403.833,0.5 361.5,0.5C 361.5,1.83333 361.5,3.16667 361.5,4.5C 294.5,4.5 227.5,4.5 160.5,4.5C 160.5,5.5 160.5,6.5 160.5,7.5C 148.674,8.33074 136.674,8.83074 124.5,9C 123.167,10.6667 123.167,12.3333 124.5,14C 130.491,14.4995 136.491,14.6662 142.5,14.5C 142.5,28.5 142.5,42.5 142.5,56.5C 137.204,55.6854 132.537,53.5187 128.5,50C 120.455,46.6404 112.455,43.3071 104.5,40C 97.6271,39.4055 90.7938,38.5721 84,37.5C 80.7574,37.3066 77.7574,37.9733 75,39.5C 74.3075,47.5797 71.6408,54.9131 67,61.5C 65.9898,66.8863 63.6565,71.5529 60,75.5C 56.9777,97.9261 56.8111,120.259 59.5,142.5C 57.8015,151.064 57.1348,159.731 57.5,168.5C 57.2536,173.453 59.2536,177.119 63.5,179.5C 64.2832,181.076 65.4499,182.409 67,183.5C 72.3039,197.263 80.4706,209.096 91.5,219C 89.8333,221.265 87.9999,223.431 86,225.5C 84.4848,229.897 82.8181,234.23 81,238.5C 78.0572,229.057 75.8905,219.39 74.5,209.5C 71.4816,209.335 68.4816,209.502 65.5,210C 64.3204,211.896 62.8204,213.396 61,214.5C 56.9054,211.983 54.5721,208.316 54,203.5C 52,202.167 50,202.167 48,203.5C 46.8313,208.153 44.3313,211.82 40.5,214.5C 39.9364,204.731 35.4364,202.065 27,206.5C 26.5017,209.817 26.335,213.15 26.5,216.5C 22.5658,214.878 18.8991,212.878 15.5,210.5C 12.6987,210.464 10.8653,211.797 10,214.5C 8.75398,229.333 9.58731,243.999 12.5,258.5C 11.9106,262.971 12.5772,266.971 14.5,270.5C 14.7704,275.028 15.4371,279.361 16.5,283.5C 18.1278,298.124 19.4612,312.791 20.5,327.5C 20.829,336.121 22.1623,344.454 24.5,352.5C 27.8316,362.889 30.9982,373.556 34,384.5C 38.25,389.785 41.25,395.785 43,402.5C 43.6246,421.253 45.1246,439.92 47.5,458.5C 47.5,463.5 47.5,468.5 47.5,473.5C 41.1667,473.5 34.8333,473.5 28.5,473.5C 28.5,477.5 28.5,481.5 28.5,485.5C 24.5,485.5 20.5,485.5 16.5,485.5C 16.5,481.5 16.5,477.5 16.5,473.5C 12.5,473.5 8.5,473.5 4.5,473.5C 4.5,474.5 4.5,475.5 4.5,476.5C 3.5,476.5 2.5,476.5 1.5,476.5C 1.5,317.5 1.5,158.5 1.5,-0.5 Z M 495.5,59.5 C 484.457,59.6133 479.457,54.1133 480.5,43C 481.797,30.6137 481.797,18.2804 480.5,6C 478.251,5.13681 476.418,5.63681 475,7.5C 473.913,21.8226 473.58,36.1559 474,50.5C 475.648,62.9286 482.814,68.5953 495.5,67.5C 495.5,72.1667 495.5,76.8333 495.5,81.5C 391.5,81.5 287.5,81.5 183.5,81.5C 183.5,76.5 183.5,71.5 183.5,66.5C 211.198,64.6715 228.864,50.5048 236.5,24C 236.255,20.7455 234.588,19.4121 231.5,20C 227.312,31.3764 220.645,41.0431 211.5,49C 202.929,54.31 193.595,57.1433 183.5,57.5C 175.833,57.5 168.167,57.5 160.5,57.5C 160.5,43.5 160.5,29.5 160.5,15.5C 167.659,17.1797 169.993,14.6797 167.5,8C 165.19,7.50335 162.857,7.33669 160.5,7.5C 160.5,6.5 160.5,5.5 160.5,4.5C 227.5,4.5 294.5,4.5 361.5,4.5C 361.5,3.16667 361.5,1.83333 361.5,0.5C 403.833,0.5 446.167,0.5 488.5,0.5C 488.5,5.5 488.5,10.5 488.5,15.5C 490.833,15.5 493.167,15.5 495.5,15.5C 495.5,30.1667 495.5,44.8333 495.5,59.5 Z M 420.5,50.5 C 425.214,50.3531 429.881,50.6864 434.5,51.5C 433.335,59.0689 429.002,61.5689 421.5,59C 416.568,56.7048 416.235,53.8715 420.5,50.5 Z"/></g>
<g><path style="opacity:0.858" fill="#ff2600" d="M 399.5,5.5 C 403.49,4.8238 405.157,6.49047 404.5,10.5C 399.86,28.4617 399.526,46.4617 403.5,64.5C 401.388,67.9291 398.888,68.2625 396,65.5C 392.013,45.1381 393.18,25.1381 399.5,5.5 Z"/></g>
<g><path style="opacity:0.892" fill="#ff2b04" d="M 495.5,59.5 C 496.601,60.5983 497.934,60.765 499.5,60C 509.504,56.1581 515.837,48.9914 518.5,38.5C 519.723,37.3861 521.056,37.2195 522.5,38C 522.054,50.0325 516.388,58.8658 505.5,64.5C 501.96,64.7526 498.627,65.4192 495.5,66.5C 495.5,66.8333 495.5,67.1667 495.5,67.5C 482.814,68.5953 475.648,62.9286 474,50.5C 473.58,36.1559 473.913,21.8226 475,7.5C 476.418,5.63681 478.251,5.13681 480.5,6C 481.797,18.2804 481.797,30.6137 480.5,43C 479.457,54.1133 484.457,59.6133 495.5,59.5 Z"/></g>
<g><path style="opacity:0.786" fill="#ff2500" d="M 186.5,6.5 C 194.063,8.36507 200.897,11.6984 207,16.5C 208.477,20.9978 206.977,23.1645 202.5,23C 196.992,19.7453 191.325,16.7453 185.5,14C 184.083,11.2565 184.416,8.75654 186.5,6.5 Z"/></g>
<g><path style="opacity:0.977" fill="#fe2f0a" d="M 160.5,7.5 C 162.857,7.33669 165.19,7.50335 167.5,8C 169.993,14.6797 167.659,17.1797 160.5,15.5C 157.038,14.5184 153.371,14.185 149.5,14.5C 149.5,29.8333 149.5,45.1667 149.5,60.5C 149.616,63.9103 147.95,65.2436 144.5,64.5C 143.5,64.1667 142.833,63.5 142.5,62.5C 142.5,60.5 142.5,58.5 142.5,56.5C 142.5,42.5 142.5,28.5 142.5,14.5C 136.491,14.6662 130.491,14.4995 124.5,14C 123.167,12.3333 123.167,10.6667 124.5,9C 136.674,8.83074 148.674,8.33074 160.5,7.5 Z"/></g>
<g><path style="opacity:0.833" fill="#ff2700" d="M 342.5,7.5 C 344.582,7.47199 346.416,8.13865 348,9.5C 350.795,16.0504 353.295,22.717 355.5,29.5C 353.873,33.7895 351.373,34.4561 348,31.5C 345.775,24.7187 343.275,18.0521 340.5,11.5C 340.752,9.92714 341.418,8.5938 342.5,7.5 Z"/></g>
<g><path style="opacity:0.817" fill="#ff2600" d="M 445.5,7.5 C 447.199,7.33982 448.866,7.50649 450.5,8C 452.059,10.6417 451.725,12.975 449.5,15C 446.242,15.2117 443.076,15.7117 440,16.5C 439.179,19.5541 439.345,22.5541 440.5,25.5C 444.429,24.5672 448.429,24.2338 452.5,24.5C 452.756,26.7925 452.423,28.9592 451.5,31C 447.534,31.8279 443.534,32.3279 439.5,32.5C 439.835,37.1772 440.335,41.8439 441,46.5C 445.537,48.77 449.537,51.77 453,55.5C 454.404,61.1764 452.571,63.0098 447.5,61C 445.65,58.9824 443.65,57.1491 441.5,55.5C 441.115,60.7827 438.448,64.2827 433.5,66C 426.938,67.8529 420.605,67.1862 414.5,64C 409.943,58.8789 409.443,53.3789 413,47.5C 416.583,44.4266 420.75,42.7599 425.5,42.5C 428.084,43.3928 430.751,43.7261 433.5,43.5C 433.823,39.774 433.489,36.1073 432.5,32.5C 426.218,33.626 419.885,33.7927 413.5,33C 411.275,30.975 410.941,28.6417 412.5,26C 419.158,25.5004 425.825,25.3337 432.5,25.5C 432.5,22.5 432.5,19.5 432.5,16.5C 426.158,16.6662 419.825,16.4995 413.5,16C 412.577,13.9592 412.244,11.7925 412.5,9.5C 423.706,9.72469 434.706,9.05803 445.5,7.5 Z M 420.5,50.5 C 416.235,53.8715 416.568,56.7048 421.5,59C 429.002,61.5689 433.335,59.0689 434.5,51.5C 429.881,50.6864 425.214,50.3531 420.5,50.5 Z"/></g>
<g><path style="opacity:0.835" fill="#ff2600" d="M 373.5,9.5 C 377.099,8.93761 379.099,10.4376 379.5,14C 377.845,40.0264 364.845,57.3597 340.5,66C 338.098,66.8141 335.765,66.6474 333.5,65.5C 332.135,63.2492 332.469,61.2492 334.5,59.5C 350.182,54.9808 361.348,45.3141 368,30.5C 370.005,23.4761 371.839,16.4761 373.5,9.5 Z"/></g>
<g><path style="opacity:0.818" fill="#ff2600" d="M 323.5,11.5 C 327.575,11.3986 330.075,13.3986 331,17.5C 332.864,22.0907 334.53,26.7574 336,31.5C 337.5,36.6667 335.667,38.5 330.5,37C 327.309,29.7641 324.309,22.4307 321.5,15C 321.978,13.6974 322.645,12.5307 323.5,11.5 Z"/></g>
<g><path style="opacity:1" fill="#ff320e" d="M 539.5,11.5 C 541.144,11.2865 542.644,11.6198 544,12.5C 544.262,23.1949 544.929,33.8616 546,44.5C 546.677,49.2051 548.51,53.3718 551.5,57C 552.833,57.6667 554.167,57.6667 555.5,57C 559.016,52.7999 561.016,47.9665 561.5,42.5C 563.045,41.5481 564.712,41.2148 566.5,41.5C 566.737,48.7264 564.737,55.2264 560.5,61C 555.596,64.4537 550.93,64.287 546.5,60.5C 540.268,49.3659 537.602,37.3659 538.5,24.5C 538.529,20.086 538.862,15.7527 539.5,11.5 Z"/></g>
<g><path style="opacity:1" fill="#ff3511" d="M 579.5,14.5 C 580.978,14.238 582.311,14.5713 583.5,15.5C 591.836,27.5095 596.17,40.8428 596.5,55.5C 594.533,55.7394 592.699,55.4061 591,54.5C 589.912,41.8051 585.912,30.1385 579,19.5C 578.36,17.735 578.527,16.0683 579.5,14.5 Z"/></g>
<g><path style="opacity:0.83" fill="#ff2600" d="M 267.5,16.5 C 269.09,16.6282 270.423,17.2949 271.5,18.5C 272.249,21.9104 273.249,25.2437 274.5,28.5C 281.782,26.9528 289.116,25.6195 296.5,24.5C 300.932,24.4322 303.265,26.5989 303.5,31C 301.091,40.9995 295.258,48.1662 286,52.5C 283.73,50.6855 283.064,48.3521 284,45.5C 288.689,42.311 292.523,38.311 295.5,33.5C 294.667,33.1667 293.833,32.8333 293,32.5C 287.163,33.5561 281.33,34.5561 275.5,35.5C 277.815,46.4075 279.482,57.4075 280.5,68.5C 278.533,68.7394 276.699,68.4061 275,67.5C 272.812,57.0554 270.312,46.7221 267.5,36.5C 262.934,37.8163 258.268,38.483 253.5,38.5C 253.5,36.1667 253.5,33.8333 253.5,31.5C 257.814,30.7255 262.147,30.0588 266.5,29.5C 266.17,26.843 265.837,24.1764 265.5,21.5C 265.724,19.5453 266.391,17.8787 267.5,16.5 Z"/></g>
<g><path style="opacity:0.838" fill="#ff2600" d="M 183.5,66.5 C 183.179,64.9519 182.179,64.2852 180.5,64.5C 180.5,62.8333 180.5,61.1667 180.5,59.5C 182.179,59.7148 183.179,59.0481 183.5,57.5C 193.595,57.1433 202.929,54.31 211.5,49C 220.645,41.0431 227.312,31.3764 231.5,20C 234.588,19.4121 236.255,20.7455 236.5,24C 228.864,50.5048 211.198,64.6715 183.5,66.5 Z"/></g>
<g><path style="opacity:0.797" fill="#ff2500" d="M 179.5,24.5 C 187.894,25.7793 195.394,29.1127 202,34.5C 203.477,38.9978 201.977,41.1645 197.5,41C 191.658,37.5785 185.658,34.4119 179.5,31.5C 178.425,29.1889 178.425,26.8555 179.5,24.5 Z"/></g>
<g><path style="opacity:1" fill="#ff3b18" d="M 617.5,28.5 C 621.182,28.3347 624.848,28.5014 628.5,29C 634.779,31.4728 640.779,34.4728 646.5,38C 650.167,38.6667 653.833,38.6667 657.5,38C 660.678,35.4861 663.844,32.9861 667,30.5C 668.833,31 670,32.1667 670.5,34C 664.724,42.3772 656.724,45.7105 646.5,44C 639.228,40.5267 631.895,37.36 624.5,34.5C 622.833,34.6667 621.167,34.8333 619.5,35C 616.008,37.0056 612.674,39.1722 609.5,41.5C 606.918,41.2534 606.085,39.92 607,37.5C 610.103,33.886 613.603,30.886 617.5,28.5 Z"/></g>
<g><path style="opacity:1" fill="#141314" d="M 142.5,56.5 C 142.5,58.5 142.5,60.5 142.5,62.5C 139.06,61.4887 135.726,60.4887 132.5,59.5C 130.058,58.2814 127.724,56.7814 125.5,55C 124.365,54.2506 123.365,54.4173 122.5,55.5C 124.902,57.9092 127.569,59.9092 130.5,61.5C 132.083,64.3874 133.583,67.3874 135,70.5C 135.624,91.2441 137.124,111.911 139.5,132.5C 139.255,138.084 139.922,143.417 141.5,148.5C 142.324,152.312 142.824,156.312 143,160.5C 150.965,153.437 159.798,147.77 169.5,143.5C 176.532,143.83 183.532,143.497 190.5,142.5C 190.145,141.478 189.478,140.811 188.5,140.5C 188.245,137.984 187.411,135.65 186,133.5C 182.632,126.743 178.799,120.409 174.5,114.5C 174.573,112.973 173.906,111.973 172.5,111.5C 170.282,105.788 167.949,100.121 165.5,94.5C 165.59,91.8478 164.924,89.5145 163.5,87.5C 163.741,85.1016 163.074,83.1016 161.5,81.5C 160.896,78.003 159.73,74.6696 158,71.5C 153.566,68.8647 149.066,66.5314 144.5,64.5C 147.95,65.2436 149.616,63.9103 149.5,60.5C 156.078,61.5666 161.245,64.8999 165,70.5C 167.844,81.6975 171.51,92.6975 176,103.5C 183.469,116.947 191.302,130.114 199.5,143C 206.167,143.167 212.833,143.333 219.5,143.5C 241.072,141.279 262.739,139.945 284.5,139.5C 285.852,138.476 287.185,137.476 288.5,136.5C 295.109,135.577 301.776,135.244 308.5,135.5C 324.012,142.928 339.012,151.428 353.5,161C 356.768,162.213 360.101,162.546 363.5,162C 367.253,157.788 371.92,155.122 377.5,154C 378.79,151.708 380.457,149.708 382.5,148C 396.566,138.975 410.566,129.975 424.5,121C 427.751,117.505 431.418,114.505 435.5,112C 450.387,105.096 466.054,100.93 482.5,99.5C 506.799,97.9659 531.132,97.2992 555.5,97.5C 568.487,102.221 581.654,106.888 595,111.5C 595.667,113.167 595.667,114.833 595,116.5C 593.748,118.001 592.748,119.668 592,121.5C 589.696,134.134 587.696,146.8 586,159.5C 580.372,166.457 573.539,171.957 565.5,176C 557.489,183.677 549.155,191.01 540.5,198C 533.167,202.218 525.667,206.051 518,209.5C 510.337,212.247 502.837,215.414 495.5,219C 490.413,220.315 485.413,221.815 480.5,223.5C 487.54,231.039 494.707,238.372 502,245.5C 503.996,243.941 506.329,243.274 509,243.5C 514.406,245.042 519.906,246.375 525.5,247.5C 525.334,241.824 525.501,236.157 526,230.5C 527.167,228.667 528.333,226.833 529.5,225C 530.833,224.833 532.167,224.667 533.5,224.5C 537.156,225.744 540.656,227.411 544,229.5C 544.626,235.195 544.459,240.862 543.5,246.5C 544.873,246.657 546.207,246.49 547.5,246C 551.976,239.648 556.976,233.648 562.5,228C 566.423,227.207 570.256,227.374 574,228.5C 575.07,234.144 574.236,239.477 571.5,244.5C 574.556,245.196 577.556,246.03 580.5,247C 581,247.5 581.5,248 582,248.5C 582.167,250.5 582.333,252.5 582.5,254.5C 581.36,264.069 578.526,273.069 574,281.5C 573.667,288.5 573.333,295.5 573,302.5C 568.662,308.837 564.328,315.17 560,321.5C 550.892,340.052 541.558,358.385 532,376.5C 524.438,384.621 518.104,393.621 513,403.5C 504.564,412.692 495.897,421.692 487,430.5C 482.925,441.642 478.592,452.642 474,463.5C 472.198,464.789 471.031,466.456 470.5,468.5C 469.549,469.919 469.216,471.585 469.5,473.5C 467.167,473.5 464.833,473.5 462.5,473.5C 462.5,472.167 462.5,470.833 462.5,469.5C 467.631,458.233 473.131,446.899 479,435.5C 479.241,432.711 479.908,430.044 481,427.5C 488.694,418.473 497.027,410.14 506,402.5C 514.814,388.898 524.147,375.565 534,362.5C 543.405,340.356 554.405,319.023 567,298.5C 567.333,292.833 567.667,287.167 568,281.5C 571.93,272.106 574.763,262.44 576.5,252.5C 574.61,252.297 573.11,252.963 572,254.5C 570.502,260.171 567.002,263.504 561.5,264.5C 561.335,261.482 561.502,258.482 562,255.5C 563.565,247.891 565.732,240.557 568.5,233.5C 565.737,233.744 563.571,235.077 562,237.5C 559.303,242.871 555.803,247.704 551.5,252C 548.079,251.879 545.412,253.212 543.5,256C 541.866,256.494 540.199,256.66 538.5,256.5C 538.831,248.804 538.497,241.138 537.5,233.5C 535.506,231.083 533.673,231.083 532,233.5C 535.476,254.504 527.976,259.838 509.5,249.5C 507.603,249.728 506.27,250.728 505.5,252.5C 524.073,273.001 530.239,297.001 524,324.5C 521.354,334.778 517.354,344.444 512,353.5C 506.939,358.627 502.606,364.293 499,370.5C 491.333,376.833 484.333,383.833 478,391.5C 474.409,400.759 467.909,406.925 458.5,410C 442.183,416.326 425.183,419.993 407.5,421C 400.583,422.909 393.583,424.576 386.5,426C 360.919,430.406 335.253,434.239 309.5,437.5C 288.144,437.776 266.811,437.443 245.5,436.5C 212.782,428.206 181.115,417.039 150.5,403C 130.241,397.028 110.574,389.694 91.5,381C 84.5789,376.29 77.7456,371.456 71,366.5C 64.1428,354.492 61.8095,341.492 64,327.5C 67.3414,302.452 72.8414,277.952 80.5,254C 79.269,249.372 77.1023,245.205 74,241.5C 72.947,233.288 70.947,225.288 68,217.5C 67.1005,220.526 65.1005,222.193 62,222.5C 59.5177,221.365 57.0177,220.199 54.5,219C 53.3204,217.104 51.8204,215.604 50,214.5C 46.2249,220.019 41.2249,222.019 35,220.5C 34.8091,218.292 34.3091,216.292 33.5,214.5C 33.719,213.325 33.3857,212.325 32.5,211.5C 31.5067,216.12 31.1734,220.786 31.5,225.5C 29.6365,226.793 27.6365,226.793 25.5,225.5C 23.0515,222.444 20.0515,220.111 16.5,218.5C 16.44,217.957 16.1067,217.624 15.5,217.5C 14.1782,226.658 14.1782,235.658 15.5,244.5C 18.3665,260.033 21.1999,275.7 24,291.5C 24.5043,303.531 25.3377,315.531 26.5,327.5C 26.4203,330.781 27.087,333.781 28.5,336.5C 29.7712,343.795 30.9379,351.128 32,358.5C 34.2726,362.154 35.4392,366.154 35.5,370.5C 35.5275,373.916 36.5275,376.916 38.5,379.5C 41.374,385.872 44.874,391.872 49,397.5C 49.6561,422.959 51.4895,448.292 54.5,473.5C 52.5,473.5 50.5,473.5 48.5,473.5C 48.8205,468.305 48.4872,463.305 47.5,458.5C 45.1246,439.92 43.6246,421.253 43,402.5C 41.25,395.785 38.25,389.785 34,384.5C 30.9982,373.556 27.8316,362.889 24.5,352.5C 23.8948,343.914 22.5615,335.581 20.5,327.5C 19.4612,312.791 18.1278,298.124 16.5,283.5C 16.665,280.15 16.4983,276.817 16,273.5C 15.7679,272.263 15.2679,271.263 14.5,270.5C 14.6558,266.236 13.9891,262.236 12.5,258.5C 9.58731,243.999 8.75398,229.333 10,214.5C 10.8653,211.797 12.6987,210.464 15.5,210.5C 18.8991,212.878 22.5658,214.878 26.5,216.5C 26.335,213.15 26.5017,209.817 27,206.5C 35.4364,202.065 39.9364,204.731 40.5,214.5C 44.3313,211.82 46.8313,208.153 48,203.5C 50,202.167 52,202.167 54,203.5C 54.5721,208.316 56.9054,211.983 61,214.5C 62.8204,213.396 64.3204,211.896 65.5,210C 68.4816,209.502 71.4816,209.335 74.5,209.5C 75.8905,219.39 78.0572,229.057 81,238.5C 82.8181,234.23 84.4848,229.897 86,225.5C 87.9999,223.431 89.8333,221.265 91.5,219C 80.4706,209.096 72.3039,197.263 67,183.5C 65.4499,182.409 64.2832,181.076 63.5,179.5C 60.7659,176.202 58.7659,172.535 57.5,168.5C 57.1348,159.731 57.8015,151.064 59.5,142.5C 56.8111,120.259 56.9777,97.9261 60,75.5C 63.6565,71.5529 65.9898,66.8863 67,61.5C 71.6408,54.9131 74.3075,47.5797 75,39.5C 77.7574,37.9733 80.7574,37.3066 84,37.5C 90.7938,38.5721 97.6271,39.4055 104.5,40C 112.455,43.3071 120.455,46.6404 128.5,50C 132.537,53.5187 137.204,55.6854 142.5,56.5 Z"/></g>
<g><path style="opacity:1" fill="#9377af" d="M 88.5,44.5 C 85.6146,44.1936 82.9479,44.5269 80.5,45.5C 79.9569,45.44 79.6236,45.1067 79.5,44.5C 82.6447,43.1968 85.6447,43.1968 88.5,44.5 Z"/></g>
<g><path style="opacity:1" fill="#770ee5" d="M 80.5,45.5 C 82.9479,44.5269 85.6146,44.1936 88.5,44.5C 91.4815,45.1634 94.4815,45.83 97.5,46.5C 99.9724,45.0083 102.639,44.3416 105.5,44.5C 105.281,45.675 105.614,46.675 106.5,47.5C 110.075,48.2893 113.408,49.6226 116.5,51.5C 114.019,52.2583 111.352,52.2583 108.5,51.5C 103.786,51.6469 99.1191,51.3136 94.5,50.5C 94.5,49.5 94.5,48.5 94.5,47.5C 89.7277,47.4781 85.0611,46.8115 80.5,45.5 Z"/></g>
<g><path style="opacity:1" fill="#74563a" d="M 79.5,52.5 C 83.3293,51.931 86.6627,52.5977 89.5,54.5C 85.9601,54.2474 82.6267,53.5808 79.5,52.5 Z"/></g>
<g><path style="opacity:1" fill="#702cb5" d="M 108.5,51.5 C 111.352,52.2583 114.019,52.2583 116.5,51.5C 117.901,51.9709 119.234,52.6376 120.5,53.5C 120,53.8333 119.5,54.1667 119,54.5C 115.243,53.9707 111.743,52.9707 108.5,51.5 Z"/></g>
<g><path style="opacity:1" fill="#fc7e01" d="M 79.5,52.5 C 82.6267,53.5808 85.9601,54.2474 89.5,54.5C 90.5,55.1667 91.5,55.8333 92.5,56.5C 97.5683,58.1776 102.902,58.8443 108.5,58.5C 117.18,58.3335 123.513,62.0001 127.5,69.5C 127.949,80.0299 128.949,90.3632 130.5,100.5C 131.323,111.37 132.323,122.37 133.5,133.5C 133.334,138.844 133.501,144.177 134,149.5C 134.337,155.281 135.504,160.614 137.5,165.5C 133.211,170.961 128.711,176.294 124,181.5C 114.529,189.98 106.029,199.48 98.5,210C 96.6303,211.564 94.6303,211.564 92.5,210C 91.6634,208.989 91.33,207.822 91.5,206.5C 86.2291,205.896 83.2291,202.896 82.5,197.5C 77.2209,189.25 71.7209,181.25 66,173.5C 62.7686,166.85 61.7686,159.85 63,152.5C 64.1995,147.742 65.0328,142.908 65.5,138C 65.7418,135.652 64.9084,133.818 63,132.5C 61.9142,115.086 62.5809,97.7529 65,80.5C 65.3661,78.5483 66.1995,76.8816 67.5,75.5C 69.6246,72.9122 70.9579,69.9122 71.5,66.5C 74.3558,61.9222 77.0225,57.2555 79.5,52.5 Z"/></g>
<g><path style="opacity:1" fill="#bb895b" d="M 92.5,56.5 C 97.1785,56.3342 101.845,56.5008 106.5,57C 107.416,57.2784 108.082,57.7784 108.5,58.5C 102.902,58.8443 97.5683,58.1776 92.5,56.5 Z"/></g>
<g><path style="opacity:1" fill="#6e1ac3" d="M 132.5,59.5 C 131.167,59.5 130.5,60.1667 130.5,61.5C 127.569,59.9092 124.902,57.9092 122.5,55.5C 123.365,54.4173 124.365,54.2506 125.5,55C 127.724,56.7814 130.058,58.2814 132.5,59.5 Z"/></g>
<g><path style="opacity:1" fill="#7e06fa" d="M 132.5,59.5 C 135.726,60.4887 139.06,61.4887 142.5,62.5C 142.833,63.5 143.5,64.1667 144.5,64.5C 149.066,66.5314 153.566,68.8647 158,71.5C 159.73,74.6696 160.896,78.003 161.5,81.5C 161.259,83.8984 161.926,85.8984 163.5,87.5C 163.171,90.2282 163.837,92.5615 165.5,94.5C 167.949,100.121 170.282,105.788 172.5,111.5C 172.427,113.027 173.094,114.027 174.5,114.5C 178.799,120.409 182.632,126.743 186,133.5C 187.411,135.65 188.245,137.984 188.5,140.5C 182.399,142.149 176.065,143.149 169.5,143.5C 159.798,147.77 150.965,153.437 143,160.5C 142.824,156.312 142.324,152.312 141.5,148.5C 141.745,142.916 141.078,137.583 139.5,132.5C 137.124,111.911 135.624,91.2441 135,70.5C 133.583,67.3874 132.083,64.3874 130.5,61.5C 130.5,60.1667 131.167,59.5 132.5,59.5 Z"/></g>
<g><path style="opacity:1" fill="#ff9581" d="M 505.5,64.5 C 502.493,66.1745 499.16,66.8412 495.5,66.5C 498.627,65.4192 501.96,64.7526 505.5,64.5 Z"/></g>
<g><path style="opacity:1" fill="#755e48" d="M 71.5,66.5 C 70.9579,69.9122 69.6246,72.9122 67.5,75.5C 68.0592,72.0567 69.3926,69.0567 71.5,66.5 Z"/></g>
<g><path style="opacity:1" fill="#c76d1a" d="M 127.5,69.5 C 129.018,73.5659 129.851,77.8993 130,82.5C 130.499,88.4908 130.666,94.4908 130.5,100.5C 128.949,90.3632 127.949,80.0299 127.5,69.5 Z"/></g>
<g><path style="opacity:1" fill="#763bb5" d="M 161.5,81.5 C 163.074,83.1016 163.741,85.1016 163.5,87.5C 161.926,85.8984 161.259,83.8984 161.5,81.5 Z"/></g>
<g><path style="opacity:1" fill="#692da6" d="M 163.5,87.5 C 164.924,89.5145 165.59,91.8478 165.5,94.5C 163.837,92.5615 163.171,90.2282 163.5,87.5 Z"/></g>
<g><path style="opacity:1" fill="#b4b4b4" d="M 555.5,97.5 C 531.132,97.2992 506.799,97.9659 482.5,99.5C 483.609,98.71 484.942,98.21 486.5,98C 509.658,96.5393 532.658,96.3726 555.5,97.5 Z"/></g>
<g><path style="opacity:1" fill="#7e07fa" d="M 585.5,113.5 C 587.175,115.456 586.842,116.789 584.5,117.5C 576.12,117.262 567.787,117.762 559.5,119C 543.56,123.592 527.894,129.092 512.5,135.5C 508.196,136.21 503.863,136.71 499.5,137C 493.424,139.77 487.091,141.77 480.5,143C 467.892,148.261 456.892,155.928 447.5,166C 440.868,170.563 434.034,174.73 427,178.5C 424.224,177.195 421.39,176.029 418.5,175C 403.146,172.129 387.813,169.129 372.5,166C 371.015,164.244 371.348,163.077 373.5,162.5C 378.449,162.369 382.115,160.036 384.5,155.5C 386.749,154.92 388.415,153.587 389.5,151.5C 406.346,140.245 423.012,128.745 439.5,117C 444.52,114.631 449.52,112.298 454.5,110C 488.587,104.163 522.92,102.33 557.5,104.5C 566.944,107.092 576.277,110.092 585.5,113.5 Z"/></g>
<g><path style="opacity:1" fill="#7f5aa5" d="M 172.5,111.5 C 173.906,111.973 174.573,112.973 174.5,114.5C 173.094,114.027 172.427,113.027 172.5,111.5 Z"/></g>
<g><path style="opacity:1" fill="#5e1f9f" d="M 585.5,113.5 C 588.389,113.999 589.056,115.499 587.5,118C 586.251,118.74 585.251,118.573 584.5,117.5C 586.842,116.789 587.175,115.456 585.5,113.5 Z"/></g>
<g><path style="opacity:1" fill="#b47b47" d="M 584.5,124.5 C 571.823,123.959 559.49,125.626 547.5,129.5C 547.611,128.883 547.944,128.383 548.5,128C 552.92,126.957 557.254,125.624 561.5,124C 569.345,123.178 577.011,123.344 584.5,124.5 Z"/></g>
<g><path style="opacity:1" fill="#fc7e03" d="M 584.5,124.5 C 585.097,124.735 585.43,125.235 585.5,126C 584.13,134.467 582.964,142.967 582,151.5C 580.873,155.75 578.706,159.417 575.5,162.5C 565.326,167.593 556.66,174.593 549.5,183.5C 544.615,187.874 539.281,191.708 533.5,195C 523.058,199.721 512.724,204.721 502.5,210C 493.896,212.558 485.229,215.058 476.5,217.5C 469.293,213.059 462.627,207.893 456.5,202C 451.334,199.844 447.001,196.511 443.5,192C 439.244,190.08 435.911,187.08 433.5,183C 439.96,178.93 446.293,174.597 452.5,170C 460.484,160.683 470.151,153.683 481.5,149C 483.134,148.506 484.801,148.34 486.5,148.5C 489.746,147.946 492.746,146.946 495.5,145.5C 496.842,144.207 498.509,143.374 500.5,143C 509.555,143.091 517.888,140.758 525.5,136C 531.799,135.574 537.466,133.574 542.5,130C 544.134,129.506 545.801,129.34 547.5,129.5C 559.49,125.626 571.823,123.959 584.5,124.5 Z"/></g>
<g><path style="opacity:1" fill="#8b8b8b" d="M 308.5,135.5 C 301.776,135.244 295.109,135.577 288.5,136.5C 288.611,135.883 288.944,135.383 289.5,135C 296.014,134.18 302.347,134.347 308.5,135.5 Z"/></g>
<g><path style="opacity:1" fill="#fdfdfd" d="M 362.5,169.5 C 362.611,170.117 362.944,170.617 363.5,171C 367.145,171.719 370.812,172.219 374.5,172.5C 380.18,172.299 385.514,173.299 390.5,175.5C 395.169,177.579 400.169,178.579 405.5,178.5C 418.668,178.75 429.001,184.25 436.5,195C 447.538,203.61 458.705,212.11 470,220.5C 476.864,228.697 484.53,236.364 493,243.5C 497.898,251.732 503.565,259.399 510,266.5C 512.667,272.5 515.333,278.5 518,284.5C 518.667,297.5 518.667,310.5 518,323.5C 515.085,330.659 512.752,337.992 511,345.5C 498.344,361.153 485.011,376.153 471,390.5C 469.603,394.796 467.103,398.296 463.5,401C 455.369,404.032 447.369,407.365 439.5,411C 428.578,412.989 417.578,414.322 406.5,415C 398.053,417.635 389.386,419.635 380.5,421C 356.545,424.884 332.545,428.551 308.5,432C 289.167,432.667 269.833,432.667 250.5,432C 233.969,428.377 217.969,423.377 202.5,417C 184.896,411.691 167.896,405.024 151.5,397C 139.837,393.335 128.17,389.668 116.5,386C 108.541,382.355 100.541,378.689 92.5,375C 86.035,371.347 80.2017,366.847 75,361.5C 69.6823,351.229 68.0157,340.229 70,328.5C 71.2787,317.773 72.9453,307.107 75,296.5C 81.378,277.99 85.378,258.99 87,239.5C 88.3283,233.178 90.9949,227.511 95,222.5C 100.241,216.348 105.241,210.015 110,203.5C 115.667,196.5 122,190.167 129,184.5C 139.884,169.862 153.384,158.362 169.5,150C 193.5,149.667 217.5,149.333 241.5,149C 242.167,148.333 242.833,147.667 243.5,147C 257.845,146.833 272.178,146.333 286.5,145.5C 288.722,142.775 291.555,141.109 295,140.5C 299.144,141.164 303.311,141.664 307.5,142C 314.67,146.709 322.336,150.375 330.5,153C 336.119,156.595 341.785,160.262 347.5,164C 352.391,166.461 357.391,168.294 362.5,169.5 Z"/></g>
<g><path style="opacity:1" fill="#4f0593" d="M 188.5,140.5 C 189.478,140.811 190.145,141.478 190.5,142.5C 183.532,143.497 176.532,143.83 169.5,143.5C 176.065,143.149 182.399,142.149 188.5,140.5 Z"/></g>
<g><path style="opacity:1" fill="#493161" d="M 139.5,132.5 C 141.078,137.583 141.745,142.916 141.5,148.5C 139.922,143.417 139.255,138.084 139.5,132.5 Z"/></g>
<g><path style="opacity:1" fill="#a0662f" d="M 495.5,145.5 C 492.746,146.946 489.746,147.946 486.5,148.5C 489.008,146.446 492.008,145.446 495.5,145.5 Z"/></g>
<g><path style="opacity:1" fill="#c97323" d="M 133.5,133.5 C 135.637,143.93 136.97,154.597 137.5,165.5C 135.504,160.614 134.337,155.281 134,149.5C 133.501,144.177 133.334,138.844 133.5,133.5 Z"/></g>
<g><path style="opacity:1" fill="#8446c3" d="M 389.5,151.5 C 388.415,153.587 386.749,154.92 384.5,155.5C 385.585,153.413 387.251,152.08 389.5,151.5 Z"/></g>
<g><path style="opacity:1" fill="#600fb2" d="M 384.5,155.5 C 382.115,160.036 378.449,162.369 373.5,162.5C 377.141,160.205 380.808,157.872 384.5,155.5 Z"/></g>
<g><path style="opacity:1" fill="#777777" d="M 362.5,169.5 C 366.713,170.082 370.713,171.082 374.5,172.5C 370.812,172.219 367.145,171.719 363.5,171C 362.944,170.617 362.611,170.117 362.5,169.5 Z"/></g>
<g><path style="opacity:1" fill="#a6a6a6" d="M 57.5,168.5 C 58.7659,172.535 60.7659,176.202 63.5,179.5C 59.2536,177.119 57.2536,173.453 57.5,168.5 Z"/></g>
<g><path style="opacity:1" fill="#919191" d="M 390.5,175.5 C 395.709,176.058 400.709,177.058 405.5,178.5C 400.169,178.579 395.169,177.579 390.5,175.5 Z"/></g>
<g><path style="opacity:1" fill="#161417" d="M 187.5,229.5 C 187.342,226.098 187.676,222.764 188.5,219.5C 191.916,214.905 195.583,210.405 199.5,206C 203.489,205.092 207.155,205.759 210.5,208C 216.722,215.443 224.389,220.61 233.5,223.5C 234.53,225.517 235.53,227.517 236.5,229.5C 236.219,231.778 234.885,232.945 232.5,233C 220.147,233.593 207.813,233.26 195.5,232C 192.543,231.721 189.877,230.887 187.5,229.5 Z"/></g>
<g><path style="opacity:1" fill="#161417" d="M 349.5,207.5 C 355.509,207.334 361.509,207.501 367.5,208C 370.881,209.047 374.047,210.547 377,212.5C 379.864,228.022 373.364,234.689 357.5,232.5C 347.435,232.246 337.435,231.413 327.5,230C 326.446,228.612 326.28,227.112 327,225.5C 331.833,220.667 336.667,215.833 341.5,211C 344.53,210.422 347.197,209.255 349.5,207.5 Z"/></g>
<g><path style="opacity:1" fill="#7a07f1" d="M 225.5,226.5 C 221.03,227.486 216.363,227.819 211.5,227.5C 205.559,226.904 199.559,225.904 193.5,224.5C 195.808,221.025 198.308,217.692 201,214.5C 202.062,213.101 203.395,212.101 205,211.5C 209.429,214.924 213.596,218.757 217.5,223C 219.871,224.879 222.538,226.045 225.5,226.5 Z"/></g>
<g><path style="opacity:1" fill="#666666" d="M 33.5,214.5 C 32.8333,218.167 32.1667,221.833 31.5,225.5C 31.1734,220.786 31.5067,216.12 32.5,211.5C 33.3857,212.325 33.719,213.325 33.5,214.5 Z"/></g>
<g><path style="opacity:1" fill="#7e0ef6" d="M 351.5,213.5 C 357.909,213.183 364.243,213.683 370.5,215C 371.783,217.795 371.783,220.628 370.5,223.5C 366.741,225.927 362.575,226.927 358,226.5C 351.127,226.215 344.294,225.548 337.5,224.5C 341.069,219.388 345.736,215.722 351.5,213.5 Z"/></g>
<g><path style="opacity:1" fill="#fcfcfc" d="M 33.5,214.5 C 34.3091,216.292 34.8091,218.292 35,220.5C 41.2249,222.019 46.2249,220.019 50,214.5C 51.8204,215.604 53.3204,217.104 54.5,219C 57.0177,220.199 59.5177,221.365 62,222.5C 65.1005,222.193 67.1005,220.526 68,217.5C 70.947,225.288 72.947,233.288 74,241.5C 77.1023,245.205 79.269,249.372 80.5,254C 72.8414,277.952 67.3414,302.452 64,327.5C 61.8095,341.492 64.1428,354.492 71,366.5C 77.7456,371.456 84.5789,376.29 91.5,381C 110.574,389.694 130.241,397.028 150.5,403C 181.115,417.039 212.782,428.206 245.5,436.5C 246.609,437.29 247.942,437.79 249.5,438C 269.671,438.829 289.671,438.662 309.5,437.5C 335.253,434.239 360.919,430.406 386.5,426C 393.583,424.576 400.583,422.909 407.5,421C 425.183,419.993 442.183,416.326 458.5,410C 467.909,406.925 474.409,400.759 478,391.5C 484.333,383.833 491.333,376.833 499,370.5C 502.606,364.293 506.939,358.627 512,353.5C 517.354,344.444 521.354,334.778 524,324.5C 530.239,297.001 524.073,273.001 505.5,252.5C 506.27,250.728 507.603,249.728 509.5,249.5C 527.976,259.838 535.476,254.504 532,233.5C 533.673,231.083 535.506,231.083 537.5,233.5C 538.497,241.138 538.831,248.804 538.5,256.5C 540.199,256.66 541.866,256.494 543.5,256C 545.412,253.212 548.079,251.879 551.5,252C 555.803,247.704 559.303,242.871 562,237.5C 563.571,235.077 565.737,233.744 568.5,233.5C 565.732,240.557 563.565,247.891 562,255.5C 561.502,258.482 561.335,261.482 561.5,264.5C 567.002,263.504 570.502,260.171 572,254.5C 573.11,252.963 574.61,252.297 576.5,252.5C 574.763,262.44 571.93,272.106 568,281.5C 567.667,287.167 567.333,292.833 567,298.5C 554.405,319.023 543.405,340.356 534,362.5C 524.147,375.565 514.814,388.898 506,402.5C 497.027,410.14 488.694,418.473 481,427.5C 479.908,430.044 479.241,432.711 479,435.5C 473.131,446.899 467.631,458.233 462.5,469.5C 461.566,470.568 461.232,471.901 461.5,473.5C 456.5,473.5 451.5,473.5 446.5,473.5C 446.5,477.5 446.5,481.5 446.5,485.5C 442.5,485.5 438.5,485.5 434.5,485.5C 434.5,481.5 434.5,477.5 434.5,473.5C 422.5,473.5 410.5,473.5 398.5,473.5C 398.5,477.5 398.5,481.5 398.5,485.5C 394.5,485.5 390.5,485.5 386.5,485.5C 386.5,481.5 386.5,477.5 386.5,473.5C 374.167,473.5 361.833,473.5 349.5,473.5C 349.5,477.5 349.5,481.5 349.5,485.5C 345.5,485.5 341.5,485.5 337.5,485.5C 337.5,481.5 337.5,477.5 337.5,473.5C 327.833,473.5 318.167,473.5 308.5,473.5C 308.5,477.5 308.5,481.5 308.5,485.5C 304.5,485.5 300.5,485.5 296.5,485.5C 296.5,481.5 296.5,477.5 296.5,473.5C 284.5,473.5 272.5,473.5 260.5,473.5C 260.5,477.5 260.5,481.5 260.5,485.5C 256.5,485.5 252.5,485.5 248.5,485.5C 248.5,481.5 248.5,477.5 248.5,473.5C 236.167,473.5 223.833,473.5 211.5,473.5C 211.5,477.5 211.5,481.5 211.5,485.5C 207.5,485.5 203.5,485.5 199.5,485.5C 199.5,481.5 199.5,477.5 199.5,473.5C 195.167,473.5 190.833,473.5 186.5,473.5C 182.5,473.5 178.5,473.5 174.5,473.5C 174.5,477.5 174.5,481.5 174.5,485.5C 170.5,485.5 166.5,485.5 162.5,485.5C 162.5,481.5 162.5,477.5 162.5,473.5C 150.167,473.5 137.833,473.5 125.5,473.5C 125.5,477.5 125.5,481.5 125.5,485.5C 121.5,485.5 117.5,485.5 113.5,485.5C 113.5,481.5 113.5,477.5 113.5,473.5C 101.5,473.5 89.5,473.5 77.5,473.5C 77.5,477.5 77.5,481.5 77.5,485.5C 73.5,485.5 69.5,485.5 65.5,485.5C 65.5,481.5 65.5,477.5 65.5,473.5C 61.8333,473.5 58.1667,473.5 54.5,473.5C 51.4895,448.292 49.6561,422.959 49,397.5C 44.874,391.872 41.374,385.872 38.5,379.5C 38.2525,376.146 37.2525,373.146 35.5,370.5C 35.4392,366.154 34.2726,362.154 32,358.5C 30.9379,351.128 29.7712,343.795 28.5,336.5C 28.5797,333.219 27.913,330.219 26.5,327.5C 25.3377,315.531 24.5043,303.531 24,291.5C 21.1999,275.7 18.3665,260.033 15.5,244.5C 15.1736,235.651 15.507,226.984 16.5,218.5C 20.0515,220.111 23.0515,222.444 25.5,225.5C 27.6365,226.793 29.6365,226.793 31.5,225.5C 32.1667,221.833 32.8333,218.167 33.5,214.5 Z"/></g>
<g><path style="opacity:1" fill="#838383" d="M 16.5,218.5 C 15.507,226.984 15.1736,235.651 15.5,244.5C 14.1782,235.658 14.1782,226.658 15.5,217.5C 16.1067,217.624 16.44,217.957 16.5,218.5 Z"/></g>
<g><path style="opacity:1" fill="#777777" d="M 188.5,219.5 C 187.676,222.764 187.342,226.098 187.5,229.5C 186.362,226.696 186.195,223.696 187,220.5C 187.383,219.944 187.883,219.611 188.5,219.5 Z"/></g>
<g><path style="opacity:1" fill="#1d0736" d="M 225.5,226.5 C 226.043,226.56 226.376,226.893 226.5,227.5C 221.348,228.814 216.348,228.814 211.5,227.5C 216.363,227.819 221.03,227.486 225.5,226.5 Z"/></g>
<g><path style="opacity:1" fill="#141414" d="M 160.5,235.5 C 172.838,235.333 185.171,235.5 197.5,236C 201.193,238.592 205.193,240.592 209.5,242C 213.098,246.849 215.265,252.349 216,258.5C 218.778,273.002 215.445,285.668 206,296.5C 205.749,298.433 205.249,300.266 204.5,302C 199.822,303.517 195.156,304.85 190.5,306C 176.833,306.667 163.167,306.667 149.5,306C 136.342,300.531 128.842,290.697 127,276.5C 122.938,249.948 134.105,236.281 160.5,235.5 Z"/></g>
<g><path style="opacity:1" fill="#f6f6f6" d="M 208.5,253.5 C 209.71,262.511 209.71,271.511 208.5,280.5C 209.077,283.55 207.91,285.55 205,286.5C 202.623,289.921 200.79,293.588 199.5,297.5C 183.631,300.263 167.631,301.096 151.5,300C 148.618,298.392 145.618,297.059 142.5,296C 140.707,293.205 138.54,290.705 136,288.5C 134.161,281.471 132.995,274.304 132.5,267C 132.667,263.5 132.833,260 133,256.5C 135.5,253.333 138,250.167 140.5,247C 144.538,246.101 148.205,244.434 151.5,242C 165.807,240.563 180.141,240.23 194.5,241C 199.477,243.1 203.977,245.934 208,249.5C 208.49,250.793 208.657,252.127 208.5,253.5 Z"/></g>
<g><path style="opacity:1" fill="#151515" d="M 360.5,244.5 C 370.172,244.334 379.839,244.5 389.5,245C 393.953,246.882 398.619,248.215 403.5,249C 405.911,250.955 408.411,252.789 411,254.5C 414.734,259.714 417.734,265.38 420,271.5C 421.15,278.19 420.15,284.524 417,290.5C 413.846,293.652 411.513,297.319 410,301.5C 407.463,304.372 404.63,306.872 401.5,309C 392.937,309.72 384.603,311.22 376.5,313.5C 365.436,312.324 354.436,310.824 343.5,309C 338.142,307.76 334.642,304.593 333,299.5C 332.333,288.167 332.333,276.833 333,265.5C 336.205,261.084 338.872,256.417 341,251.5C 342.833,250.333 344.333,248.833 345.5,247C 350.706,246.563 355.706,245.73 360.5,244.5 Z"/></g>
<g><path style="opacity:1" fill="#151312" d="M 166.5,247.5 C 172.537,247.171 178.537,247.504 184.5,248.5C 188.194,251.527 191.527,254.86 194.5,258.5C 196.407,269.279 193.74,278.779 186.5,287C 178.86,286.854 171.193,286.52 163.5,286C 156.868,285.364 152.702,281.864 151,275.5C 150.333,269.833 150.333,264.167 151,258.5C 153.446,256.054 155.946,253.554 158.5,251C 161.53,250.422 164.197,249.255 166.5,247.5 Z"/></g>
<g><path style="opacity:1" fill="#f3f3f3" d="M 413.5,271.5 C 413.5,275.5 413.5,279.5 413.5,283.5C 410.212,288.316 407.045,293.316 404,298.5C 402.075,299.88 400.241,301.38 398.5,303C 391.801,303.783 385.135,304.783 378.5,306C 377.774,307.397 376.607,308.231 375,308.5C 363.369,306.375 351.869,303.875 340.5,301C 340,300.5 339.5,300 339,299.5C 338.333,288.833 338.333,278.167 339,267.5C 341.773,262.396 344.94,257.563 348.5,253C 361.415,250.71 374.415,250.043 387.5,251C 393.388,252.54 399.055,254.707 404.5,257.5C 408.489,261.466 411.489,266.132 413.5,271.5 Z"/></g>
<g><path style="opacity:1" fill="#f67d08" d="M 169.5,254.5 C 170.5,254.5 171.5,254.5 172.5,254.5C 172.5,256.833 172.5,259.167 172.5,261.5C 178.158,262.321 179.825,260.154 177.5,255C 178.793,254.51 180.127,254.343 181.5,254.5C 184.378,255.562 186.378,257.562 187.5,260.5C 188.324,263.764 188.658,267.098 188.5,270.5C 186.865,274.429 184.699,278.096 182,281.5C 174.349,281.126 166.849,279.959 159.5,278C 153.572,270.278 154.239,263.278 161.5,257C 164.285,256.342 166.951,255.509 169.5,254.5 Z"/></g>
<g><path style="opacity:1" fill="#f0dfd0" d="M 169.5,254.5 C 173.5,253.167 177.5,253.167 181.5,254.5C 180.127,254.343 178.793,254.51 177.5,255C 179.825,260.154 178.158,262.321 172.5,261.5C 172.5,259.167 172.5,256.833 172.5,254.5C 171.5,254.5 170.5,254.5 169.5,254.5 Z"/></g>
<g><path style="opacity:1" fill="#16120f" d="M 390.5,292.5 C 385.125,292.172 379.792,292.505 374.5,293.5C 374.137,294.183 373.804,294.85 373.5,295.5C 366.233,296.778 360.066,294.778 355,289.5C 353.716,284.976 352.05,280.643 350,276.5C 349.333,272.5 349.333,268.5 350,264.5C 360.492,256.721 372.325,254.221 385.5,257C 390.688,261.524 395.188,266.691 399,272.5C 399.762,280.648 396.929,287.314 390.5,292.5 Z"/></g>
<g><path style="opacity:1" fill="#bfbfbf" d="M 208.5,253.5 C 209.268,254.263 209.768,255.263 210,256.5C 210.667,264.167 210.667,271.833 210,279.5C 209.617,280.056 209.117,280.389 208.5,280.5C 209.71,271.511 209.71,262.511 208.5,253.5 Z"/></g>
<g><path style="opacity:1" fill="#7d7874" d="M 382.5,262.5 C 379.5,262.5 376.5,262.5 373.5,262.5C 370.941,262.198 368.607,262.532 366.5,263.5C 365.609,264.11 364.609,264.443 363.5,264.5C 363.953,263.542 364.619,262.708 365.5,262C 371.349,261.182 377.015,261.348 382.5,262.5 Z"/></g>
<g><path style="opacity:1" fill="#a25405" d="M 187.5,260.5 C 191.042,263.385 191.376,266.719 188.5,270.5C 188.658,267.098 188.324,263.764 187.5,260.5 Z"/></g>
<g><path style="opacity:1" fill="#fdf0e5" d="M 366.5,263.5 C 368.607,262.532 370.941,262.198 373.5,262.5C 373.5,264.5 373.5,266.5 373.5,268.5C 371.5,268.5 369.5,268.5 367.5,268.5C 367.784,266.585 367.451,264.919 366.5,263.5 Z"/></g>
<g><path style="opacity:1" fill="#f87e07" d="M 373.5,262.5 C 376.5,262.5 379.5,262.5 382.5,262.5C 383.496,262.414 384.329,262.748 385,263.5C 387.771,267.39 390.771,271.057 394,274.5C 395.111,277.955 393.944,279.955 390.5,280.5C 390.822,282.722 390.155,284.556 388.5,286C 383.833,286.333 379.167,286.667 374.5,287C 373.455,288.526 371.955,289.359 370,289.5C 367.453,289.238 364.953,288.738 362.5,288C 361.299,287.097 360.465,285.931 360,284.5C 358.698,279.725 357.198,275.059 355.5,270.5C 355.529,268.971 356.196,267.804 357.5,267C 359.611,266.155 361.611,265.322 363.5,264.5C 364.609,264.443 365.609,264.11 366.5,263.5C 367.451,264.919 367.784,266.585 367.5,268.5C 369.5,268.5 371.5,268.5 373.5,268.5C 373.5,266.5 373.5,264.5 373.5,262.5 Z"/></g>
<g><path style="opacity:1" fill="#acacac" d="M 12.5,258.5 C 13.9891,262.236 14.6558,266.236 14.5,270.5C 12.5772,266.971 11.9106,262.971 12.5,258.5 Z"/></g>
<g><path style="opacity:1" fill="#7c7c7c" d="M 14.5,270.5 C 15.2679,271.263 15.7679,272.263 16,273.5C 16.4983,276.817 16.665,280.15 16.5,283.5C 15.4371,279.361 14.7704,275.028 14.5,270.5 Z"/></g>
<g><path style="opacity:1" fill="#9b9b9b" d="M 413.5,271.5 C 416.041,275.479 416.041,279.479 413.5,283.5C 413.5,279.5 413.5,275.5 413.5,271.5 Z"/></g>
<g><path style="opacity:1" fill="#949494" d="M 390.5,292.5 C 384.809,293.017 379.143,294.017 373.5,295.5C 373.804,294.85 374.137,294.183 374.5,293.5C 379.792,292.505 385.125,292.172 390.5,292.5 Z"/></g>
<g><path style="opacity:1" fill="#151413" d="M 240.5,357.5 C 240.5,352.5 240.5,347.5 240.5,342.5C 239.167,342.5 237.833,342.5 236.5,342.5C 227.333,337.931 218.666,332.931 210.5,327.5C 210.5,325.5 210.5,323.5 210.5,321.5C 212.655,321.372 214.655,321.872 216.5,323C 223.821,329.245 231.988,334.078 241,337.5C 247.946,332.873 255.112,328.706 262.5,325C 260.392,324.64 258.392,323.973 256.5,323C 255.748,322.329 255.414,321.496 255.5,320.5C 255.274,315.438 255.608,310.438 256.5,305.5C 256.574,303.589 257.574,302.422 259.5,302C 276.067,297.399 282.4,303.565 278.5,320.5C 276.144,322.69 273.644,324.69 271,326.5C 271.789,331.559 274.289,335.726 278.5,339C 283.102,340.122 287.768,340.622 292.5,340.5C 292.5,338.833 292.5,337.167 292.5,335.5C 294.5,335.5 296.5,335.5 298.5,335.5C 298.5,337.833 298.5,340.167 298.5,342.5C 302.131,343.412 305.797,343.579 309.5,343C 312.707,339.051 316.707,336.051 321.5,334C 323.817,330.018 326.817,326.685 330.5,324C 335.1,322.417 336.934,323.917 336,328.5C 331.696,330.304 328.529,333.304 326.5,337.5C 321.722,340.542 317.388,344.042 313.5,348C 307.201,349.331 300.867,349.831 294.5,349.5C 289.957,359.584 284.624,369.25 278.5,378.5C 273.656,381.096 268.656,383.263 263.5,385C 261.167,385.667 258.833,385.667 256.5,385C 255.174,382.842 253.507,381.008 251.5,379.5C 250.534,377.604 250.201,375.604 250.5,373.5C 247.737,373.256 245.571,371.923 244,369.5C 243.432,365.187 242.265,361.187 240.5,357.5 Z"/></g>
<g><path style="opacity:1" fill="#5d5d5d" d="M 256.5,305.5 C 255.608,310.438 255.274,315.438 255.5,320.5C 254.352,316.019 254.185,311.352 255,306.5C 255.383,305.944 255.883,305.611 256.5,305.5 Z"/></g>
<g><path style="opacity:1" fill="#eaeaea" d="M 266.5,306.5 C 273.512,306.516 275.845,309.85 273.5,316.5C 271.691,318.488 269.524,319.822 267,320.5C 264.914,319.582 262.747,318.915 260.5,318.5C 260.18,315.102 260.513,311.768 261.5,308.5C 263.336,307.972 265.003,307.306 266.5,306.5 Z"/></g>
<g><path style="opacity:1" fill="#f87e09" d="M 263.5,331.5 C 264.822,331.33 265.989,331.663 267,332.5C 269.967,342.617 276.8,347.617 287.5,347.5C 284.375,356.417 280.208,364.751 275,372.5C 270.248,375.642 265.081,377.475 259.5,378C 257.147,375.3 255.647,372.134 255,368.5C 253.045,367.547 251.378,366.213 250,364.5C 249.673,361.536 248.507,359.036 246.5,357C 245.475,352.195 245.308,347.362 246,342.5C 251.761,338.544 257.594,334.877 263.5,331.5 Z"/></g>
<g><path style="opacity:1" fill="#6d6d6d" d="M 26.5,327.5 C 27.913,330.219 28.5797,333.219 28.5,336.5C 27.087,333.781 26.4203,330.781 26.5,327.5 Z"/></g>
<g><path style="opacity:1" fill="#bdbdbd" d="M 20.5,327.5 C 22.5615,335.581 23.8948,343.914 24.5,352.5C 22.1623,344.454 20.829,336.121 20.5,327.5 Z"/></g>
<g><path style="opacity:1" fill="#939393" d="M 236.5,342.5 C 237.833,342.5 239.167,342.5 240.5,342.5C 240.5,347.5 240.5,352.5 240.5,357.5C 239.514,353.03 239.181,348.363 239.5,343.5C 238.209,343.737 237.209,343.404 236.5,342.5 Z"/></g>
<g><path style="opacity:1" fill="#cb4d65" d="M 271.5,348.5 C 273.975,348.747 273.975,349.413 271.5,350.5C 270.537,350.03 270.537,349.363 271.5,348.5 Z"/></g>
<g><path style="opacity:1" fill="#cb4e65" d="M 266.5,349.5 C 267.497,348.287 268.497,348.454 269.5,350C 268.423,350.47 267.423,350.303 266.5,349.5 Z"/></g>
<g><path style="opacity:1" fill="#6d6d6d" d="M 35.5,370.5 C 37.2525,373.146 38.2525,376.146 38.5,379.5C 36.5275,376.916 35.5275,373.916 35.5,370.5 Z"/></g>
<g><path style="opacity:1" fill="#575757" d="M 245.5,436.5 C 266.811,437.443 288.144,437.776 309.5,437.5C 289.671,438.662 269.671,438.829 249.5,438C 247.942,437.79 246.609,437.29 245.5,436.5 Z"/></g>
<g><path style="opacity:1" fill="#dbdbdb" d="M 470.5,468.5 C 470.5,470.167 470.5,471.833 470.5,473.5C 474.833,473.5 479.167,473.5 483.5,473.5C 483.5,477.5 483.5,481.5 483.5,485.5C 483.5,489.5 483.5,493.5 483.5,497.5C 482.518,494.038 482.185,490.371 482.5,486.5C 470.833,486.5 459.167,486.5 447.5,486.5C 447.5,494.167 447.5,501.833 447.5,509.5C 451.5,509.5 455.5,509.5 459.5,509.5C 459.5,517.833 459.5,526.167 459.5,534.5C 455.5,534.5 451.5,534.5 447.5,534.5C 447.817,538.702 447.483,542.702 446.5,546.5C 446.5,542.5 446.5,538.5 446.5,534.5C 442.5,534.5 438.5,534.5 434.5,534.5C 422.5,534.5 410.5,534.5 398.5,534.5C 394.5,534.5 390.5,534.5 386.5,534.5C 386.5,538.167 386.5,541.833 386.5,545.5C 385.518,542.038 385.185,538.371 385.5,534.5C 373.833,534.5 362.167,534.5 350.5,534.5C 350.817,538.702 350.483,542.702 349.5,546.5C 349.5,542.5 349.5,538.5 349.5,534.5C 345.5,534.5 341.5,534.5 337.5,534.5C 341.298,533.517 345.298,533.183 349.5,533.5C 349.889,525.836 350.222,518.17 350.5,510.5C 354.167,510.5 357.833,510.5 361.5,510.5C 361.5,514.167 361.5,517.833 361.5,521.5C 365.5,521.5 369.5,521.5 373.5,521.5C 373.5,517.833 373.5,514.167 373.5,510.5C 377.833,510.5 382.167,510.5 386.5,510.5C 386.5,518.167 386.5,525.833 386.5,533.5C 390.5,533.5 394.5,533.5 398.5,533.5C 398.5,529.5 398.5,525.5 398.5,521.5C 406.5,521.833 414.5,522.167 422.5,522.5C 422.5,518.167 422.5,513.833 422.5,509.5C 426.5,509.5 430.5,509.5 434.5,509.5C 434.5,505.5 434.5,501.5 434.5,497.5C 430.5,497.5 426.5,497.5 422.5,497.5C 422.5,493.833 422.5,490.167 422.5,486.5C 414.5,486.5 406.5,486.5 398.5,486.5C 394.5,486.5 390.5,486.5 386.5,486.5C 386.5,490.167 386.5,493.833 386.5,497.5C 385.518,494.038 385.185,490.371 385.5,486.5C 373.833,486.5 362.167,486.5 350.5,486.5C 350.5,490.5 350.5,494.5 350.5,498.5C 346.167,498.5 341.833,498.5 337.5,498.5C 337.5,494.167 337.5,489.833 337.5,485.5C 341.5,485.5 345.5,485.5 349.5,485.5C 349.5,481.5 349.5,477.5 349.5,473.5C 361.833,473.5 374.167,473.5 386.5,473.5C 386.5,477.5 386.5,481.5 386.5,485.5C 390.5,485.5 394.5,485.5 398.5,485.5C 398.5,481.5 398.5,477.5 398.5,473.5C 410.5,473.5 422.5,473.5 434.5,473.5C 434.5,477.5 434.5,481.5 434.5,485.5C 438.5,485.5 442.5,485.5 446.5,485.5C 446.5,481.5 446.5,477.5 446.5,473.5C 451.5,473.5 456.5,473.5 461.5,473.5C 461.232,471.901 461.566,470.568 462.5,469.5C 462.5,470.833 462.5,472.167 462.5,473.5C 464.833,473.5 467.167,473.5 469.5,473.5C 469.216,471.585 469.549,469.919 470.5,468.5 Z"/></g>
<g><path style="opacity:1" fill="#c7c7c7" d="M 507.5,473.5 C 507.5,477.5 507.5,481.5 507.5,485.5C 503.5,485.5 499.5,485.5 495.5,485.5C 495.5,481.5 495.5,477.5 495.5,473.5C 499.5,473.5 503.5,473.5 507.5,473.5 Z"/></g>
<g><path style="opacity:1" fill="#c7c7c7" d="M 4.5,510.5 C 8.5,510.5 12.5,510.5 16.5,510.5C 16.5,514.5 16.5,518.5 16.5,522.5C 12.5,522.5 8.5,522.5 4.5,522.5C 4.5,518.5 4.5,514.5 4.5,510.5 Z"/></g>
<g><path style="opacity:1" fill="#ececec" d="M 16.5,485.5 C 16.5,489.833 16.5,494.167 16.5,498.5C 20.8333,498.5 25.1667,498.5 29.5,498.5C 29.5,494.5 29.5,490.5 29.5,486.5C 41.1667,486.5 52.8333,486.5 64.5,486.5C 64.185,490.371 64.5184,494.038 65.5,497.5C 69.2984,498.483 73.2984,498.817 77.5,498.5C 77.5,494.5 77.5,490.5 77.5,486.5C 85.5,486.5 93.5,486.5 101.5,486.5C 101.5,490.167 101.5,493.833 101.5,497.5C 105.5,497.5 109.5,497.5 113.5,497.5C 113.5,501.5 113.5,505.5 113.5,509.5C 109.5,509.5 105.5,509.5 101.5,509.5C 101.5,513.833 101.5,518.167 101.5,522.5C 93.5,522.167 85.5,521.833 77.5,521.5C 77.5,525.5 77.5,529.5 77.5,533.5C 73.5,533.5 69.5,533.5 65.5,533.5C 65.5,525.833 65.5,518.167 65.5,510.5C 61.1667,510.5 56.8333,510.5 52.5,510.5C 52.5,514.167 52.5,517.833 52.5,521.5C 48.5,521.5 44.5,521.5 40.5,521.5C 40.5,517.833 40.5,514.167 40.5,510.5C 36.8333,510.5 33.1667,510.5 29.5,510.5C 29.222,518.17 28.8886,525.836 28.5,533.5C 24.2984,533.183 20.2984,533.517 16.5,534.5C 16.5,538.5 16.5,542.5 16.5,546.5C 20.5,546.5 24.5,546.5 28.5,546.5C 28.5,550.5 28.5,554.5 28.5,558.5C 24.8333,558.5 21.1667,558.5 17.5,558.5C 17.5,566.167 17.5,573.833 17.5,581.5C 21.1667,581.5 24.8333,581.5 28.5,581.5C 28.185,577.629 28.5184,573.962 29.5,570.5C 29.5,574.5 29.5,578.5 29.5,582.5C 29.8168,586.702 29.4834,590.702 28.5,594.5C 28.5,598.5 28.5,602.5 28.5,606.5C 24.8333,606.5 21.1667,606.5 17.5,606.5C 17.5,610.833 17.5,615.167 17.5,619.5C 12.9677,619.818 8.63441,619.485 4.5,618.5C 8.5,618.5 12.5,618.5 16.5,618.5C 16.5,614.5 16.5,610.5 16.5,606.5C 12.5,606.5 8.5,606.5 4.5,606.5C 4.5,594.5 4.5,582.5 4.5,570.5C 8.5,570.5 12.5,570.5 16.5,570.5C 16.5,566.5 16.5,562.5 16.5,558.5C 12.5,558.5 8.5,558.5 4.5,558.5C 4.5,546.5 4.5,534.5 4.5,522.5C 8.5,522.5 12.5,522.5 16.5,522.5C 16.5,518.5 16.5,514.5 16.5,510.5C 12.5,510.5 8.5,510.5 4.5,510.5C 4.5,499.167 4.5,487.833 4.5,476.5C 4.5,475.5 4.5,474.5 4.5,473.5C 8.5,473.5 12.5,473.5 16.5,473.5C 16.5,477.5 16.5,481.5 16.5,485.5 Z"/></g>
<g><path style="opacity:1" fill="#dbdbdb" d="M 47.5,458.5 C 48.4872,463.305 48.8205,468.305 48.5,473.5C 50.5,473.5 52.5,473.5 54.5,473.5C 58.1667,473.5 61.8333,473.5 65.5,473.5C 65.5,477.5 65.5,481.5 65.5,485.5C 69.5,485.5 73.5,485.5 77.5,485.5C 77.5,481.5 77.5,477.5 77.5,473.5C 89.5,473.5 101.5,473.5 113.5,473.5C 113.5,477.5 113.5,481.5 113.5,485.5C 117.5,485.5 121.5,485.5 125.5,485.5C 125.5,481.5 125.5,477.5 125.5,473.5C 137.833,473.5 150.167,473.5 162.5,473.5C 162.5,477.5 162.5,481.5 162.5,485.5C 162.5,489.5 162.5,493.5 162.5,497.5C 161.518,494.038 161.185,490.371 161.5,486.5C 149.833,486.5 138.167,486.5 126.5,486.5C 126.5,494.167 126.5,501.833 126.5,509.5C 130.5,509.5 134.5,509.5 138.5,509.5C 138.5,513.5 138.5,517.5 138.5,521.5C 142.167,521.5 145.833,521.5 149.5,521.5C 149.185,517.629 149.518,513.962 150.5,510.5C 154.298,509.517 158.298,509.183 162.5,509.5C 162.5,505.833 162.5,502.167 162.5,498.5C 166.5,498.5 170.5,498.5 174.5,498.5C 174.5,502.167 174.5,505.833 174.5,509.5C 178.5,509.5 182.5,509.5 186.5,509.5C 186.833,526.833 187.167,526.833 187.5,509.5C 191.5,509.5 195.5,509.5 199.5,509.5C 199.5,505.5 199.5,501.5 199.5,497.5C 195.5,497.5 191.5,497.5 187.5,497.5C 187.5,493.833 187.5,490.167 187.5,486.5C 183.167,486.5 178.833,486.5 174.5,486.5C 174.5,486.167 174.5,485.833 174.5,485.5C 178.5,485.5 182.5,485.5 186.5,485.5C 186.5,481.5 186.5,477.5 186.5,473.5C 190.833,473.5 195.167,473.5 199.5,473.5C 199.5,477.5 199.5,481.5 199.5,485.5C 203.5,485.5 207.5,485.5 211.5,485.5C 211.5,481.5 211.5,477.5 211.5,473.5C 223.833,473.5 236.167,473.5 248.5,473.5C 248.5,477.5 248.5,481.5 248.5,485.5C 252.5,485.5 256.5,485.5 260.5,485.5C 260.5,481.5 260.5,477.5 260.5,473.5C 272.5,473.5 284.5,473.5 296.5,473.5C 296.5,477.5 296.5,481.5 296.5,485.5C 300.5,485.5 304.5,485.5 308.5,485.5C 308.5,481.5 308.5,477.5 308.5,473.5C 318.167,473.5 327.833,473.5 337.5,473.5C 337.5,477.5 337.5,481.5 337.5,485.5C 328.248,486.01 318.915,486.01 309.5,485.5C 309.5,493.5 309.5,501.5 309.5,509.5C 313.5,509.5 317.5,509.5 321.5,509.5C 321.5,517.833 321.5,526.167 321.5,534.5C 317.5,534.5 313.5,534.5 309.5,534.5C 309.817,538.702 309.483,542.702 308.5,546.5C 308.5,542.5 308.5,538.5 308.5,534.5C 304.5,534.5 300.5,534.5 296.5,534.5C 284.5,534.5 272.5,534.5 260.5,534.5C 256.5,534.5 252.5,534.5 248.5,534.5C 252.298,533.517 256.298,533.183 260.5,533.5C 260.5,529.5 260.5,525.5 260.5,521.5C 264.5,521.5 268.5,521.5 272.5,521.5C 276.298,522.483 280.298,522.817 284.5,522.5C 284.5,518.167 284.5,513.833 284.5,509.5C 288.5,509.5 292.5,509.5 296.5,509.5C 296.5,505.5 296.5,501.5 296.5,497.5C 292.5,497.5 288.5,497.5 284.5,497.5C 284.5,493.833 284.5,490.167 284.5,486.5C 276.5,486.5 268.5,486.5 260.5,486.5C 256.5,486.5 252.5,486.5 248.5,486.5C 248.5,490.167 248.5,493.833 248.5,497.5C 247.518,494.038 247.185,490.371 247.5,486.5C 235.833,486.5 224.167,486.5 212.5,486.5C 212.5,494.167 212.5,501.833 212.5,509.5C 216.5,509.5 220.5,509.5 224.5,509.5C 224.5,513.5 224.5,517.5 224.5,521.5C 224.5,525.833 224.5,530.167 224.5,534.5C 220.5,534.5 216.5,534.5 212.5,534.5C 212.817,538.702 212.483,542.702 211.5,546.5C 211.5,542.5 211.5,538.5 211.5,534.5C 207.5,534.5 203.5,534.5 199.5,534.5C 191.167,534.5 182.833,534.5 174.5,534.5C 170.5,534.5 166.5,534.5 162.5,534.5C 162.5,538.5 162.5,542.5 162.5,546.5C 158.818,546.665 155.152,546.499 151.5,546C 150.54,542.27 150.207,538.437 150.5,534.5C 142.5,534.5 134.5,534.5 126.5,534.5C 126.817,538.702 126.483,542.702 125.5,546.5C 125.5,542.5 125.5,538.5 125.5,534.5C 121.5,534.5 117.5,534.5 113.5,534.5C 101.5,534.5 89.5,534.5 77.5,534.5C 73.5,534.5 69.5,534.5 65.5,534.5C 65.5,538.167 65.5,541.833 65.5,545.5C 64.5184,542.038 64.185,538.371 64.5,534.5C 52.8333,534.5 41.1667,534.5 29.5,534.5C 29.8168,538.702 29.4834,542.702 28.5,546.5C 24.5,546.5 20.5,546.5 16.5,546.5C 16.5,542.5 16.5,538.5 16.5,534.5C 20.2984,533.517 24.2984,533.183 28.5,533.5C 28.8886,525.836 29.222,518.17 29.5,510.5C 33.1667,510.5 36.8333,510.5 40.5,510.5C 40.5,514.167 40.5,517.833 40.5,521.5C 44.5,521.5 48.5,521.5 52.5,521.5C 52.5,517.833 52.5,514.167 52.5,510.5C 56.8333,510.5 61.1667,510.5 65.5,510.5C 65.5,518.167 65.5,525.833 65.5,533.5C 69.5,533.5 73.5,533.5 77.5,533.5C 77.5,529.5 77.5,525.5 77.5,521.5C 85.5,521.833 93.5,522.167 101.5,522.5C 101.5,518.167 101.5,513.833 101.5,509.5C 105.5,509.5 109.5,509.5 113.5,509.5C 113.5,505.5 113.5,501.5 113.5,497.5C 109.5,497.5 105.5,497.5 101.5,497.5C 101.5,493.833 101.5,490.167 101.5,486.5C 93.5,486.5 85.5,486.5 77.5,486.5C 73.5,486.5 69.5,486.5 65.5,486.5C 65.5,490.167 65.5,493.833 65.5,497.5C 64.5184,494.038 64.185,490.371 64.5,486.5C 52.8333,486.5 41.1667,486.5 29.5,486.5C 29.5,490.5 29.5,494.5 29.5,498.5C 25.1667,498.5 20.8333,498.5 16.5,498.5C 16.5,494.167 16.5,489.833 16.5,485.5C 20.5,485.5 24.5,485.5 28.5,485.5C 28.5,481.5 28.5,477.5 28.5,473.5C 34.8333,473.5 41.1667,473.5 47.5,473.5C 47.5,468.5 47.5,463.5 47.5,458.5 Z"/></g>
<g><path style="opacity:1" fill="#f4f4f4" d="M 162.5,510.5 C 166.5,510.5 170.5,510.5 174.5,510.5C 174.5,518.167 174.5,525.833 174.5,533.5C 170.5,533.5 166.5,533.5 162.5,533.5C 162.5,529.833 162.5,526.167 162.5,522.5C 162.5,518.5 162.5,514.5 162.5,510.5 Z"/></g>
<g><path style="opacity:1" fill="#e8e8e8" d="M 248.5,498.5 C 252.5,498.5 256.5,498.5 260.5,498.5C 260.5,502.167 260.5,505.833 260.5,509.5C 264.5,509.5 268.5,509.5 272.5,509.5C 272.5,513.5 272.5,517.5 272.5,521.5C 268.5,521.5 264.5,521.5 260.5,521.5C 260.5,525.5 260.5,529.5 260.5,533.5C 256.298,533.183 252.298,533.517 248.5,534.5C 248.5,538.5 248.5,542.5 248.5,546.5C 244.5,546.5 240.5,546.5 236.5,546.5C 236.5,542.5 236.5,538.5 236.5,534.5C 232.5,534.5 228.5,534.5 224.5,534.5C 224.5,530.167 224.5,525.833 224.5,521.5C 228.167,521.5 231.833,521.5 235.5,521.5C 235.185,517.629 235.518,513.962 236.5,510.5C 240.298,509.517 244.298,509.183 248.5,509.5C 248.5,505.833 248.5,502.167 248.5,498.5 Z"/></g>
<g><path style="opacity:1" fill="#f6f6f6" d="M 200.5,510.5 C 204.167,510.5 207.833,510.5 211.5,510.5C 211.5,518.167 211.5,525.833 211.5,533.5C 207.833,533.5 204.167,533.5 200.5,533.5C 200.5,525.833 200.5,518.167 200.5,510.5 Z"/></g>
<g><path style="opacity:1" fill="#f6f6f6" d="M 297.5,510.5 C 301.167,510.5 304.833,510.5 308.5,510.5C 308.5,518.167 308.5,525.833 308.5,533.5C 304.833,533.5 301.167,533.5 297.5,533.5C 297.5,525.833 297.5,518.167 297.5,510.5 Z"/></g>
<g><path style="opacity:1" fill="#c8c8c8" d="M 236.5,510.5 C 240.5,510.5 244.5,510.5 248.5,510.5C 248.5,514.5 248.5,518.5 248.5,522.5C 244.5,522.5 240.5,522.5 236.5,522.5C 236.5,518.5 236.5,514.5 236.5,510.5 Z"/></g>
<g><path style="opacity:1" fill="#c8c8c8" d="M 150.5,510.5 C 154.5,510.5 158.5,510.5 162.5,510.5C 162.5,514.5 162.5,518.5 162.5,522.5C 158.5,522.5 154.5,522.5 150.5,522.5C 150.5,518.5 150.5,514.5 150.5,510.5 Z"/></g>
<g><path style="opacity:1" fill="#f6f6f6" d="M 114.5,510.5 C 118.167,510.5 121.833,510.5 125.5,510.5C 125.5,518.167 125.5,525.833 125.5,533.5C 121.833,533.5 118.167,533.5 114.5,533.5C 114.5,525.833 114.5,518.167 114.5,510.5 Z"/></g>
<g><path style="opacity:1" fill="#ababab" d="M 297.5,486.5 C 301.167,486.5 304.833,486.5 308.5,486.5C 308.5,490.167 308.5,493.833 308.5,497.5C 304.833,497.5 301.167,497.5 297.5,497.5C 297.5,493.833 297.5,490.167 297.5,486.5 Z"/></g>
<g><path style="opacity:1" fill="#f6f6f6" d="M 260.5,486.5 C 268.5,486.5 276.5,486.5 284.5,486.5C 284.5,490.167 284.5,493.833 284.5,497.5C 288.5,497.5 292.5,497.5 296.5,497.5C 296.5,501.5 296.5,505.5 296.5,509.5C 292.5,509.5 288.5,509.5 284.5,509.5C 284.5,513.833 284.5,518.167 284.5,522.5C 280.298,522.817 276.298,522.483 272.5,521.5C 272.5,517.5 272.5,513.5 272.5,509.5C 268.5,509.5 264.5,509.5 260.5,509.5C 260.5,505.833 260.5,502.167 260.5,498.5C 260.5,494.5 260.5,490.5 260.5,486.5 Z"/></g>
<g><path style="opacity:1" fill="#aeaeae" d="M 260.5,486.5 C 260.5,490.5 260.5,494.5 260.5,498.5C 256.5,498.5 252.5,498.5 248.5,498.5C 248.5,498.167 248.5,497.833 248.5,497.5C 248.5,493.833 248.5,490.167 248.5,486.5C 252.5,486.5 256.5,486.5 260.5,486.5 Z"/></g>
<g><path style="opacity:1" fill="#f4f4f4" d="M 248.5,497.5 C 248.5,497.833 248.5,498.167 248.5,498.5C 248.5,502.167 248.5,505.833 248.5,509.5C 244.298,509.183 240.298,509.517 236.5,510.5C 235.518,513.962 235.185,517.629 235.5,521.5C 231.833,521.5 228.167,521.5 224.5,521.5C 224.5,517.5 224.5,513.5 224.5,509.5C 220.5,509.5 216.5,509.5 212.5,509.5C 212.5,501.833 212.5,494.167 212.5,486.5C 224.167,486.5 235.833,486.5 247.5,486.5C 247.185,490.371 247.518,494.038 248.5,497.5 Z"/></g>
<g><path style="opacity:1" fill="#ababab" d="M 200.5,486.5 C 204.167,486.5 207.833,486.5 211.5,486.5C 211.5,490.167 211.5,493.833 211.5,497.5C 207.833,497.5 204.167,497.5 200.5,497.5C 200.5,493.833 200.5,490.167 200.5,486.5 Z"/></g>
<g><path style="opacity:1" fill="#f6f6f6" d="M 174.5,486.5 C 178.833,486.5 183.167,486.5 187.5,486.5C 187.5,490.167 187.5,493.833 187.5,497.5C 191.5,497.5 195.5,497.5 199.5,497.5C 199.5,501.5 199.5,505.5 199.5,509.5C 195.5,509.5 191.5,509.5 187.5,509.5C 187.167,526.833 186.833,526.833 186.5,509.5C 182.5,509.5 178.5,509.5 174.5,509.5C 174.5,505.833 174.5,502.167 174.5,498.5C 174.5,494.5 174.5,490.5 174.5,486.5 Z"/></g>
<g><path style="opacity:1" fill="#aeaeae" d="M 162.5,485.5 C 166.5,485.5 170.5,485.5 174.5,485.5C 174.5,485.833 174.5,486.167 174.5,486.5C 174.5,490.5 174.5,494.5 174.5,498.5C 170.5,498.5 166.5,498.5 162.5,498.5C 162.5,498.167 162.5,497.833 162.5,497.5C 162.5,493.5 162.5,489.5 162.5,485.5 Z"/></g>
<g><path style="opacity:1" fill="#f4f4f4" d="M 162.5,497.5 C 162.5,497.833 162.5,498.167 162.5,498.5C 162.5,502.167 162.5,505.833 162.5,509.5C 158.298,509.183 154.298,509.517 150.5,510.5C 149.518,513.962 149.185,517.629 149.5,521.5C 145.833,521.5 142.167,521.5 138.5,521.5C 138.5,517.5 138.5,513.5 138.5,509.5C 134.5,509.5 130.5,509.5 126.5,509.5C 126.5,501.833 126.5,494.167 126.5,486.5C 138.167,486.5 149.833,486.5 161.5,486.5C 161.185,490.371 161.518,494.038 162.5,497.5 Z"/></g>
<g><path style="opacity:1" fill="#ababab" d="M 114.5,486.5 C 118.167,486.5 121.833,486.5 125.5,486.5C 125.5,490.167 125.5,493.833 125.5,497.5C 121.833,497.5 118.167,497.5 114.5,497.5C 114.5,493.833 114.5,490.167 114.5,486.5 Z"/></g>
<g><path style="opacity:1" fill="#aeaeae" d="M 77.5,486.5 C 77.5,490.5 77.5,494.5 77.5,498.5C 73.2984,498.817 69.2984,498.483 65.5,497.5C 65.5,493.833 65.5,490.167 65.5,486.5C 69.5,486.5 73.5,486.5 77.5,486.5 Z"/></g>
<g><path style="opacity:1" fill="#ababab" d="M 17.5,486.5 C 21.1667,486.5 24.8333,486.5 28.5,486.5C 28.5,490.167 28.5,493.833 28.5,497.5C 24.8333,497.5 21.1667,497.5 17.5,497.5C 17.5,493.833 17.5,490.167 17.5,486.5 Z"/></g>
<g><path style="opacity:1" fill="#c7c7c7" d="M 186.5,473.5 C 186.5,477.5 186.5,481.5 186.5,485.5C 182.5,485.5 178.5,485.5 174.5,485.5C 174.5,481.5 174.5,477.5 174.5,473.5C 178.5,473.5 182.5,473.5 186.5,473.5 Z"/></g>
<g><path style="opacity:1" fill="#adadad" d="M 16.5,534.5 C 20.5,534.5 24.5,534.5 28.5,534.5C 28.5,538.5 28.5,542.5 28.5,546.5C 28.5,542.5 28.5,538.5 28.5,534.5C 24.5,534.5 20.5,534.5 16.5,534.5 Z"/></g>
<g><path style="opacity:1" fill="#c7c7c7" d="M 4.5,558.5 C 8.5,558.5 12.5,558.5 16.5,558.5C 16.5,562.5 16.5,566.5 16.5,570.5C 12.5,570.5 8.5,570.5 4.5,570.5C 4.5,566.5 4.5,562.5 4.5,558.5 Z"/></g>
<g><path style="opacity:1" fill="#c7c7c7" d="M 29.5,570.5 C 33.5,570.5 37.5,570.5 41.5,570.5C 41.5,574.5 41.5,578.5 41.5,582.5C 37.5,582.5 33.5,582.5 29.5,582.5C 29.5,578.5 29.5,574.5 29.5,570.5 Z"/></g>
<g><path style="opacity:1" fill="#f0f0f0" d="M 507.5,473.5 C 511.5,473.5 515.5,473.5 519.5,473.5C 519.5,474.5 519.5,475.5 519.5,476.5C 519.5,524.167 519.5,571.833 519.5,619.5C 491.5,619.5 463.5,619.5 435.5,619.5C 435.5,615.167 435.5,610.833 435.5,606.5C 439.167,606.5 442.833,606.5 446.5,606.5C 446.5,602.5 446.5,598.5 446.5,594.5C 446.5,590.5 446.5,586.5 446.5,582.5C 442.5,582.5 438.5,582.5 434.5,582.5C 434.5,586.5 434.5,590.5 434.5,594.5C 434.5,598.5 434.5,602.5 434.5,606.5C 430.5,606.5 426.5,606.5 422.5,606.5C 422.5,610.5 422.5,614.5 422.5,618.5C 418.5,618.5 414.5,618.5 410.5,618.5C 410.5,614.5 410.5,610.5 410.5,606.5C 406.5,606.5 402.5,606.5 398.5,606.5C 398.5,610.833 398.5,615.167 398.5,619.5C 364.833,619.5 331.167,619.5 297.5,619.5C 297.5,615.167 297.5,610.833 297.5,606.5C 301.167,606.5 304.833,606.5 308.5,606.5C 308.5,602.5 308.5,598.5 308.5,594.5C 308.5,590.5 308.5,586.5 308.5,582.5C 304.5,582.5 300.5,582.5 296.5,582.5C 296.5,586.5 296.5,590.5 296.5,594.5C 296.5,598.5 296.5,602.5 296.5,606.5C 292.5,606.5 288.5,606.5 284.5,606.5C 284.5,610.5 284.5,614.5 284.5,618.5C 280.5,618.5 276.5,618.5 272.5,618.5C 272.5,614.5 272.5,610.5 272.5,606.5C 268.5,606.5 264.5,606.5 260.5,606.5C 260.5,610.833 260.5,615.167 260.5,619.5C 211.833,619.5 163.167,619.5 114.5,619.5C 114.5,615.167 114.5,610.833 114.5,606.5C 118.167,606.5 121.833,606.5 125.5,606.5C 125.5,602.5 125.5,598.5 125.5,594.5C 125.5,590.5 125.5,586.5 125.5,582.5C 121.5,582.5 117.5,582.5 113.5,582.5C 113.5,586.5 113.5,590.5 113.5,594.5C 113.5,598.5 113.5,602.5 113.5,606.5C 109.5,606.5 105.5,606.5 101.5,606.5C 101.5,610.5 101.5,614.5 101.5,618.5C 97.5,618.5 93.5,618.5 89.5,618.5C 89.5,614.5 89.5,610.5 89.5,606.5C 85.5,606.5 81.5,606.5 77.5,606.5C 77.5,610.833 77.5,615.167 77.5,619.5C 57.5,619.5 37.5,619.5 17.5,619.5C 17.5,615.167 17.5,610.833 17.5,606.5C 21.1667,606.5 24.8333,606.5 28.5,606.5C 28.5,602.5 28.5,598.5 28.5,594.5C 29.4834,590.702 29.8168,586.702 29.5,582.5C 33.5,582.5 37.5,582.5 41.5,582.5C 41.5,578.5 41.5,574.5 41.5,570.5C 37.5,570.5 33.5,570.5 29.5,570.5C 28.5184,573.962 28.185,577.629 28.5,581.5C 24.8333,581.5 21.1667,581.5 17.5,581.5C 17.5,573.833 17.5,566.167 17.5,558.5C 21.1667,558.5 24.8333,558.5 28.5,558.5C 28.5,554.5 28.5,550.5 28.5,546.5C 29.4834,542.702 29.8168,538.702 29.5,534.5C 41.1667,534.5 52.8333,534.5 64.5,534.5C 64.185,538.371 64.5184,542.038 65.5,545.5C 69.2984,546.483 73.2984,546.817 77.5,546.5C 77.5,542.5 77.5,538.5 77.5,534.5C 89.5,534.5 101.5,534.5 113.5,534.5C 117.5,534.5 121.5,534.5 125.5,534.5C 125.5,538.5 125.5,542.5 125.5,546.5C 126.483,542.702 126.817,538.702 126.5,534.5C 134.5,534.5 142.5,534.5 150.5,534.5C 150.207,538.437 150.54,542.27 151.5,546C 155.152,546.499 158.818,546.665 162.5,546.5C 166.5,546.5 170.5,546.5 174.5,546.5C 174.5,542.5 174.5,538.5 174.5,534.5C 182.833,534.5 191.167,534.5 199.5,534.5C 203.5,534.5 207.5,534.5 211.5,534.5C 211.5,538.5 211.5,542.5 211.5,546.5C 212.483,542.702 212.817,538.702 212.5,534.5C 216.5,534.5 220.5,534.5 224.5,534.5C 228.5,534.5 232.5,534.5 236.5,534.5C 236.5,538.5 236.5,542.5 236.5,546.5C 240.5,546.5 244.5,546.5 248.5,546.5C 252.5,546.5 256.5,546.5 260.5,546.5C 260.5,542.5 260.5,538.5 260.5,534.5C 272.5,534.5 284.5,534.5 296.5,534.5C 300.5,534.5 304.5,534.5 308.5,534.5C 308.5,538.5 308.5,542.5 308.5,546.5C 309.483,542.702 309.817,538.702 309.5,534.5C 313.5,534.5 317.5,534.5 321.5,534.5C 321.5,526.167 321.5,517.833 321.5,509.5C 317.5,509.5 313.5,509.5 309.5,509.5C 309.5,501.5 309.5,493.5 309.5,485.5C 318.915,486.01 328.248,486.01 337.5,485.5C 337.5,489.833 337.5,494.167 337.5,498.5C 341.833,498.5 346.167,498.5 350.5,498.5C 350.5,494.5 350.5,490.5 350.5,486.5C 362.167,486.5 373.833,486.5 385.5,486.5C 385.185,490.371 385.518,494.038 386.5,497.5C 390.298,498.483 394.298,498.817 398.5,498.5C 398.5,494.5 398.5,490.5 398.5,486.5C 406.5,486.5 414.5,486.5 422.5,486.5C 422.5,490.167 422.5,493.833 422.5,497.5C 426.5,497.5 430.5,497.5 434.5,497.5C 434.5,501.5 434.5,505.5 434.5,509.5C 430.5,509.5 426.5,509.5 422.5,509.5C 422.5,513.833 422.5,518.167 422.5,522.5C 414.5,522.167 406.5,521.833 398.5,521.5C 398.5,525.5 398.5,529.5 398.5,533.5C 394.5,533.5 390.5,533.5 386.5,533.5C 386.5,525.833 386.5,518.167 386.5,510.5C 382.167,510.5 377.833,510.5 373.5,510.5C 373.5,514.167 373.5,517.833 373.5,521.5C 369.5,521.5 365.5,521.5 361.5,521.5C 361.5,517.833 361.5,514.167 361.5,510.5C 357.833,510.5 354.167,510.5 350.5,510.5C 350.222,518.17 349.889,525.836 349.5,533.5C 345.298,533.183 341.298,533.517 337.5,534.5C 341.5,534.5 345.5,534.5 349.5,534.5C 349.5,538.5 349.5,542.5 349.5,546.5C 350.483,542.702 350.817,538.702 350.5,534.5C 362.167,534.5 373.833,534.5 385.5,534.5C 385.185,538.371 385.518,542.038 386.5,545.5C 390.298,546.483 394.298,546.817 398.5,546.5C 398.5,542.5 398.5,538.5 398.5,534.5C 410.5,534.5 422.5,534.5 434.5,534.5C 438.5,534.5 442.5,534.5 446.5,534.5C 446.5,538.5 446.5,542.5 446.5,546.5C 447.483,542.702 447.817,538.702 447.5,534.5C 451.5,534.5 455.5,534.5 459.5,534.5C 459.5,526.167 459.5,517.833 459.5,509.5C 455.5,509.5 451.5,509.5 447.5,509.5C 447.5,501.833 447.5,494.167 447.5,486.5C 459.167,486.5 470.833,486.5 482.5,486.5C 482.185,490.371 482.518,494.038 483.5,497.5C 487.298,498.483 491.298,498.817 495.5,498.5C 495.5,494.167 495.5,489.833 495.5,485.5C 499.5,485.5 503.5,485.5 507.5,485.5C 507.5,481.5 507.5,477.5 507.5,473.5 Z"/></g>
<g><path style="opacity:1" fill="#adadad" d="M 125.5,594.5 C 121.5,594.5 117.5,594.5 113.5,594.5C 113.5,590.5 113.5,586.5 113.5,582.5C 117.5,582.5 121.5,582.5 125.5,582.5C 125.5,586.5 125.5,590.5 125.5,594.5 Z"/></g>
<g><path style="opacity:1" fill="#c7c7c7" d="M 495.5,582.5 C 495.5,578.5 495.5,574.5 495.5,570.5C 499.5,570.5 503.5,570.5 507.5,570.5C 507.5,574.5 507.5,578.5 507.5,582.5C 503.5,582.5 499.5,582.5 495.5,582.5 Z"/></g>
<g><path style="opacity:1" fill="#c7c7c7" d="M 447.5,570.5 C 451.5,570.5 455.5,570.5 459.5,570.5C 459.5,574.5 459.5,578.5 459.5,582.5C 455.5,582.5 451.5,582.5 447.5,582.5C 447.5,578.5 447.5,574.5 447.5,570.5 Z"/></g>
<g><path style="opacity:1" fill="#c7c7c7" d="M 398.5,582.5 C 398.5,578.5 398.5,574.5 398.5,570.5C 402.5,570.5 406.5,570.5 410.5,570.5C 410.5,574.5 410.5,578.5 410.5,582.5C 406.5,582.5 402.5,582.5 398.5,582.5 Z"/></g>
<g><path style="opacity:1" fill="#c7c7c7" d="M 350.5,570.5 C 354.5,570.5 358.5,570.5 362.5,570.5C 362.5,574.5 362.5,578.5 362.5,582.5C 358.5,582.5 354.5,582.5 350.5,582.5C 350.5,578.5 350.5,574.5 350.5,570.5 Z"/></g>
<g><path style="opacity:1" fill="#c7c7c7" d="M 309.5,570.5 C 313.5,570.5 317.5,570.5 321.5,570.5C 321.5,574.5 321.5,578.5 321.5,582.5C 317.5,582.5 313.5,582.5 309.5,582.5C 309.5,578.5 309.5,574.5 309.5,570.5 Z"/></g>
<g><path style="opacity:1" fill="#c7c7c7" d="M 260.5,582.5 C 260.5,578.5 260.5,574.5 260.5,570.5C 264.5,570.5 268.5,570.5 272.5,570.5C 272.5,574.5 272.5,578.5 272.5,582.5C 268.5,582.5 264.5,582.5 260.5,582.5 Z"/></g>
<g><path style="opacity:1" fill="#c7c7c7" d="M 212.5,570.5 C 216.5,570.5 220.5,570.5 224.5,570.5C 224.5,574.5 224.5,578.5 224.5,582.5C 220.5,582.5 216.5,582.5 212.5,582.5C 212.5,578.5 212.5,574.5 212.5,570.5 Z"/></g>
<g><path style="opacity:1" fill="#c7c7c7" d="M 174.5,582.5 C 174.5,578.5 174.5,574.5 174.5,570.5C 178.5,570.5 182.5,570.5 186.5,570.5C 186.5,574.5 186.5,578.5 186.5,582.5C 182.5,582.5 178.5,582.5 174.5,582.5 Z"/></g>
<g><path style="opacity:1" fill="#c7c7c7" d="M 126.5,570.5 C 130.5,570.5 134.5,570.5 138.5,570.5C 138.5,574.5 138.5,578.5 138.5,582.5C 134.5,582.5 130.5,582.5 126.5,582.5C 126.5,578.5 126.5,574.5 126.5,570.5 Z"/></g>
<g><path style="opacity:1" fill="#c7c7c7" d="M 77.5,582.5 C 77.5,578.5 77.5,574.5 77.5,570.5C 81.5,570.5 85.5,570.5 89.5,570.5C 89.5,574.5 89.5,578.5 89.5,582.5C 85.5,582.5 81.5,582.5 77.5,582.5 Z"/></g>
<g><path style="opacity:1" fill="#c7c7c7" d="M 471.5,558.5 C 475.5,558.5 479.5,558.5 483.5,558.5C 483.5,562.5 483.5,566.5 483.5,570.5C 479.5,570.5 475.5,570.5 471.5,570.5C 471.5,566.5 471.5,562.5 471.5,558.5 Z"/></g>
<g><path style="opacity:1" fill="#c8c8c8" d="M 422.5,558.5 C 426.5,558.5 430.5,558.5 434.5,558.5C 434.5,562.5 434.5,566.5 434.5,570.5C 430.5,570.5 426.5,570.5 422.5,570.5C 422.5,566.5 422.5,562.5 422.5,558.5 Z"/></g>
<g><path style="opacity:1" fill="#c7c7c7" d="M 374.5,558.5 C 378.5,558.5 382.5,558.5 386.5,558.5C 386.5,562.5 386.5,566.5 386.5,570.5C 382.5,570.5 378.5,570.5 374.5,570.5C 374.5,566.5 374.5,562.5 374.5,558.5 Z"/></g>
<g><path style="opacity:1" fill="#c7c7c7" d="M 325.5,558.5 C 329.5,558.5 333.5,558.5 337.5,558.5C 337.5,562.5 337.5,566.5 337.5,570.5C 333.5,570.5 329.5,570.5 325.5,570.5C 325.5,566.5 325.5,562.5 325.5,558.5 Z"/></g>
<g><path style="opacity:1" fill="#c8c8c8" d="M 284.5,558.5 C 288.5,558.5 292.5,558.5 296.5,558.5C 296.5,562.5 296.5,566.5 296.5,570.5C 292.5,570.5 288.5,570.5 284.5,570.5C 284.5,566.5 284.5,562.5 284.5,558.5 Z"/></g>
<g><path style="opacity:1" fill="#c7c7c7" d="M 236.5,558.5 C 240.5,558.5 244.5,558.5 248.5,558.5C 248.5,562.5 248.5,566.5 248.5,570.5C 244.5,570.5 240.5,570.5 236.5,570.5C 236.5,566.5 236.5,562.5 236.5,558.5 Z"/></g>
<g><path style="opacity:1" fill="#c7c7c7" d="M 187.5,558.5 C 191.5,558.5 195.5,558.5 199.5,558.5C 199.5,562.5 199.5,566.5 199.5,570.5C 195.5,570.5 191.5,570.5 187.5,570.5C 187.5,566.5 187.5,562.5 187.5,558.5 Z"/></g>
<g><path style="opacity:1" fill="#c7c7c7" d="M 150.5,558.5 C 154.5,558.5 158.5,558.5 162.5,558.5C 162.5,562.5 162.5,566.5 162.5,570.5C 158.5,570.5 154.5,570.5 150.5,570.5C 150.5,566.5 150.5,562.5 150.5,558.5 Z"/></g>
<g><path style="opacity:1" fill="#c8c8c8" d="M 101.5,558.5 C 105.5,558.5 109.5,558.5 113.5,558.5C 113.5,562.5 113.5,566.5 113.5,570.5C 109.5,570.5 105.5,570.5 101.5,570.5C 101.5,566.5 101.5,562.5 101.5,558.5 Z"/></g>
<g><path style="opacity:1" fill="#c7c7c7" d="M 53.5,558.5 C 57.5,558.5 61.5,558.5 65.5,558.5C 65.5,562.5 65.5,566.5 65.5,570.5C 61.5,570.5 57.5,570.5 53.5,570.5C 53.5,566.5 53.5,562.5 53.5,558.5 Z"/></g>
<g><path style="opacity:1" fill="#adadad" d="M 483.5,534.5 C 487.5,534.5 491.5,534.5 495.5,534.5C 495.5,538.5 495.5,542.5 495.5,546.5C 491.5,546.5 487.5,546.5 483.5,546.5C 483.5,542.5 483.5,538.5 483.5,534.5 Z"/></g>
<g><path style="opacity:1" fill="#adadad" d="M 434.5,534.5 C 438.5,534.5 442.5,534.5 446.5,534.5C 446.5,538.5 446.5,542.5 446.5,546.5C 442.5,546.5 438.5,546.5 434.5,546.5C 434.5,542.5 434.5,538.5 434.5,534.5 Z"/></g>
<g><path style="opacity:1" fill="#adadad" d="M 398.5,534.5 C 398.5,538.5 398.5,542.5 398.5,546.5C 394.298,546.817 390.298,546.483 386.5,545.5C 386.5,541.833 386.5,538.167 386.5,534.5C 390.5,534.5 394.5,534.5 398.5,534.5 Z"/></g>
<g><path style="opacity:1" fill="#adadad" d="M 337.5,534.5 C 341.5,534.5 345.5,534.5 349.5,534.5C 349.5,538.5 349.5,542.5 349.5,546.5C 345.5,546.5 341.5,546.5 337.5,546.5C 337.5,542.5 337.5,538.5 337.5,534.5 Z"/></g>
<g><path style="opacity:1" fill="#adadad" d="M 296.5,534.5 C 300.5,534.5 304.5,534.5 308.5,534.5C 308.5,538.5 308.5,542.5 308.5,546.5C 304.5,546.5 300.5,546.5 296.5,546.5C 296.5,542.5 296.5,538.5 296.5,534.5 Z"/></g>
<g><path style="opacity:1" fill="#adadad" d="M 248.5,534.5 C 252.5,534.5 256.5,534.5 260.5,534.5C 260.5,538.5 260.5,542.5 260.5,546.5C 256.5,546.5 252.5,546.5 248.5,546.5C 248.5,542.5 248.5,538.5 248.5,534.5 Z"/></g>
<g><path style="opacity:1" fill="#adadad" d="M 199.5,534.5 C 203.5,534.5 207.5,534.5 211.5,534.5C 211.5,538.5 211.5,542.5 211.5,546.5C 207.5,546.5 203.5,546.5 199.5,546.5C 199.5,542.5 199.5,538.5 199.5,534.5 Z"/></g>
<g><path style="opacity:1" fill="#adadad" d="M 174.5,534.5 C 174.5,538.5 174.5,542.5 174.5,546.5C 170.5,546.5 166.5,546.5 162.5,546.5C 162.5,542.5 162.5,538.5 162.5,534.5C 166.5,534.5 170.5,534.5 174.5,534.5 Z"/></g>
<g><path style="opacity:1" fill="#adadad" d="M 113.5,534.5 C 117.5,534.5 121.5,534.5 125.5,534.5C 125.5,538.5 125.5,542.5 125.5,546.5C 121.5,546.5 117.5,546.5 113.5,546.5C 113.5,542.5 113.5,538.5 113.5,534.5 Z"/></g>
<g><path style="opacity:1" fill="#adadad" d="M 77.5,534.5 C 77.5,538.5 77.5,542.5 77.5,546.5C 73.2984,546.817 69.2984,546.483 65.5,545.5C 65.5,541.833 65.5,538.167 65.5,534.5C 69.5,534.5 73.5,534.5 77.5,534.5 Z"/></g>
<g><path style="opacity:1" fill="#c7c7c7" d="M 495.5,522.5 C 499.5,522.5 503.5,522.5 507.5,522.5C 507.5,526.167 507.5,529.833 507.5,533.5C 503.5,533.5 499.5,533.5 495.5,533.5C 495.5,529.833 495.5,526.167 495.5,522.5 Z"/></g>
<g><path style="opacity:1" fill="#c8c8c8" d="M 471.5,510.5 C 475.5,510.5 479.5,510.5 483.5,510.5C 483.5,514.5 483.5,518.5 483.5,522.5C 479.5,522.5 475.5,522.5 471.5,522.5C 471.5,518.5 471.5,514.5 471.5,510.5 Z"/></g>
<g><path style="opacity:1" fill="#f6f6f6" d="M 435.5,510.5 C 439.167,510.5 442.833,510.5 446.5,510.5C 446.5,518.167 446.5,525.833 446.5,533.5C 442.833,533.5 439.167,533.5 435.5,533.5C 435.5,525.833 435.5,518.167 435.5,510.5 Z"/></g>
<g><path style="opacity:1" fill="#c7c7c7" d="M 325.5,510.5 C 329.5,510.5 333.5,510.5 337.5,510.5C 337.5,514.5 337.5,518.5 337.5,522.5C 333.5,522.5 329.5,522.5 325.5,522.5C 325.5,518.5 325.5,514.5 325.5,510.5 Z"/></g>
<g><path style="opacity:1" fill="#aeaeae" d="M 483.5,485.5 C 487.5,485.5 491.5,485.5 495.5,485.5C 495.5,489.833 495.5,494.167 495.5,498.5C 491.298,498.817 487.298,498.483 483.5,497.5C 483.5,493.5 483.5,489.5 483.5,485.5 Z"/></g>
<g><path style="opacity:1" fill="#ababab" d="M 435.5,486.5 C 439.167,486.5 442.833,486.5 446.5,486.5C 446.5,490.167 446.5,493.833 446.5,497.5C 442.833,497.5 439.167,497.5 435.5,497.5C 435.5,493.833 435.5,490.167 435.5,486.5 Z"/></g>
<g><path style="opacity:1" fill="#aeaeae" d="M 398.5,486.5 C 398.5,490.5 398.5,494.5 398.5,498.5C 394.298,498.817 390.298,498.483 386.5,497.5C 386.5,493.833 386.5,490.167 386.5,486.5C 390.5,486.5 394.5,486.5 398.5,486.5 Z"/></g>
<g><path style="opacity:1" fill="#ababab" d="M 338.5,486.5 C 342.167,486.5 345.833,486.5 349.5,486.5C 349.5,490.167 349.5,493.833 349.5,497.5C 345.833,497.5 342.167,497.5 338.5,497.5C 338.5,493.833 338.5,490.167 338.5,486.5 Z"/></g>
<g><path style="opacity:1" fill="#adadad" d="M 308.5,594.5 C 304.5,594.5 300.5,594.5 296.5,594.5C 296.5,590.5 296.5,586.5 296.5,582.5C 300.5,582.5 304.5,582.5 308.5,582.5C 308.5,586.5 308.5,590.5 308.5,594.5 Z"/></g>
<g><path style="opacity:1" fill="#adadad" d="M 446.5,594.5 C 442.5,594.5 438.5,594.5 434.5,594.5C 434.5,590.5 434.5,586.5 434.5,582.5C 438.5,582.5 442.5,582.5 446.5,582.5C 446.5,586.5 446.5,590.5 446.5,594.5 Z"/></g>
<g><path style="opacity:1" fill="#adadad" d="M 28.5,594.5 C 24.5,594.5 20.5,594.5 16.5,594.5C 16.5,590.5 16.5,586.5 16.5,582.5C 20.5,582.5 24.5,582.5 28.5,582.5C 28.5,586.5 28.5,590.5 28.5,594.5 Z"/></g>
<g><path style="opacity:1" fill="#acacac" d="M 77.5,582.5 C 81.5,582.5 85.5,582.5 89.5,582.5C 89.5,578.5 89.5,574.5 89.5,570.5C 85.5,570.5 81.5,570.5 77.5,570.5C 77.5,574.5 77.5,578.5 77.5,582.5 Z"/></g>
<g><path style="opacity:1" fill="#adadad" d="M 174.5,582.5 C 178.5,582.5 182.5,582.5 186.5,582.5C 186.5,578.5 186.5,574.5 186.5,570.5C 182.5,570.5 178.5,570.5 174.5,570.5C 174.5,574.5 174.5,578.5 174.5,582.5 Z"/></g>
<g><path style="opacity:1" fill="#adadad" d="M 199.5,582.5 C 203.5,582.5 207.5,582.5 211.5,582.5C 211.5,586.5 211.5,590.5 211.5,594.5C 207.5,594.5 203.5,594.5 199.5,594.5C 199.5,590.5 199.5,586.5 199.5,582.5 Z"/></g>
<g><path style="opacity:1" fill="#acacac" d="M 260.5,582.5 C 264.5,582.5 268.5,582.5 272.5,582.5C 272.5,578.5 272.5,574.5 272.5,570.5C 268.5,570.5 264.5,570.5 260.5,570.5C 260.5,574.5 260.5,578.5 260.5,582.5 Z"/></g>
<g><path style="opacity:1" fill="#adadad" d="M 337.5,582.5 C 341.5,582.5 345.5,582.5 349.5,582.5C 349.5,586.5 349.5,590.5 349.5,594.5C 345.5,594.5 341.5,594.5 337.5,594.5C 337.5,590.5 337.5,586.5 337.5,582.5 Z"/></g>
<g><path style="opacity:1" fill="#acacac" d="M 398.5,582.5 C 402.5,582.5 406.5,582.5 410.5,582.5C 410.5,578.5 410.5,574.5 410.5,570.5C 406.5,570.5 402.5,570.5 398.5,570.5C 398.5,574.5 398.5,578.5 398.5,582.5 Z"/></g>
<g><path style="opacity:1" fill="#adadad" d="M 495.5,582.5 C 499.5,582.5 503.5,582.5 507.5,582.5C 507.5,578.5 507.5,574.5 507.5,570.5C 503.5,570.5 499.5,570.5 495.5,570.5C 495.5,574.5 495.5,578.5 495.5,582.5 Z"/></g>
<g><path style="opacity:1" fill="#dcdcdc" d="M 113.5,594.5 C 117.5,594.5 121.5,594.5 125.5,594.5C 125.5,598.5 125.5,602.5 125.5,606.5C 121.833,606.5 118.167,606.5 114.5,606.5C 114.5,610.833 114.5,615.167 114.5,619.5C 102.167,619.5 89.8333,619.5 77.5,619.5C 77.5,615.167 77.5,610.833 77.5,606.5C 81.5,606.5 85.5,606.5 89.5,606.5C 89.5,610.5 89.5,614.5 89.5,618.5C 93.5,618.5 97.5,618.5 101.5,618.5C 101.5,614.5 101.5,610.5 101.5,606.5C 105.5,606.5 109.5,606.5 113.5,606.5C 113.5,602.5 113.5,598.5 113.5,594.5 Z"/></g>
<g><path style="opacity:1" fill="#dcdcdc" d="M 296.5,594.5 C 300.5,594.5 304.5,594.5 308.5,594.5C 308.5,598.5 308.5,602.5 308.5,606.5C 304.833,606.5 301.167,606.5 297.5,606.5C 297.5,610.833 297.5,615.167 297.5,619.5C 285.167,619.5 272.833,619.5 260.5,619.5C 260.5,615.167 260.5,610.833 260.5,606.5C 264.5,606.5 268.5,606.5 272.5,606.5C 272.5,610.5 272.5,614.5 272.5,618.5C 276.5,618.5 280.5,618.5 284.5,618.5C 284.5,614.5 284.5,610.5 284.5,606.5C 288.5,606.5 292.5,606.5 296.5,606.5C 296.5,602.5 296.5,598.5 296.5,594.5 Z"/></g>
<g><path style="opacity:1" fill="#dcdcdc" d="M 434.5,594.5 C 438.5,594.5 442.5,594.5 446.5,594.5C 446.5,598.5 446.5,602.5 446.5,606.5C 442.833,606.5 439.167,606.5 435.5,606.5C 435.5,610.833 435.5,615.167 435.5,619.5C 423.167,619.5 410.833,619.5 398.5,619.5C 398.5,615.167 398.5,610.833 398.5,606.5C 402.5,606.5 406.5,606.5 410.5,606.5C 410.5,610.5 410.5,614.5 410.5,618.5C 414.5,618.5 418.5,618.5 422.5,618.5C 422.5,614.5 422.5,610.5 422.5,606.5C 426.5,606.5 430.5,606.5 434.5,606.5C 434.5,602.5 434.5,598.5 434.5,594.5 Z"/></g>
<g><path style="opacity:1" fill="#c7c7c7" d="M 4.5,606.5 C 8.5,606.5 12.5,606.5 16.5,606.5C 16.5,610.5 16.5,614.5 16.5,618.5C 12.5,618.5 8.5,618.5 4.5,618.5C 4.5,614.5 4.5,610.5 4.5,606.5 Z"/></g>
<g><path style="opacity:1" fill="#c8c8c8" d="M 53.5,606.5 C 57.5,606.5 61.5,606.5 65.5,606.5C 65.5,610.5 65.5,614.5 65.5,618.5C 61.5,618.5 57.5,618.5 53.5,618.5C 53.5,614.5 53.5,610.5 53.5,606.5 Z"/></g>
<g><path style="opacity:1" fill="#c8c8c8" d="M 150.5,606.5 C 154.5,606.5 158.5,606.5 162.5,606.5C 162.5,610.5 162.5,614.5 162.5,618.5C 158.5,618.5 154.5,618.5 150.5,618.5C 150.5,614.5 150.5,610.5 150.5,606.5 Z"/></g>
<g><path style="opacity:1" fill="#c7c7c7" d="M 187.5,606.5 C 191.5,606.5 195.5,606.5 199.5,606.5C 199.5,610.5 199.5,614.5 199.5,618.5C 195.5,618.5 191.5,618.5 187.5,618.5C 187.5,614.5 187.5,610.5 187.5,606.5 Z"/></g>
<g><path style="opacity:1" fill="#c8c8c8" d="M 236.5,606.5 C 240.5,606.5 244.5,606.5 248.5,606.5C 248.5,610.5 248.5,614.5 248.5,618.5C 244.5,618.5 240.5,618.5 236.5,618.5C 236.5,614.5 236.5,610.5 236.5,606.5 Z"/></g>
<g><path style="opacity:1" fill="#c7c7c7" d="M 325.5,606.5 C 329.5,606.5 333.5,606.5 337.5,606.5C 337.5,610.5 337.5,614.5 337.5,618.5C 333.5,618.5 329.5,618.5 325.5,618.5C 325.5,614.5 325.5,610.5 325.5,606.5 Z"/></g>
<g><path style="opacity:1" fill="#c8c8c8" d="M 374.5,606.5 C 378.5,606.5 382.5,606.5 386.5,606.5C 386.5,610.5 386.5,614.5 386.5,618.5C 382.5,618.5 378.5,618.5 374.5,618.5C 374.5,614.5 374.5,610.5 374.5,606.5 Z"/></g>
<g><path style="opacity:1" fill="#c8c8c8" d="M 471.5,606.5 C 475.5,606.5 479.5,606.5 483.5,606.5C 483.5,610.5 483.5,614.5 483.5,618.5C 479.5,618.5 475.5,618.5 471.5,618.5C 471.5,614.5 471.5,610.5 471.5,606.5 Z"/></g>
</svg>
